<?xml version="1.0" standalone="no"?>
<!DOCTYPE svg PUBLIC "-//W3C//DTD SVG 1.1//EN" "http://www.w3.org/Graphics/SVG/1.1/DTD/svg11.dtd" >
<svg xmlns="http://www.w3.org/2000/svg" xmlns:xlink="http://www.w3.org/1999/xlink" version="1.1">
<metadata>
Created by FontForge 20170731 at Mon Jan  9 13:29:31 2023
 By Aleksey,,,
2009 - 2011, The League of Moveable Type
</metadata>
<defs>
<font id="LeagueGothic-Italic" horiz-adv-x="690" >
  <font-face 
    font-family="League Gothic Italic"
    font-weight="400"
    font-style="italic"
    font-stretch="normal"
    units-per-em="2048"
    panose-1="0 0 5 0 0 0 0 0 0 0"
    ascent="1505"
    descent="-543"
    x-height="1120"
    cap-height="1505"
    bbox="-123 -512 1769.2 1950"
    underline-thickness="102"
    underline-position="-255"
    unicode-range="U+000D-FB02"
  />
<missing-glyph horiz-adv-x="315" 
 />
    <glyph glyph-name=".notdef" horiz-adv-x="315" 
 />
    <glyph glyph-name=".null" horiz-adv-x="0" 
 />
    <glyph glyph-name="uni000D" unicode="&#xd;" horiz-adv-x="315" 
 />
    <glyph glyph-name="NULL" horiz-adv-x="0" 
 />
    <glyph glyph-name="NULL" horiz-adv-x="0" 
 />
    <glyph glyph-name="space" unicode=" " horiz-adv-x="315" 
 />
    <glyph glyph-name="exclam" unicode="!" horiz-adv-x="387" 
d="M393 1505l-178 -1099h129l289 1099h-240zM133 227l-47 -227h215l47 227h-215z" />
    <glyph glyph-name="quotedbl" unicode="&#x22;" horiz-adv-x="555" 
d="M420 1503h215l-148 -551h-153zM690 1503h215l-147 -551h-154z" />
    <glyph glyph-name="numbersign" unicode="#" horiz-adv-x="1232" 
d="M209 633l-68 -195h199l-152 -438h197l152 438h260l-152 -438h197l151 438h191l67 195h-190l92 258h193l67 194h-192l147 420h-197l-147 -420h-260l147 420h-196l-148 -420h-196l-68 -194h197l-92 -258h-199zM604 633l92 258h260l-92 -258h-260z" />
    <glyph glyph-name="dollar" unicode="$" horiz-adv-x="692" 
d="M754 1628h-123l-27 -131q-67 -16 -115 -49q-92 -66 -139 -182q-51 -131 -41 -236q10 -104 70 -227q31 -68 92 -176q3 -7 9 -20.5t9 -20.5t9.5 -21.5t9.5 -21.5q16 -45 24 -86q6 -46 -7.5 -106.5t-43.5 -108.5q-38 -58 -84 -58q-61 0 -84 58q-20 46 -6 129l-194 -13
q-24 -131 12 -227q44 -104 162 -125l-47 -221h122l48 217q127 13 219 127q73 88 104 242q15 80 8 127q-13 102 -69 225q-18 33 -25 51q-20 40 -24 47q-39 64 -80 166q-40 95 -21 172q11 56 43 111q30 51 76 51q44 1 57.5 -32.5t8.5 -92.5l196 25q11 120 -22 186
q-45 85 -152 96z" />
    <glyph glyph-name="percent" unicode="%" horiz-adv-x="1001" 
d="M565 911l92 437q9 54 -2 86q-13 40 -38.5 64t-79.5 24q-63 0 -97 -27q-82 -63 -100 -147l-92 -437q-12 -51 0 -88q12 -41 39.5 -64.5t83.5 -23.5q61 0 96 27q76 57 98 149zM158 0h137l866 1505h-131zM535 1348l-93 -437q-14 -55 -47 -55q-38 0 -24 55l92 437q0 13 8 26
q1 1 4 5t3.5 5.5t3.5 5t4.5 4.5t5 3.5t6 3t6.5 1.5t8 1q15 0 18 -8q10 -24 5 -47zM981 158l92 436q9 53 -2 88q-13 40 -39 64t-80 24q-62 0 -96 -27q-82 -62 -100 -149l-92 -436q-12 -51 0 -88q13 -39 39.5 -62.5t82.5 -23.5q64 0 97 26q77 57 98 148zM950 594l-92 -436
q-1 -13 -24 -47q-11 -11 -23 -11q-16 0 -20 11q-14 21 -5 47l93 436q0 14 8 27q16 28 41 28q15 0 18 -8q10 -22 4 -47z" />
    <glyph glyph-name="ampersand" unicode="&#x26;" horiz-adv-x="854" 
d="M950 653l-168 33q-2 -4 -14 -36t-21.5 -55.5t-25.5 -58.5t-31 -61q-42 89 -88 285q119 122 197 227q134 180 106 371q-10 71 -51 112q-55 52 -149 52q-106 0 -170 -52q-125 -96 -170 -276q-47 -224 14 -442q-108 -123 -173 -222t-91 -215q-26 -129 37 -231
q65 -100 196 -100q132 0 281 139q27 -37 71 -75.5t82 -55.5q13 -8 27 -8l49 235q-13 4 -29 23q-18 13 -47 53q52 73 115 207q43 104 53 151zM715 1200q-19 -97 -154 -252q-14 82 -14 125q-3 123 33 197q31 76 88 76q32 0 45 -23q22 -43 2 -123zM543 262q-44 -44 -75.5 -65
t-68.5 -21q-42 0 -61 41t-8 102q26 149 100 238q54 -161 113 -295z" />
    <glyph glyph-name="quotesingle" unicode="'" horiz-adv-x="309" 
d="M291 954h153l148 551h-215z" />
    <glyph glyph-name="parenleft" unicode="(" horiz-adv-x="561" 
d="M840 1505l-146 84q-115 -140 -207 -280q-101 -162 -163 -299q-88 -199 -123 -365q-40 -191 -31 -362q14 -322 125 -580l178 84q-96 205 -108 510q-7 154 34 346.5t115 351.5q142 312 326 510z" />
    <glyph glyph-name="parenright" unicode=")" horiz-adv-x="561" 
d="M539 1589l-179 -84q40 -92 78 -239q62 -313 -4 -621q-38 -185 -115 -348q-145 -312 -323 -510l143 -84q118 141 205 279q95 144 164 301q88 195 123 362q42 185 33 365q-20 328 -125 579z" />
    <glyph glyph-name="asterisk" unicode="*" horiz-adv-x="677" 
d="M582 1505l-21 -176l-147 70l-76 -148l166 -34l-144 -138l113 -80l109 152l45 -152l149 80l-86 138l178 34l-10 148l-180 -70l57 176h-153z" />
    <glyph glyph-name="plus" unicode="+" horiz-adv-x="1060" 
d="M248 821l-37 -172h371l-74 -346h172l74 346h370l37 172h-370l73 346h-172l-74 -346h-370z" />
    <glyph glyph-name="comma" unicode="," horiz-adv-x="309" 
d="M260 0l47 227h-215l-47 -227h72l-127 -266h100z" />
    <glyph glyph-name="hyphen" unicode="-" horiz-adv-x="444" 
d="M211 649l-41 -194h297l41 194h-297z" />
    <glyph glyph-name="period" unicode="." horiz-adv-x="321" 
d="M100 227l-47 -227h215l47 227h-215z" />
    <glyph glyph-name="slash" unicode="/" horiz-adv-x="720" 
d="M870 1505l-893 -1652h166l889 1652h-162z" />
    <glyph glyph-name="zero" unicode="0" horiz-adv-x="724" 
d="M723 309l188 887q16 99 -4 162q-13 68 -63 112q-59 52 -160 52q-103 0 -182 -52q-52 -35 -111 -112q-47 -70 -69 -162l-189 -887q-18 -96 2 -164q13 -67 62 -110q54 -51 161 -51q110 0 181 51q58 38 112 110q48 73 72 164zM690 1196l-188 -887q-6 -25 -21 -55
q-25 -55 -78 -55q-25 0 -38 16q-26 37 -11 94l189 887q6 32 18 55q29 56 78 56q27 0 41 -17q21 -35 10 -94z" />
    <glyph glyph-name="one" unicode="1" horiz-adv-x="475" 
d="M274 1180h148l-250 -1180h221l320 1505h-133q-24 -36 -66 -78q-103 -86 -209 -106z" />
    <glyph glyph-name="two" unicode="2" horiz-adv-x="731" 
d="M279 1028h221l22 105q13 69 41 129q30 55 72 55q23 0 33.5 -16t15.5 -46q2 -39 -14 -122q-31 -124 -127 -299q-87 -156 -191 -297q-158 -210 -252 -318l-45 -219h600l45 219h-350q141 169 307 422q197 310 238 506q16 82 16 147q0 64 -22 119q-51 109 -211 109
q-164 0 -262 -119q-75 -94 -115 -270z" />
    <glyph glyph-name="three" unicode="3" horiz-adv-x="686" 
d="M373 680h18q68 -3 103 -27q53 -40 28 -155q-7 -20 -14 -62q-4 -19 -9 -41.5t-12 -50t-10 -41.5q-8 -32 -18 -61q-26 -64 -76 -64q-21 0 -32.5 12t-12.5 41q-9 59 24 203h-217q-6 -32 -12 -67q-14 -69 -14 -150q0 -41 8 -72q31 -161 215 -161q74 0 125 26q95 46 162 160
q54 92 73 172q2 10 5 20.5t4.5 15.5t1.5 7q31 149 28 242q-3 111 -67 172l4 2q65 54 110.5 145.5t79.5 251.5q6 26 9 68q3 52 -11 108q-45 148 -217 148q-178 0 -276 -160q-66 -106 -101 -291h217q35 153 58 205q21 51 61 51q47 0 47 -65q0 -52 -18 -129q-3 -13 -14 -66
q-1 -3 -3.5 -18t-4 -20.5t-4.5 -19t-5.5 -21.5t-6.5 -19t-8.5 -20t-10.5 -17q-20 -32 -58 -48t-110 -20z" />
    <glyph glyph-name="four" unicode="4" horiz-adv-x="684" 
d="M436 328l-69 -328h202l70 328h102l41 194h-102l209 983h-221l-533 -983l-41 -194h342zM324 522l229 471l20 45h13l-109 -516h-153z" />
    <glyph glyph-name="five" unicode="5" horiz-adv-x="704" 
d="M580 713l-70 -336q-8 -38 -25 -96q-12 -33 -20.5 -51.5t-26 -36t-39.5 -17.5q-39 0 -45 45q-6 39 21 158l12 59h-221q-47 -203 -21 -301q31 -153 213 -153q176 0 277 145q60 88 96 248l70 336q21 88 2 174q-34 137 -180 137q-23 3 -48 -6q-30 -9 -92 -45l68 313h344
l47 219h-534l-170 -792h186q15 41 41 69q41 41 70 41q34 0 45.5 -31.5t-0.5 -78.5z" />
    <glyph glyph-name="six" unicode="6" horiz-adv-x="700" 
d="M709 309l63 307q26 107 4 191q-34 127 -182 127q-48 0 -117 -37l55 268q14 76 41 125q20 39 62 39q47 0 47 -53q0 -62 -33 -205h221l19 94q34 125 6 219q-43 138 -219 138q-174 0 -277 -138q-13 -18 -24.5 -40t-19 -38.5t-16 -41t-11.5 -36t-9.5 -35.5t-7.5 -28
l-180 -856q-25 -110 2 -188q43 -137 217 -137q173 0 275 137q59 77 84 188zM338 244l96 456q8 22 29.5 42t52.5 20t43 -23.5t10 -44.5l-96 -450q-7 -21 -29 -44.5t-53 -23.5q-32 0 -47 27q-11 20 -6 41z" />
    <glyph glyph-name="seven" unicode="7" horiz-adv-x="589" 
d="M612 1286l-497 -1286h229l494 1284l47 221h-557l-47 -219h331z" />
    <glyph glyph-name="eight" unicode="8" horiz-adv-x="696" 
d="M711 322l37 176q41 190 -52 297q60 50 102 123t60 153l27 127q8 31 10 68q0 69 -10 108q-45 148 -215 148q-106 0 -168 -45q-62 -42 -104 -99t-58 -112q-4 -15 -9 -30t-8 -24.5t-4 -13.5l-26 -127q-18 -77 -7.5 -151.5t50.5 -124.5q-137 -110 -178 -297l-37 -176
q-10 -23 -10 -105q0 -90 45 -154q55 -79 188 -79q69 0 127 22q104 45 162 133q49 74 67 144q4 18 11 39zM651 1120q-15 -58 -24 -102q-9 -32 -13.5 -45.5t-15.5 -36.5t-26 -33t-35 -10q-36 0 -41.5 35t6.5 79q1 10 2 15q11 87 43 192q7 27 13 43.5t15.5 34.5t22.5 26.5
t31 8.5q45 0 45 -51q-3 -53 -23 -156zM514 410q-8 -49 -22 -95q-1 -3 -6 -21t-6.5 -23t-7.5 -20.5t-10 -21t-12.5 -16.5t-16.5 -15t-20 -8t-26 -4q-40 0 -48.5 38t1.5 87q10 80 43 213q1 6 5.5 24t6.5 25t6.5 22.5t8 22t10 18.5t13 17t15.5 11.5t20 9t24 2.5q55 0 55 -66
q-16 -116 -33 -200z" />
    <glyph glyph-name="nine" unicode="9" horiz-adv-x="700" 
d="M311 1196l-63 -293q-23 -118 -4 -190q34 -127 182 -127q50 0 119 37l-60 -283q-18 -87 -39 -125q-23 -39 -63 -39q-47 0 -47 53t35 205h-221l-21 -94q-33 -130 -6 -217q42 -139 219 -139q175 0 276 139q25 34 45 81t26 68t18 68l182 856q20 118 -4 190q-43 136 -217 136
q-171 0 -275 -136q-64 -86 -82 -190zM680 1262l-92 -443q-8 -22 -29 -41.5t-53 -19.5q-31 0 -45 24.5t-8 42.5l92 437q7 21 29 44t53 23q23 0 36.5 -14t15.5 -27.5t1 -25.5z" />
    <glyph glyph-name="colon" unicode=":" horiz-adv-x="362" 
d="M311 1120l-49 -227h215l49 227h-215zM121 227l-47 -227h215l47 227h-215z" />
    <glyph glyph-name="semicolon" unicode=";" horiz-adv-x="362" 
d="M311 1120l-49 -227h215l49 227h-215zM289 0l47 227h-215l-47 -227h71l-129 -266h103z" />
    <glyph glyph-name="less" unicode="&#x3c;" horiz-adv-x="1058" 
d="M244 809l-33 -160l811 -475l41 199l-623 356l774 356l43 199z" />
    <glyph glyph-name="equal" unicode="=" horiz-adv-x="1058" 
d="M293 1036l-37 -172h911l37 172h-911zM211 649l-37 -172h911l37 172h-911z" />
    <glyph glyph-name="greater" unicode="&#x3e;" horiz-adv-x="1058" 
d="M1122 649l33 160l-809 475l-43 -199l623 -356l-774 -356l-41 -199z" />
    <glyph glyph-name="question" unicode="?" horiz-adv-x="645" 
d="M297 406h190l54 256q10 47 34 108q40 86 109 172q23 23 53 66q40 50 57.5 73.5t39.5 65t30 80.5q19 98 -8 172q-44 111 -197 114q-122 3 -239 -100q-90 -81 -129 -153l162 -84q21 48 61 90q55 55 100 55q42 0 52 -37q8 -30 -4 -57q-18 -41 -78 -113q-91 -113 -131 -182
q-74 -134 -103 -270zM246 227l-47 -227h215l47 227h-215z" />
    <glyph glyph-name="at" unicode="@" horiz-adv-x="872" 
d="M899 399l168 793q22 109 -31 203q-76 127 -274 127q-199 0 -326 -127q-50 -50 -80 -105.5t-39 -97.5l-188 -889q-10 -31 -2 -89t37 -105q75 -125 272 -125q211 0 350 143l-133 86q-66 -63 -182 -63q-98 0 -139 59q-31 42 -19 94l189 889q13 50 59 96q73 62 166 62
q96 0 139 -62q30 -46 17 -96l-9 -45q-7 17 -20 33q-30 34 -78 34q-77 0 -122 -47.5t-60 -122.5l-102 -485q-19 -78 6 -125t102 -47q23 0 53 10q40 18 74 58l8 -56h164zM848 1028l-96 -455q-9 -53 -62 -53q-47 0 -35 53l97 455q12 53 59 53q49 0 37 -53z" />
    <glyph glyph-name="A" unicode="A" horiz-adv-x="765" 
d="M20 0h216l104 307h213l-23 -307h215l93 1505h-271zM610 1016l-37 -475h-151l164 475l14 39h12z" />
    <glyph glyph-name="B" unicode="B" horiz-adv-x="745" 
d="M82 0h272q185 8 299 135q94 110 133 291q15 77 16.5 148t-22 132t-69.5 89q90 67 137 137q44 65 65 174q48 217 -34 311q-77 88 -283 88h-195zM489 885l86 401q25 0 43 -2q65 -3 84 -80q9 -41 -6 -119q-30 -134 -102 -178q-38 -22 -105 -22zM348 219l98 463h43
q68 -3 84 -90q9 -50 -12 -141q-32 -159 -108 -209q-37 -23 -105 -23z" />
    <glyph glyph-name="C" unicode="C" horiz-adv-x="708" 
d="M766 516h-207l-43 -207q-7 -29 -20 -55q-28 -55 -88 -55q-26 0 -39 16q-24 35 -15 94l189 887q6 21 20 55q33 56 80 56q33 0 47 -17q27 -35 15 -94l-46 -207h207l45 207q16 99 -4 162q-13 68 -63 112q-59 52 -160 52q-103 0 -182 -52q-52 -35 -111 -112q-47 -70 -69 -162
l-189 -887q-18 -96 2 -164q13 -67 62 -110q54 -51 161 -51q110 0 181 51q58 38 112 110q48 73 72 164z" />
    <glyph glyph-name="D" unicode="D" horiz-adv-x="761" 
d="M82 0h174q156 0 251 35.5t157 120.5q57 80 98 214t94 382q26 124 41 205t25.5 160t9 135t-13.5 98q-29 85 -108 120t-235 35h-174zM348 221l227 1063q64 0 91.5 -15t31.5 -65q8 -73 -36 -284q-4 -18 -16 -75t-19 -91q-1 -6 -35 -164q-42 -205 -84 -287q-27 -52 -61.5 -67
t-98.5 -15z" />
    <glyph glyph-name="E" unicode="E" horiz-adv-x="628" 
d="M401 1505l-319 -1505h506l47 227h-285l88 414h205l51 242h-205l84 395h285l49 227h-506z" />
    <glyph glyph-name="F" unicode="F" horiz-adv-x="616" 
d="M879 1278l49 227h-527l-319 -1505h221l139 655h205l47 228h-205l84 395h306z" />
    <glyph glyph-name="G" unicode="G" horiz-adv-x="737" 
d="M641 965h221l49 231q16 99 -4 162q-13 68 -63 112q-59 52 -160 52q-103 0 -182 -52q-52 -35 -111 -112q-47 -70 -69 -162l-189 -887q-24 -96 -10 -164q10 -67 53 -110q48 -51 148 -51q102 0 190 88l12 -72h131l158 750h-309l-39 -187h88l-57 -272q-6 -25 -21 -55
q-25 -56 -78 -56q-25 0 -39 17q-25 36 -10 94l193 905q6 32 18 55q29 56 78 56q27 0 41 -17q21 -35 10 -94z" />
    <glyph glyph-name="H" unicode="H" horiz-adv-x="778" 
d="M614 655l-139 -655h221l320 1505h-221l-133 -622h-173l134 622h-222l-319 -1505h221l139 655h172z" />
    <glyph glyph-name="I" unicode="I" horiz-adv-x="385" 
d="M401 1505l-319 -1505h221l320 1505h-222z" />
    <glyph glyph-name="J" unicode="J" horiz-adv-x="423" 
d="M55 203l-47 -217q181 -11 285 80q91 79 117 213l262 1226h-221l-254 -1192q-11 -53 -35 -73q-43 -46 -107 -37z" />
    <glyph glyph-name="K" unicode="K" horiz-adv-x="768" 
d="M623 1505h-222l-319 -1505h221l113 532l78 123l18 31h6v-31l14 -655h216l-17 1010l309 495h-215l-290 -501l-17 -25h-8z" />
    <glyph glyph-name="L" unicode="L" horiz-adv-x="604" 
d="M401 1505l-319 -1505h514l43 205h-293l277 1300h-222z" />
    <glyph glyph-name="M" unicode="M" horiz-adv-x="991" 
d="M449 0h94l342 946l20 64h13l-213 -1010h204l320 1505h-271l-278 -688l-27 -80h-4l6 80l17 688h-271l-319 -1505h205l213 1010h12l-4 -64z" />
    <glyph glyph-name="N" unicode="N" horiz-adv-x="808" 
d="M481 784l49 -784h197l320 1505h-203l-182 -854h-13l-4 70l-47 784h-197l-319 -1505h203l180 854h12z" />
    <glyph glyph-name="O" unicode="O" horiz-adv-x="724" 
d="M723 309l188 887q16 99 -4 162q-13 68 -63 112q-59 52 -160 52q-103 0 -182 -52q-52 -35 -111 -112q-47 -70 -69 -162l-189 -887q-18 -96 2 -164q13 -67 62 -110q54 -51 161 -51q110 0 181 51q58 38 112 110q48 73 72 164zM690 1196l-188 -887q-6 -25 -21 -55
q-25 -55 -78 -55q-25 0 -38 16q-26 37 -11 94l189 887q6 32 18 55q29 56 78 56q27 0 41 -17q21 -35 10 -94z" />
    <glyph glyph-name="P" unicode="P" horiz-adv-x="720" 
d="M401 1505l-319 -1505h221l127 602q167 0 287 98q144 118 198 355q53 234 -47 356q-77 94 -245 94h-222zM477 827l96 453q101 0 125 -53q20 -49 -8 -180q-29 -135 -67 -173q-42 -47 -146 -47z" />
    <glyph glyph-name="Q" unicode="Q" horiz-adv-x="729" 
d="M723 309l188 887q16 99 -4 162q-13 68 -63 112q-59 52 -160 52q-103 0 -182 -52q-52 -35 -111 -112q-47 -70 -69 -162l-189 -887q-18 -96 2 -164q13 -67 62 -110q54 -51 161 -51q56 0 115 18q46 -117 203 -117l39 189q-52 10 -76 53q36 59 39 66q32 58 45 116zM690 1196
l-188 -887q-6 -25 -21 -55q-25 -55 -78 -55q-25 0 -38 16q-26 37 -11 94l189 887q6 32 18 55q29 56 78 56q27 0 41 -17q21 -35 10 -94z" />
    <glyph glyph-name="R" unicode="R" horiz-adv-x="739" 
d="M477 0h221l13 729q69 41 119.5 132.5t76.5 209.5q45 219 -22 326.5t-262 107.5h-222l-319 -1505h221l133 635h60zM481 840l94 446q72 0 99 -31q48 -55 18 -192q-29 -135 -100 -191q-40 -32 -111 -32z" />
    <glyph glyph-name="S" unicode="S" horiz-adv-x="702" 
d="M682 1102l221 20q34 161 2 267q-46 136 -227 133q-146 -3 -246 -115q-89 -96 -117 -238q-15 -76 -8 -120q9 -121 60 -234q3 -8 49 -108q8 -17 24 -50t23 -49q3 -7 9 -22.5t9 -22.5t9.5 -22.5t9.5 -22.5q37 -94 22 -166q-40 -166 -125 -166q-33 0 -48.5 21t-20.5 61
q-8 59 18 174l-221 -20q-13 -67 -19.5 -113t-5 -98.5t16.5 -91.5q44 -135 237 -135q169 0 269 114q78 89 118 264q24 110 -14 236q-42 128 -94 229q-39 79 -80 181q-35 88 -21 161q30 147 107 150q47 0 57 -70q6 -47 -14 -147z" />
    <glyph glyph-name="T" unicode="T" horiz-adv-x="647" 
d="M274 1278h209l-270 -1278h221l271 1278h208l50 227h-639z" />
    <glyph glyph-name="U" unicode="U" horiz-adv-x="749" 
d="M989 1505h-221l-254 -1196q-7 -29 -20 -55q-25 -55 -78 -55q-26 0 -39 16q-25 36 -10 94l254 1196h-222l-254 -1196q-18 -96 2 -164q13 -67 62 -110q54 -51 162 -51q109 0 180 51q60 39 113 110q46 70 71 164z" />
    <glyph glyph-name="V" unicode="V" horiz-adv-x="716" 
d="M803 1505l-287 -827l-22 -64h-13l6 64l66 827h-215l-90 -1505h221l549 1505h-215z" />
    <glyph glyph-name="W" unicode="W" horiz-adv-x="1015" 
d="M379 0l252 713l33 88h8l-8 -88l-48 -713h172l523 1505h-205l-254 -782l-16 -49h-17l6 49l72 782h-160l-260 -782l-18 -49h-17l9 49l77 782h-204l-117 -1505h172z" />
    <glyph glyph-name="X" unicode="X" horiz-adv-x="737" 
d="M233 0l222 449l8 18h8v-18l33 -449h217l-76 791l391 714h-217l-203 -381l-10 -18h-8l-2 18l-39 381h-217l88 -714l-412 -791h217z" />
    <glyph glyph-name="Y" unicode="Y" horiz-adv-x="700" 
d="M559 1024l-8 481h-217l41 -864l-135 -641h221l135 641l410 864h-218l-213 -481l-10 -14h-4z" />
    <glyph glyph-name="Z" unicode="Z" horiz-adv-x="626" 
d="M70 238l-50 -238h586l45 219h-352l580 1067l47 219h-537l-47 -219h297z" />
    <glyph glyph-name="bracketleft" unicode="[" horiz-adv-x="538" 
d="M758 1309l43 196h-400l-366 -1718h399l43 197h-203l281 1325h203z" />
    <glyph glyph-name="backslash" unicode="\" horiz-adv-x="792" 
d="M745 -180l-217 1872h-161l211 -1872h167z" />
    <glyph glyph-name="bracketright" unicode="]" horiz-adv-x="538" 
d="M377 1505l-43 -196h203l-281 -1325h-203l-43 -197h400l366 1718h-399z" />
    <glyph glyph-name="asciicircum" unicode="^" horiz-adv-x="1101" 
d="M987 1505h-233l-531 -696h199l416 543l182 -543h199z" />
    <glyph glyph-name="underscore" unicode="_" horiz-adv-x="1210" 
d="M41 -154l-37 -172h1063l37 172h-1063z" />
    <glyph glyph-name="grave" unicode="`" horiz-adv-x="1024" 
d="M823 1489h-215l123 -184h160z" />
    <glyph glyph-name="a" unicode="a" horiz-adv-x="681" 
d="M575 854l-26 -123q-3 -5 -7.5 -9.5t-11.5 -9.5t-13 -8.5t-17.5 -9t-18.5 -9t-22 -10.5t-23 -11q-120 -59 -188 -127q-110 -110 -146 -277q-33 -153 17 -225q31 -51 92 -51t117 39q41 29 71 67h15q-6 -14 -7.5 -41.5t7.5 -48.5h202q4 94 27 195l145 688q24 110 -36 182
t-162 72q-116 0 -217 -88q-99 -92 -125 -211l-8 -47h206q1 5 2.5 14t2.5 12q3 12 6 27q3 8 8 26t8 27q25 59 68 59q37 0 43 -34q3 -33 -9 -68zM510 541l-61 -287q-6 -29 -35.5 -48.5t-65.5 -19.5q-29 0 -39 43q-3 40 4 62q19 86 68 152.5t129 97.5z" />
    <glyph glyph-name="b" unicode="b" horiz-adv-x="686" 
d="M401 1505l-319 -1505h207l14 74q14 -16 43 -45q53 -45 103 -45q71 0 139 75q49 61 67 144l152 715q16 77 -6 145q-32 74 -109 74q-32 0 -59 -15q-50 -19 -123 -75l98 458h-207zM340 246l133 628q6 25 29.5 46.5t46.5 21.5t35 -19.5t6 -48.5l-133 -628q-6 -29 -26.5 -48.5
t-43.5 -19.5q-24 0 -38.5 19.5t-8.5 48.5z" />
    <glyph glyph-name="c" unicode="c" horiz-adv-x="645" 
d="M326 258l129 604q5 27 10.5 43t22 31.5t42.5 15.5q35 0 43.5 -19.5t-2.5 -70.5l-28 -135h207l18 88q39 180 -14 254q-46 68 -185 68q-122 0 -202 -72q-93 -83 -131 -260l-105 -490q-38 -174 21 -260q54 -71 174 -71q138 0 213 67q81 72 120 254l23 109h-207l-33 -156
q-11 -52 -26.5 -71t-50.5 -19q-20 0 -30.5 7.5t-12.5 23t-1 27.5t5 32z" />
    <glyph glyph-name="d" unicode="d" horiz-adv-x="686" 
d="M604 0l320 1505h-207l-99 -458q-14 16 -43 45q-53 45 -102 45q-75 0 -135 -74q-51 -56 -70 -145l-151 -715q-18 -85 8 -144q24 -75 104 -75q34 0 62 14q55 23 121 76l-15 -74h207zM582 874l-133 -628q-6 -28 -29 -48t-47 -20q-23 0 -35 19.5t-6 48.5l133 628
q6 29 26.5 48.5t43.5 19.5t38 -21.5t9 -46.5z" />
    <glyph glyph-name="e" unicode="e" horiz-adv-x="659" 
d="M684 401h-192l-27 -122q-7 -38 -21 -58q-25 -55 -75 -55q-28 0 -41 16q-22 39 -13 97l54 243h342l67 326q14 75 -2 143q-15 67 -57 101q-55 45 -146 45q-104 0 -161 -45q-122 -87 -168 -250l-121 -563q-13 -80 2 -148q14 -64 62.5 -105.5t140.5 -41.5q102 0 164 45
q64 43 102.5 101t62.5 142zM401 684l35 158q7 29 23 57q29 57 78 57q28 0 41 -16q20 -32 8 -98l-35 -158h-150z" />
    <glyph glyph-name="f" unicode="f" horiz-adv-x="475" 
d="M125 0h207l196 934h105l41 186h-105l6 29q1 3 2.5 11t2.5 11q2 5 6 27q7 34 18 62q28 69 74 69q15 0 43 -4q2 -2 10 -2q6 0 8 -2l37 178l-22 6q-19 8 -70 8q-153 0 -238 -137q-13 -22 -24 -45.5t-19.5 -51.5t-13 -44.5t-12 -47t-8.5 -36.5l-7 -31h-104l-41 -186h105z" />
    <glyph glyph-name="g" unicode="g" horiz-adv-x="700" 
d="M702 541l68 317q0 6 2 10v11q-2 3 2 22v27q46 24 125 24l39 185q-37 0 -107 -41q-37 -22 -83 -62q-51 103 -187 103q-101 0 -158 -45q-116 -81 -163 -240l-66 -305q-5 -35 -2 -92q4 -102 70 -152q-53 -24 -101 -72q-55 -52 -63 -96q-30 -114 92 -149q-78 -33 -125 -70
q-62 -49 -72 -100q-23 -117 56 -168q71 -46 229 -49q146 0 254 61q127 72 162 225q30 128 -53 197q-60 48 -179 63q-59 9 -102 23q-49 13 -41 47q6 28 39 51q4 -2 20 -2h19q49 0 96 15t92 46.5t81 87t56 128.5zM563 844l-65 -307q-4 -16 -17 -52q-27 -49 -67 -49
q-25 0 -35 17q-19 32 -4 84l65 307q2 22 15 51q29 51 67 51q25 0 35 -16q18 -34 6 -86zM276 -51l103 -21q39 -6 57 -14q47 -17 37 -66q-7 -32 -65 -57q-42 -18 -109 -18q-68 0 -96.5 21t-22.5 56q10 53 96 99z" />
    <glyph glyph-name="h" unicode="h" 
d="M289 0l186 883q4 6 12 14q2 2 6.5 6t6.5 6q31 27 55 27q23 0 33.5 -10t5.5 -39l-188 -887h206l195 918q16 77 -6 145q-29 74 -105 74q-45 0 -112 -52q-16 -12 -49 -36q-17 -17 -29 -23l102 479h-207l-319 -1505h207z" />
    <glyph glyph-name="i" unicode="i" horiz-adv-x="370" 
d="M401 1505l-45 -207h207l45 207h-207zM82 0h207l237 1120h-207z" />
    <glyph glyph-name="j" unicode="j" horiz-adv-x="364" 
d="M395 1505l-45 -207h207l45 207h-207zM520 1120h-207l-243 -1147q-4 -12 -4 -20q0 -1 -3 -11t-4 -16q-3 -8 -8 -26t-8 -27q-25 -63 -70 -63q-11 0 -39 4q-2 2 -8 2t-8 2l-41 -191q2 -2 8 -2q1 -1 5 -2t6 -2q21 -6 69 -6q153 0 236 135q10 18 19.5 39.5t15.5 37t13.5 41
t10 36t9 37.5t7.5 30z" />
    <glyph glyph-name="k" unicode="k" horiz-adv-x="641" 
d="M608 1505h-207l-319 -1505h207l82 387l39 66l10 16h10v-16l8 -453h199l-29 756l228 364h-187l-164 -293l-18 -36h-10z" />
    <glyph glyph-name="l" unicode="l" horiz-adv-x="370" 
d="M82 0h207l319 1505h-207z" />
    <glyph glyph-name="m" unicode="m" horiz-adv-x="1021" 
d="M616 0l187 883q8 10 28 26q31 27 62 27q54 0 45 -49l-188 -887h194l195 918q16 77 -6 145q-29 74 -105 74q-18 0 -57 -17q-73 -39 -117 -78q-12 -8 -23 -18q-8 -8 -16 -12q-19 125 -115 125q-28 0 -55 -15q-48 -27 -110 -73q-17 -17 -29 -23l20 94h-207l-237 -1120h207
l186 883q6 8 29 26q31 27 61 27q54 0 45 -49l-188 -887h194z" />
    <glyph glyph-name="n" unicode="n" 
d="M289 0l186 883q4 6 12 14q2 2 6.5 6t6.5 6q31 27 55 27q23 0 33.5 -10t5.5 -39l-188 -887h206l195 918q16 77 -6 145q-29 74 -105 74q-45 0 -112 -52q-16 -12 -49 -36q-17 -17 -29 -23l20 94h-207l-237 -1120h207z" />
    <glyph glyph-name="o" unicode="o" horiz-adv-x="657" 
d="M651 272l121 576q14 75 -2 143q-15 67 -57 101q-55 45 -146 45q-104 0 -161 -45q-64 -46 -102 -105.5t-62 -144.5l-121 -563q-13 -80 2 -148q12 -61 57 -100q50 -47 144 -47q101 0 163 45q64 43 102 100.5t62 142.5zM578 842l-121 -563q-3 -32 -19 -58q-25 -55 -76 -55
q-27 0 -40 16q-22 39 -7 97l121 563q3 31 19 57q26 57 75 57q28 0 41 -16q22 -35 7 -98z" />
    <glyph glyph-name="p" unicode="p" horiz-adv-x="686" 
d="M319 1120l-319 -1505h207l96 459q14 -16 43 -45q53 -45 103 -45q71 0 139 75q49 61 67 144l152 715q16 77 -6 145q-32 74 -109 74q-32 0 -59 -15q-50 -19 -123 -75l16 73h-207zM340 246l133 628q6 28 29 48t47 20q23 0 35 -19.5t6 -48.5l-133 -628q-6 -29 -26.5 -48.5
t-43.5 -19.5t-37.5 21.5t-9.5 46.5z" />
    <glyph glyph-name="q" unicode="q" horiz-adv-x="686" 
d="M522 -385l320 1505h-207l-17 -73q-14 16 -43 45q-53 45 -102 45q-75 0 -135 -74q-51 -56 -70 -145l-151 -715q-18 -85 8 -144q24 -75 104 -75q34 0 62 14q55 23 121 76l-97 -459h207zM582 874l-133 -628q-5 -25 -29 -46.5t-47 -21.5t-35 19.5t-6 48.5l133 628
q6 29 26.5 48.5t43.5 19.5q24 0 38.5 -19.5t8.5 -48.5z" />
    <glyph glyph-name="r" unicode="r" horiz-adv-x="503" 
d="M688 907l47 230q-95 0 -170 -60q-47 -40 -65 -82l26 125h-207l-237 -1120h207l164 778q15 67 67 103q43 34 113 34q34 0 55 -8z" />
    <glyph glyph-name="s" unicode="s" horiz-adv-x="630" 
d="M571 834h193q29 131 2 200q-41 106 -203 103q-131 -3 -221 -103q-68 -79 -94 -200q-21 -108 20 -199q26 -54 103 -146q32 -40 50 -66t31.5 -63t6.5 -69q-29 -135 -101 -135q-53 0 -67 63q-7 39 6 107h-193q-29 -124 5 -215q48 -127 213 -127q132 0 227 102q73 76 102 205
q19 98 -20 194q-23 54 -99 148q-45 51 -69 96q-33 61 -23 105q13 58 31 86q25 45 61 45q39 0 50 -45q2 -27 -11 -86z" />
    <glyph glyph-name="t" unicode="t" horiz-adv-x="501" 
d="M627 1397h-207l-58 -277h-104l-41 -186h105l-121 -574q-29 -136 -25 -202q1 -18 4 -35q12 -67 52 -103t126 -36q50 0 80 6q3 1 9.5 2t9.5 2q2 1 7 2t7 2l43 203q-4 -2 -12 -2q-9 0 -13 -2q-28 -4 -53 -4q-40 0 -43 67q0 34 19 117l116 557h142l41 186h-142z" />
    <glyph glyph-name="u" unicode="u" 
d="M639 1120l-188 -882q-17 -21 -25 -27q-31 -27 -53 -27q-23 0 -34.5 10t-4.5 39l188 887h-207l-194 -917q-18 -83 6 -144q24 -75 102 -75q20 0 60 16q40 23 104 74q18 16 27 20l-19 -94h207l238 1120h-207z" />
    <glyph glyph-name="v" unicode="v" horiz-adv-x="602" 
d="M199 0h204l420 1120h-200l-207 -649l-23 -72h-16l6 72l72 649h-201z" />
    <glyph glyph-name="w" unicode="w" horiz-adv-x="905" 
d="M547 0h172l403 1120h-188l-191 -585l-22 -64h-12l4 64l39 585h-123l-211 -585l-25 -64h-12l6 64l59 585h-188l-72 -1120h172l193 535l24 63h9l-4 -63z" />
    <glyph glyph-name="x" unicode="x" horiz-adv-x="618" 
d="M330 578l-314 -578h201l143 283l13 30h4v-30l24 -283h201l-72 578l293 542h-194l-129 -262l-15 -31h-4l2 31l-18 262h-195z" />
    <glyph glyph-name="y" unicode="y" horiz-adv-x="634" 
d="M-12 -213l-39 -184q50 -4 65 -4h25q110 0 217 100q83 78 137 217l455 1204h-203l-229 -688l-17 -57h-8l8 57l66 688h-203l-55 -1153q-6 -34 -21 -61q-35 -69 -90 -103q-25 -16 -59.5 -19t-36.5 1q-10 0 -12 2z" />
    <glyph glyph-name="z" unicode="z" horiz-adv-x="532" 
d="M47 168l-35 -168h504l39 188h-285l447 764l37 168h-459l-41 -188h240z" />
    <glyph glyph-name="braceleft" unicode="{" horiz-adv-x="688" 
d="M918 1350l34 172q-124 2 -208.5 -13.5t-143.5 -54.5q-61 -42 -100 -113.5t-64 -187.5l-84 -397q-8 -23 -12 -33q-9 -23 -29 -47q-49 -60 -121 -60l-34 -163q67 -2 94 -62q21 -49 8 -78l-84 -397q-25 -117 -16 -188.5t53 -112.5q41 -40 118.5 -55t205.5 -13l34 172
q-72 0 -113.5 7.5t-64.5 29.5q-46 43 -20 160l84 397q17 77 -3.5 129.5t-76.5 92.5q72 39 115 91t59 130l84 397q26 118 90 160q56 37 195 37z" />
    <glyph glyph-name="bar" unicode="|" horiz-adv-x="356" 
d="M-27 -512h191l469 2204h-193z" />
    <glyph glyph-name="braceright" unicode="}" horiz-adv-x="688" 
d="M655 756l84 397q25 117 17.5 188.5t-51.5 112.5q-41 40 -119.5 55t-206.5 13l-35 -172q72 0 113.5 -7.5t64.5 -29.5q47 -44 21 -160l-84 -397q-17 -79 3.5 -131t76.5 -90q-71 -40 -114 -93t-60 -129l-84 -397q-14 -62 -35 -99.5t-56 -60.5q-33 -22 -76.5 -29.5
t-115.5 -7.5l-35 -172q124 -2 208.5 13.5t143.5 54.5q60 41 98.5 112.5t63.5 188.5l84 397q24 55 41 78q48 59 119 62l35 163q-74 0 -92 60q-22 49 -9 80z" />
    <glyph glyph-name="asciitilde" unicode="~" horiz-adv-x="1280" 
d="M399 1352l123 -58q22 42 66 90q83 91 174 91q43 0 80 -19t82 -55q54 -38 75 -52t71 -31.5t104 -17.5q82 0 155 48q70 46 126 108.5t112 153.5l-123 57q-42 -64 -68 -92q-79 -90 -162 -90q-73 0 -159 71q-15 10 -51 37q-17 11 -56 33q-75 33 -147 33q-87 0 -164 -47
q-151 -102 -238 -260z" />
    <glyph glyph-name="uni0093" horiz-adv-x="624" 
d="M315 1239l-47 -227h215l47 227h-71l129 266h-103zM618 1239l-47 -227h215l48 227h-72l129 266h-103z" />
    <glyph glyph-name="uni0094" horiz-adv-x="624" 
d="M539 1278l49 227h-215l-49 -227h71l-127 -266h103zM842 1278l49 227h-215l-49 -227h71l-127 -266h103z" />
    <glyph glyph-name="exclamdown" unicode="&#xa1;" horiz-adv-x="387" 
d="M324 1120l-50 -227h215l50 227h-215zM281 715l-287 -1100h237l179 1100h-129z" />
    <glyph glyph-name="cent" unicode="&#xa2;" horiz-adv-x="636" 
d="M729 1567h-123l-51 -242q-215 -30 -279 -328l-104 -489q-64 -300 139 -330l-63 -301h123l63 303q100 14 161.5 87.5t96.5 230.5l23 108h-189l-32 -155q-10 -49 -33 -70t-60 -21q-38 0 -49 27t-4 64l129 604q7 36 29.5 63t60.5 27q37 0 51.5 -20.5t4.5 -69.5l-29 -135h188
l19 88q30 156 0.5 226.5t-123.5 88.5z" />
    <glyph glyph-name="sterling" unicode="&#xa3;" horiz-adv-x="817" 
d="M748 1120h213q40 172 -7 279q-59 126 -241 123q-151 -3 -256 -123q-89 -101 -117 -250q-3 -12 -4.5 -27t-3 -28t-1.5 -32v-31.5t1 -35.5l1.5 -34.5t2 -38.5t2.5 -37t3 -39.5t3 -38.5l2 -21h-147l-29 -137h188q9 -97 -6 -174q-28 -116 -80 -199q-52 -9 -100 -45
q-96 -73 -156 -168l129 -79q15 27 39 51q51 51 97 51q7 0 15 -1.5t14 -3t15 -5.5t14 -6t15.5 -8l14 -8t15.5 -9.5t15 -9.5q70 -41 103 -48q15 -3 30 -3q102 0 191 98t141 283l-182 22q-28 -108 -59 -145q-36 -42 -64 -45q-37 3 -59 22q-27 20 -62 37q39 57 68 119
q30 69 41.5 124t7.5 150h174l29 137h-211v25q-1 6 -3 34t-3 35.5t-3 33t-2 35.5t-1 32.5t-0.5 35t1 32.5t2.5 34.5t4.5 32t6.5 33.5q15 73 43 113q38 55 82 55q68 0 80 -60q11 -54 -6 -137z" />
    <glyph glyph-name="yen" unicode="&#xa5;" horiz-adv-x="720" 
d="M174 477l-29 -137h177l-72 -340h221l72 340h176l29 137h-177l29 137h176l31 138h-148l357 753h-217l-213 -481l-11 -14h-4l-2 14l-8 481h-217l37 -753h-148l-30 -138h176l-29 -137h-176z" />
    <glyph glyph-name="dieresis" unicode="&#xa8;" horiz-adv-x="1024" 
d="M592 1505l-43 -200h190l43 200h-190zM881 1505l-43 -200h190l43 200h-190z" />
    <glyph glyph-name="copyright" unicode="&#xa9;" horiz-adv-x="1644" 
d="M213 752q-33 -163 -4 -299.5t113 -243.5q87 -107 213 -166t282 -59q157 0 309.5 59t282.5 166q130 105 218.5 244.5t123.5 298.5q34 162 4.5 300t-115.5 244q-83 106 -211.5 166t-285.5 60q-310 0 -590 -226q-129 -105 -217 -245.5t-123 -298.5zM332 752q58 267 289 460
q232 191 497 191q134 0 242 -49.5t178 -141.5q152 -192 94 -460q-57 -263 -289 -457q-111 -92 -239.5 -142.5t-261.5 -50.5q-263 0 -416 193q-152 191 -94 457zM1137 612h-138l-26 -125q0 -15 -10 -32q-19 -31 -54 -31q-17 0 -24 10q-17 17 -11 53l113 531q3 16 12 31
q20 32 52 32q18 0 28 -10q15 -20 6 -53l-26 -125h137l27 125q8 50 -4 98q-28 98 -142 98q-75 0 -121 -30q-92 -64 -114 -166l-113 -531q-12 -54 2 -98q28 -98 150 -98q77 0 137.5 47.5t91.5 148.5z" />
    <glyph glyph-name="registered" unicode="&#xae;" horiz-adv-x="1644" 
d="M213 752q-33 -163 -4 -299.5t113 -243.5q87 -107 213 -166t282 -59q157 0 309.5 59t282.5 166q130 105 218.5 244.5t123.5 298.5q34 162 4.5 300t-115.5 244q-83 106 -211.5 166t-285.5 60q-310 0 -590 -226q-129 -105 -217 -245.5t-123 -298.5zM332 752q58 267 289 460
q232 191 497 191q134 0 242 -49.5t178 -141.5q152 -192 94 -460q-57 -263 -289 -457q-111 -92 -239.5 -142.5t-261.5 -50.5q-263 0 -416 193q-152 191 -94 457zM1073 1192h-196l-187 -879h146l77 365h56l16 -365h152l-23 400q66 47 92.5 95.5t42.5 125.5q55 258 -176 258z
M995 1063h45q64 0 74 -43q8 -25 -4 -88q-11 -55 -33 -86q-27 -41 -92 -41h-45z" />
    <glyph glyph-name="macron" unicode="&#xaf;" horiz-adv-x="1024" 
d="M627 1477l-35 -162h397l35 162h-397z" />
    <glyph glyph-name="acute" unicode="&#xb4;" horiz-adv-x="1024" 
d="M1047 1489h-216l-145 -184h160z" />
    <glyph glyph-name="periodcentered" unicode="&#xb7;" horiz-adv-x="215" 
d="M184 877l-47 -228h215l47 228h-215z" />
    <glyph glyph-name="cedilla" unicode="&#xb8;" horiz-adv-x="1024" 
d="M543 -252l30 141h-172l-30 -141h63l-67 -133h104z" />
    <glyph glyph-name="questiondown" unicode="&#xbf;" horiz-adv-x="645" 
d="M635 893l49 227h-215l-49 -227h215zM586 715h-191l-55 -256q-10 -47 -35 -107q-45 -98 -106 -172q-3 -4 -9 -11.5t-11 -13.5t-9 -10q-7 -7 -27 -32q-34 -44 -77 -105q-56 -81 -56 -190q0 -45 19 -94q42 -114 194 -117q124 -3 240 102q54 47 127 152l-160 84
q-2 -3 -10 -17.5t-14 -23.5q-17 -27 -37 -47q-54 -58 -101 -58q-22 0 -32 13q-21 18 -21 57q0 13 4 25q17 39 78 112q91 113 131 182q72 131 102 271z" />
    <glyph glyph-name="Agrave" unicode="&#xc0;" horiz-adv-x="765" 
d="M743 1823h-215l123 -185h160zM20 0h216l104 307h213l-23 -307h215l93 1505h-271zM610 1016l-37 -475h-151l164 475l14 39h12z" />
    <glyph glyph-name="Aacute" unicode="&#xc1;" horiz-adv-x="765" 
d="M1001 1823h-215l-145 -185h160zM20 0h216l104 307h213l-23 -307h215l93 1505h-271zM610 1016l-37 -475h-151l164 475l14 39h12z" />
    <glyph glyph-name="Acircumflex" unicode="&#xc2;" horiz-adv-x="765" 
d="M881 1823h-219l-181 -185h189l75 72l50 -72h188zM20 0h216l104 307h213l-23 -307h215l93 1505h-271zM610 1016l-37 -475h-151l164 475l14 39h12z" />
    <glyph glyph-name="Atilde" unicode="&#xc3;" horiz-adv-x="765" 
d="M563 1784l-33 -152q3 1 9.5 4t9.5 4t9 4.5t9 4.5q46 16 78 16q44 -3 88 -20q40 -19 84 -19q22 0 43 6q42 8 74 33l33 152q-3 -1 -9.5 -4.5t-9.5 -4.5t-9 -4t-9 -4q-50 -16 -78 -16q-47 3 -86 22q-49 17 -86 17q-25 0 -43 -6q-39 -11 -74 -33zM20 0h216l104 307h213
l-23 -307h215l93 1505h-271zM610 1016l-37 -475h-151l164 475l14 39h12z" />
    <glyph glyph-name="Adieresis" unicode="&#xc4;" horiz-adv-x="765" 
d="M532 1839l-40 -201h190l41 201h-191zM821 1839l-41 -201h191l41 201h-191zM20 0h216l104 307h213l-23 -307h215l93 1505h-271zM610 1016l-37 -475h-151l164 475l14 39h12z" />
    <glyph glyph-name="Aring" unicode="&#xc5;" horiz-adv-x="765" 
d="M604 1761q-12 -62 23.5 -102.5t99.5 -40.5t117 40.5t65 102.5q13 62 -22 103t-99 41t-117.5 -41t-66.5 -103zM682 1761q6 29 34 50.5t58 21.5t48 -21.5t12 -50.5t-33.5 -50t-57.5 -21t-48.5 21t-12.5 50zM20 0h216l104 307h213l-23 -307h215l93 1505h-271zM610 1016
l-37 -475h-151l164 475l14 39h12z" />
    <glyph glyph-name="AE" unicode="&#xc6;" horiz-adv-x="1099" 
d="M616 307l-63 -307h506l47 227h-285l88 414h205l51 242h-204l83 395h285l49 227h-622l-740 -1505h220l153 307h227zM508 541l258 514h10l-108 -514h-160z" />
    <glyph glyph-name="Ccedilla" unicode="&#xc7;" horiz-adv-x="708" 
d="M766 516h-207l-43 -207q-7 -29 -20 -55q-28 -55 -88 -55q-26 0 -39 16q-24 35 -15 94l189 887q6 21 20 55q33 56 80 56q33 0 47 -17q27 -35 15 -94l-46 -207h207l45 207q16 99 -4 162q-13 68 -63 112q-59 52 -160 52q-103 0 -182 -52q-52 -35 -111 -112q-47 -70 -69 -162
l-189 -887q-18 -96 2 -164q13 -67 62 -110q54 -51 161 -51q110 0 181 51q58 38 112 110q48 73 72 164zM385 -252l31 141h-172l-31 -141h63l-67 -133h104z" />
    <glyph glyph-name="Egrave" unicode="&#xc8;" horiz-adv-x="628" 
d="M713 1823h-215l123 -185h159zM401 1505l-319 -1505h506l47 227h-285l88 414h205l51 242h-205l84 395h285l49 227h-506z" />
    <glyph glyph-name="Eacute" unicode="&#xc9;" horiz-adv-x="628" 
d="M944 1823h-215l-145 -185h159zM401 1505l-319 -1505h506l47 227h-285l88 414h205l51 242h-205l84 395h285l49 227h-506z" />
    <glyph glyph-name="Ecircumflex" unicode="&#xca;" horiz-adv-x="628" 
d="M831 1823h-219l-180 -185h189l75 72l49 -72h189zM401 1505l-319 -1505h506l47 227h-285l88 414h205l51 242h-205l84 395h285l49 227h-506z" />
    <glyph glyph-name="Edieresis" unicode="&#xcb;" horiz-adv-x="628" 
d="M483 1839l-41 -201h191l41 201h-191zM772 1839l-41 -201h191l41 201h-191zM401 1505l-319 -1505h506l47 227h-285l88 414h205l51 242h-205l84 395h285l49 227h-506z" />
    <glyph glyph-name="Igrave" unicode="&#xcc;" horiz-adv-x="401" 
d="M596 1823h-215l123 -185h160zM418 1505l-320 -1505h221l320 1505h-221z" />
    <glyph glyph-name="Iacute" unicode="&#xcd;" horiz-adv-x="401" 
d="M795 1823h-215l-146 -185h160zM401 1505l-319 -1505h221l320 1505h-222z" />
    <glyph glyph-name="Icircumflex" unicode="&#xce;" horiz-adv-x="370" 
d="M682 1823h-219l-180 -185h188l76 72l49 -72h188zM393 1505l-319 -1505h221l319 1505h-221z" />
    <glyph glyph-name="Idieresis" unicode="&#xcf;" horiz-adv-x="372" 
d="M336 1839l-41 -201h190l41 201h-190zM625 1839l-41 -201h190l41 201h-190zM395 1505l-319 -1505h221l319 1505h-221z" />
    <glyph glyph-name="Eth" unicode="&#xd0;" horiz-adv-x="761" 
d="M207 883l-47 -228h61l-139 -655h174q156 0 251 35.5t157 120.5q57 80 98 214t94 382q26 124 41 205t25.5 160t9 135t-13.5 98q-29 85 -108 120t-235 35h-174l-133 -622h-61zM489 883l86 401q64 0 91.5 -15t31.5 -65q8 -73 -36 -284q-4 -18 -16 -75t-19 -91
q-1 -6 -35 -164q-42 -205 -84 -287q-27 -52 -61.5 -67t-98.5 -15l94 434h84l47 228h-84z" />
    <glyph glyph-name="Ntilde" unicode="&#xd1;" horiz-adv-x="808" 
d="M586 1784l-33 -152q3 1 9 4t9 4t9.5 4.5t9.5 4.5q46 16 78 16q44 -3 88 -20q40 -19 84 -19q22 0 43 6q41 8 73 33l33 152q-3 -1 -9 -4.5t-9 -4.5t-9.5 -4t-9.5 -4q-50 -16 -78 -16q-47 3 -86 22q-49 17 -86 17q-25 0 -43 -6q-37 -11 -73 -33zM481 784l49 -784h197
l320 1505h-203l-182 -854h-13l-4 70l-47 784h-197l-319 -1505h203l180 854h12z" />
    <glyph glyph-name="Ograve" unicode="&#xd2;" horiz-adv-x="724" 
d="M723 1823h-215l123 -185h160zM723 309l188 887q16 99 -4 162q-13 68 -63 112q-59 52 -160 52q-103 0 -182 -52q-52 -35 -111 -112q-47 -70 -69 -162l-189 -887q-18 -96 2 -164q13 -67 62 -110q54 -51 161 -51q110 0 181 51q58 38 112 110q48 73 72 164zM690 1196
l-188 -887q-6 -25 -21 -55q-25 -55 -78 -55q-25 0 -38 16q-26 37 -11 94l189 887q6 32 18 55q29 56 78 56q27 0 41 -17q21 -35 10 -94z" />
    <glyph glyph-name="Oacute" unicode="&#xd3;" horiz-adv-x="724" 
d="M993 1823h-215l-145 -185h160zM723 309l188 887q16 99 -4 162q-13 68 -63 112q-59 52 -160 52q-103 0 -182 -52q-52 -35 -111 -112q-47 -70 -69 -162l-189 -887q-18 -96 2 -164q13 -67 62 -110q54 -51 161 -51q110 0 181 51q58 38 112 110q48 73 72 164zM690 1196
l-188 -887q-6 -25 -21 -55q-25 -55 -78 -55q-25 0 -38 16q-26 37 -11 94l189 887q6 32 18 55q29 56 78 56q27 0 41 -17q21 -35 10 -94z" />
    <glyph glyph-name="Ocircumflex" unicode="&#xd4;" horiz-adv-x="724" 
d="M860 1823h-219l-180 -185h188l76 72l49 -72h189zM723 309l188 887q16 99 -4 162q-13 68 -63 112q-59 52 -160 52q-103 0 -182 -52q-52 -35 -111 -112q-47 -70 -69 -162l-189 -887q-18 -96 2 -164q13 -67 62 -110q54 -51 161 -51q110 0 181 51q58 38 112 110q48 73 72 164
zM690 1196l-188 -887q-6 -25 -21 -55q-25 -55 -78 -55q-25 0 -38 16q-26 37 -11 94l189 887q6 32 18 55q29 56 78 56q27 0 41 -17q21 -35 10 -94z" />
    <glyph glyph-name="Otilde" unicode="&#xd5;" horiz-adv-x="724" 
d="M543 1784l-33 -152q3 1 9 4t9 4t9.5 4.5t9.5 4.5q46 16 78 16q44 -3 88 -20q40 -19 84 -19q22 0 43 6q41 8 73 33l33 152q-3 -1 -9 -4.5t-9 -4.5t-9.5 -4t-9.5 -4q-50 -16 -78 -16q-47 3 -86 22q-49 17 -86 17q-25 0 -43 -6q-37 -11 -73 -33zM723 309l188 887
q16 99 -4 162q-13 68 -63 112q-59 52 -160 52q-103 0 -182 -52q-52 -35 -111 -112q-47 -70 -69 -162l-189 -887q-18 -96 2 -164q13 -67 62 -110q54 -51 161 -51q110 0 181 51q58 38 112 110q48 73 72 164zM690 1196l-188 -887q-6 -25 -21 -55q-25 -55 -78 -55q-25 0 -38 16
q-26 37 -11 94l189 887q6 32 18 55q29 56 78 56q27 0 41 -17q21 -35 10 -94z" />
    <glyph glyph-name="Odieresis" unicode="&#xd6;" horiz-adv-x="724" 
d="M512 1839l-41 -201h191l40 201h-190zM801 1839l-41 -201h190l41 201h-190zM723 309l188 887q16 99 -4 162q-13 68 -63 112q-59 52 -160 52q-103 0 -182 -52q-52 -35 -111 -112q-47 -70 -69 -162l-189 -887q-18 -96 2 -164q13 -67 62 -110q54 -51 161 -51q110 0 181 51
q58 38 112 110q48 73 72 164zM690 1196l-188 -887q-6 -25 -21 -55q-25 -55 -78 -55q-25 0 -38 16q-26 37 -11 94l189 887q6 32 18 55q29 56 78 56q27 0 41 -17q21 -35 10 -94z" />
    <glyph glyph-name="Oslash" unicode="&#xd8;" horiz-adv-x="724" 
d="M53 -20h129l25 47q55 -43 151 -43q110 0 181 51q58 38 112 110q48 73 72 164l188 887q4 20 4 29q0 13 3 28q0 77 -15 123l78 150h-123l-24 -47q-55 43 -150 43q-103 0 -182 -52q-52 -35 -111 -112q-47 -70 -69 -162l-189 -887q-4 -20 -4 -26q-1 -5 -2 -14.5t-2 -14.5
q-5 -74 10 -117zM442 727l101 469q6 32 18 55q29 56 78 56q42 0 53 -41q3 -42 0 -60zM604 797l-102 -488q-6 -25 -21 -55q-25 -55 -78 -55q-25 0 -38 16q-26 37 -11 94z" />
    <glyph glyph-name="Ugrave" unicode="&#xd9;" horiz-adv-x="749" 
d="M748 1823h-216l123 -185h160zM989 1505h-221l-254 -1196q-7 -29 -20 -55q-25 -55 -78 -55q-26 0 -39 16q-25 36 -10 94l254 1196h-222l-254 -1196q-18 -96 2 -164q13 -67 62 -110q54 -51 162 -51q109 0 180 51q60 39 113 110q46 70 71 164z" />
    <glyph glyph-name="Uacute" unicode="&#xda;" horiz-adv-x="749" 
d="M1016 1823h-215l-146 -185h160zM989 1505h-221l-254 -1196q-7 -29 -20 -55q-25 -55 -78 -55q-26 0 -39 16q-25 36 -10 94l254 1196h-222l-254 -1196q-18 -96 2 -164q13 -67 62 -110q54 -51 162 -51q109 0 180 51q60 39 113 110q46 70 71 164z" />
    <glyph glyph-name="Ucircumflex" unicode="&#xdb;" horiz-adv-x="749" 
d="M872 1823h-219l-180 -185h189l75 72l49 -72h189zM989 1505h-221l-254 -1196q-7 -29 -20 -55q-25 -55 -78 -55q-26 0 -39 16q-25 36 -10 94l254 1196h-222l-254 -1196q-18 -96 2 -164q13 -67 62 -110q54 -51 162 -51q109 0 180 51q60 39 113 110q46 70 71 164z" />
    <glyph glyph-name="Udieresis" unicode="&#xdc;" horiz-adv-x="749" 
d="M524 1839l-41 -201h191l41 201h-191zM813 1839l-41 -201h191l41 201h-191zM989 1505h-221l-254 -1196q-7 -29 -20 -55q-25 -55 -78 -55q-26 0 -39 16q-25 36 -10 94l254 1196h-222l-254 -1196q-18 -96 2 -164q13 -67 62 -110q54 -51 162 -51q109 0 180 51q60 39 113 110
q46 70 71 164z" />
    <glyph glyph-name="Yacute" unicode="&#xdd;" horiz-adv-x="704" 
d="M963 1823h-215l-146 -185h160zM561 1024l-8 481h-217l41 -864l-135 -641h221l135 641l410 864h-217l-213 -481l-11 -14h-4z" />
    <glyph glyph-name="Thorn" unicode="&#xde;" horiz-adv-x="724" 
d="M401 1505l-319 -1505h221l76 360q166 0 287 99q145 118 198 354q53 234 -47 356q-78 95 -246 95h-2l52 241h-220zM426 586l96 452q101 0 125 -53q20 -49 -8 -180q-28 -132 -68 -172q-42 -47 -145 -47z" />
    <glyph glyph-name="germandbls" unicode="&#xdf;" horiz-adv-x="733" 
d="M584 1120l-31 -141q72 0 82 -72q7 -48 -2 -121q-5 -46 -39 -211q-50 -235 -98 -315q-38 -67 -111 -67l-39 -193q88 0 151.5 21t116.5 79q116 128 187 475q46 209 30 338q-14 108 -77 150q102 66 125 174q26 121 -23 201q-54 84 -188 84t-230 -86q-83 -72 -110 -201
l-262 -1235h206l263 1235q8 44 33 73t61 29q43 0 59.5 -28.5t5.5 -71.5q-12 -53 -43 -85t-67 -32z" />
    <glyph glyph-name="agrave" unicode="&#xe0;" horiz-adv-x="681" 
d="M633 1489h-215l123 -184h159zM575 854l-26 -123q-3 -5 -7.5 -9.5t-11.5 -9.5t-13 -8.5t-17.5 -9t-18.5 -9t-22 -10.5t-23 -11q-120 -59 -188 -127q-110 -110 -146 -277q-33 -153 17 -225q31 -51 92 -51t117 39q41 29 71 67h15q-6 -14 -7.5 -41.5t7.5 -48.5h202
q4 94 27 195l145 688q24 110 -36 182t-162 72q-116 0 -217 -88q-99 -92 -125 -211l-8 -47h206q1 5 2.5 14t2.5 12q3 12 6 27q3 8 8 26t8 27q25 59 68 59q37 0 43 -34q3 -33 -9 -68zM510 541l-61 -287q-6 -29 -35.5 -48.5t-65.5 -19.5q-29 0 -39 43q-3 40 4 62
q19 86 68 152.5t129 97.5z" />
    <glyph glyph-name="aacute" unicode="&#xe1;" horiz-adv-x="681" 
d="M901 1489h-215l-145 -184h159zM575 854l-26 -123q-3 -5 -7.5 -9.5t-11.5 -9.5t-13 -8.5t-17.5 -9t-18.5 -9t-22 -10.5t-23 -11q-120 -59 -188 -127q-110 -110 -146 -277q-33 -153 17 -225q31 -51 92 -51t117 39q41 29 71 67h15q-6 -14 -7.5 -41.5t7.5 -48.5h202
q4 94 27 195l145 688q24 110 -36 182t-162 72q-116 0 -217 -88q-99 -92 -125 -211l-8 -47h206q1 5 2.5 14t2.5 12q3 12 6 27q3 8 8 26t8 27q25 59 68 59q37 0 43 -34q3 -33 -9 -68zM510 541l-61 -287q-6 -29 -35.5 -48.5t-65.5 -19.5q-29 0 -39 43q-3 40 4 62
q19 86 68 152.5t129 97.5z" />
    <glyph glyph-name="acircumflex" unicode="&#xe2;" horiz-adv-x="681" 
d="M766 1489h-219l-180 -184h188l76 71l49 -71h188zM575 854l-26 -123q-3 -5 -7.5 -9.5t-11.5 -9.5t-13 -8.5t-17.5 -9t-18.5 -9t-22 -10.5t-23 -11q-120 -59 -188 -127q-110 -110 -146 -277q-33 -153 17 -225q31 -51 92 -51t117 39q41 29 71 67h15q-6 -14 -7.5 -41.5
t7.5 -48.5h202q4 94 27 195l145 688q24 110 -36 182t-162 72q-116 0 -217 -88q-99 -92 -125 -211l-8 -47h206q1 5 2.5 14t2.5 12q3 12 6 27q3 8 8 26t8 27q25 59 68 59q37 0 43 -34q3 -33 -9 -68zM510 541l-61 -287q-6 -29 -35.5 -48.5t-65.5 -19.5q-29 0 -39 43q-3 40 4 62
q19 86 68 152.5t129 97.5z" />
    <glyph glyph-name="atilde" unicode="&#xe3;" horiz-adv-x="681" 
d="M453 1456l-33 -151q3 1 9 4t9 4t9.5 4t9.5 4q46 16 78 16q44 -3 88 -20q40 -19 84 -19q19 0 43 7q42 8 73 32l33 152q-3 -1 -9 -4t-9 -4t-9.5 -4t-9.5 -4q-53 -17 -78 -17q-45 3 -86 23q-46 16 -86 16q-25 0 -43 -6q-37 -11 -73 -33zM575 854l-26 -123q-3 -5 -7.5 -9.5
t-11.5 -9.5t-13 -8.5t-17.5 -9t-18.5 -9t-22 -10.5t-23 -11q-120 -59 -188 -127q-110 -110 -146 -277q-33 -153 17 -225q31 -51 92 -51t117 39q41 29 71 67h15q-6 -14 -7.5 -41.5t7.5 -48.5h202q4 94 27 195l145 688q24 110 -36 182t-162 72q-116 0 -217 -88
q-99 -92 -125 -211l-8 -47h206q1 5 2.5 14t2.5 12q3 12 6 27q3 8 8 26t8 27q25 59 68 59q37 0 43 -34q3 -33 -9 -68zM510 541l-61 -287q-6 -29 -35.5 -48.5t-65.5 -19.5q-29 0 -39 43q-3 40 4 62q19 86 68 152.5t129 97.5z" />
    <glyph glyph-name="adieresis" unicode="&#xe4;" horiz-adv-x="681" 
d="M422 1505l-43 -200h190l43 200h-190zM711 1505l-43 -200h190l43 200h-190zM575 854l-26 -123q-3 -5 -7.5 -9.5t-11.5 -9.5t-13 -8.5t-17.5 -9t-18.5 -9t-22 -10.5t-23 -11q-120 -59 -188 -127q-110 -110 -146 -277q-33 -153 17 -225q31 -51 92 -51t117 39q41 29 71 67h15
q-6 -14 -7.5 -41.5t7.5 -48.5h202q4 94 27 195l145 688q24 110 -36 182t-162 72q-116 0 -217 -88q-99 -92 -125 -211l-8 -47h206q1 5 2.5 14t2.5 12q3 12 6 27q3 8 8 26t8 27q25 59 68 59q37 0 43 -34q3 -33 -9 -68zM510 541l-61 -287q-6 -29 -35.5 -48.5t-65.5 -19.5
q-29 0 -39 43q-3 40 4 62q19 86 68 152.5t129 97.5z" />
    <glyph glyph-name="aring" unicode="&#xe5;" horiz-adv-x="681" 
d="M489 1421q-13 -62 23 -102.5t100 -40.5t117 40.5t66 102.5t-22 103t-99 41t-118 -41t-67 -103zM567 1421q6 29 33 50.5t57 21.5t49 -21.5t13 -50.5t-33 -50t-57 -21t-49 21t-13 50zM575 854l-26 -123q-3 -5 -7.5 -9.5t-11.5 -9.5t-13 -8.5t-17.5 -9t-18.5 -9t-22 -10.5
t-23 -11q-120 -59 -188 -127q-110 -110 -146 -277q-33 -153 17 -225q31 -51 92 -51t117 39q41 29 71 67h15q-6 -14 -7.5 -41.5t7.5 -48.5h202q4 94 27 195l145 688q24 110 -36 182t-162 72q-116 0 -217 -88q-99 -92 -125 -211l-8 -47h206q1 5 2.5 14t2.5 12q3 12 6 27
q3 8 8 26t8 27q25 59 68 59q37 0 43 -34q3 -33 -9 -68zM510 541l-61 -287q-6 -29 -35.5 -48.5t-65.5 -19.5q-29 0 -39 43q-3 40 4 62q19 86 68 152.5t129 97.5z" />
    <glyph glyph-name="ae" unicode="&#xe6;" horiz-adv-x="989" 
d="M1014 401h-193l-26 -122q-7 -38 -21 -58q-25 -55 -76 -55q-28 0 -41 16q-21 38 -12 97l53 243h342l68 326q14 75 -2 143q-15 67 -57 101q-55 45 -146 45q-93 0 -172 -52q-52 52 -141 52q-116 0 -217 -88q-99 -92 -125 -211l-8 -47h206q1 5 2.5 14t2.5 12q3 12 6 27
q3 8 8 26t8 27q25 59 68 59q37 0 43 -34q3 -33 -9 -68l-26 -123q-3 -5 -7.5 -9.5t-11.5 -9.5t-13 -8.5t-17.5 -9t-18.5 -9t-22 -10.5t-23 -11q-120 -59 -188 -127q-110 -110 -146 -277q-33 -153 17 -225q31 -51 92 -51q121 0 248 131q44 -131 198 -131q102 0 164 45
q65 43 103.5 101t62.5 142zM731 684l35 158q8 32 22 57q29 57 78 57q28 0 41 -16q20 -32 8 -98l-34 -158h-150zM510 541l-61 -287q-6 -29 -35.5 -48.5t-65.5 -19.5q-29 0 -39 43q-3 40 4 62q19 86 68 152.5t129 97.5z" />
    <glyph glyph-name="ccedilla" unicode="&#xe7;" horiz-adv-x="645" 
d="M326 258l129 604q5 27 10.5 43t22 31.5t42.5 15.5q35 0 43.5 -19.5t-2.5 -70.5l-28 -135h207l18 88q39 180 -14 254q-46 68 -185 68q-122 0 -202 -72q-93 -83 -131 -260l-105 -490q-38 -174 21 -260q54 -71 174 -71q138 0 213 67q81 72 120 254l23 109h-207l-33 -156
q-11 -52 -26.5 -71t-50.5 -19q-20 0 -30.5 7.5t-12.5 23t-1 27.5t5 32zM354 -252l31 141h-172l-31 -141h64l-68 -133h105z" />
    <glyph glyph-name="egrave" unicode="&#xe8;" horiz-adv-x="659" 
d="M633 1489h-215l123 -184h159zM684 401h-192l-27 -122q-7 -38 -21 -58q-25 -55 -75 -55q-28 0 -41 16q-22 39 -13 97l54 243h342l67 326q14 75 -2 143q-15 67 -57 101q-55 45 -146 45q-104 0 -161 -45q-122 -87 -168 -250l-121 -563q-13 -80 2 -148q14 -64 62.5 -105.5
t140.5 -41.5q102 0 164 45q64 43 102.5 101t62.5 142zM401 684l35 158q7 29 23 57q29 57 78 57q28 0 41 -16q20 -32 8 -98l-35 -158h-150z" />
    <glyph glyph-name="eacute" unicode="&#xe9;" horiz-adv-x="659" 
d="M901 1489h-215l-145 -184h159zM684 401h-192l-27 -122q-7 -38 -21 -58q-25 -55 -75 -55q-28 0 -41 16q-22 39 -13 97l54 243h342l67 326q14 75 -2 143q-15 67 -57 101q-55 45 -146 45q-104 0 -161 -45q-122 -87 -168 -250l-121 -563q-13 -80 2 -148q14 -64 62.5 -105.5
t140.5 -41.5q102 0 164 45q64 43 102.5 101t62.5 142zM401 684l35 158q7 29 23 57q29 57 78 57q28 0 41 -16q20 -32 8 -98l-35 -158h-150z" />
    <glyph glyph-name="ecircumflex" unicode="&#xea;" horiz-adv-x="659" 
d="M756 1489h-219l-181 -184h189l76 71l49 -71h188zM684 401h-192l-27 -122q-7 -38 -21 -58q-25 -55 -75 -55q-28 0 -41 16q-22 39 -13 97l54 243h342l67 326q14 75 -2 143q-15 67 -57 101q-55 45 -146 45q-104 0 -161 -45q-122 -87 -168 -250l-121 -563q-13 -80 2 -148
q14 -64 62.5 -105.5t140.5 -41.5q102 0 164 45q64 43 102.5 101t62.5 142zM401 684l35 158q7 29 23 57q29 57 78 57q28 0 41 -16q20 -32 8 -98l-35 -158h-150z" />
    <glyph glyph-name="edieresis" unicode="&#xeb;" horiz-adv-x="659" 
d="M410 1505l-43 -200h190l43 200h-190zM698 1505l-43 -200h191l43 200h-191zM684 401h-192l-27 -122q-7 -38 -21 -58q-25 -55 -75 -55q-28 0 -41 16q-22 39 -13 97l54 243h342l67 326q14 75 -2 143q-15 67 -57 101q-55 45 -146 45q-104 0 -161 -45q-122 -87 -168 -250
l-121 -563q-13 -80 2 -148q14 -64 62.5 -105.5t140.5 -41.5q102 0 164 45q64 43 102.5 101t62.5 142zM401 684l35 158q7 29 23 57q29 57 78 57q28 0 41 -16q20 -32 8 -98l-35 -158h-150z" />
    <glyph glyph-name="igrave" unicode="&#xec;" horiz-adv-x="370" 
d="M498 1489h-215l123 -184h159zM82 0h207l237 1120h-207z" />
    <glyph glyph-name="iacute" unicode="&#xed;" horiz-adv-x="370" 
d="M719 1489h-215l-146 -184h160zM82 0h207l237 1120h-207z" />
    <glyph glyph-name="icircumflex" unicode="&#xee;" horiz-adv-x="370" 
d="M610 1489h-219l-180 -184h188l76 71l49 -71h189zM82 0h207l237 1120h-207z" />
    <glyph glyph-name="idieresis" unicode="&#xef;" horiz-adv-x="372" 
d="M266 1505l-43 -200h191l43 200h-191zM555 1505l-43 -200h190l43 200h-190zM82 0h207l237 1120h-207z" />
    <glyph glyph-name="eth" unicode="&#xf0;" horiz-adv-x="673" 
d="M698 1507l-129 -100q0 -7 9 -16q1 -3 10 -21q4 -15 12 -29l-119 -88l41 -63l96 72q21 -83 9 -203q-78 78 -140 78q-112 0 -176 -123q-23 -43 -37 -89t-16 -67l-125 -579q-13 -80 2 -148q12 -60 58 -100q50 -47 143 -47q102 0 164 45q64 43 102 100.5t62 142.5l139 656
q53 254 -31 446l119 88l-41 66l-111 -82q-2 3 -7 11.5t-7 12.5q-1 1 -6 11l-8 8zM590 842l-121 -563q-3 -34 -18 -58q-25 -55 -76 -55q-28 0 -41 16q-21 38 -6 97l121 563q3 33 18 57q26 57 76 57q28 0 41 -16q21 -34 6 -98z" />
    <glyph glyph-name="ntilde" unicode="&#xf1;" 
d="M457 1456l-33 -151q3 1 9 4t9 4t9.5 4t9.5 4q46 16 78 16q44 -3 88 -20q40 -19 84 -19q19 0 43 7q42 8 73 32l33 152q-3 -1 -9 -4t-9 -4t-9.5 -4t-9.5 -4q-53 -17 -78 -17q-45 3 -86 23q-46 16 -86 16q-25 0 -43 -6q-37 -11 -73 -33zM289 0l186 883q4 6 12 14q2 2 6.5 6
t6.5 6q31 27 55 27q23 0 33.5 -10t5.5 -39l-188 -887h206l195 918q16 77 -6 145q-29 74 -105 74q-45 0 -112 -52q-16 -12 -49 -36q-17 -17 -29 -23l20 94h-207l-237 -1120h207z" />
    <glyph glyph-name="ograve" unicode="&#xf2;" horiz-adv-x="657" 
d="M629 1489h-215l123 -184h159zM651 272l121 576q14 75 -2 143q-15 67 -57 101q-55 45 -146 45q-104 0 -161 -45q-64 -46 -102 -105.5t-62 -144.5l-121 -563q-13 -80 2 -148q12 -61 57 -100q50 -47 144 -47q101 0 163 45q64 43 102 100.5t62 142.5zM578 842l-121 -563
q-3 -32 -19 -58q-25 -55 -76 -55q-27 0 -40 16q-22 39 -7 97l121 563q3 31 19 57q26 57 75 57q28 0 41 -16q22 -35 7 -98z" />
    <glyph glyph-name="oacute" unicode="&#xf3;" horiz-adv-x="657" 
d="M897 1489h-215l-145 -184h159zM651 272l121 576q14 75 -2 143q-15 67 -57 101q-55 45 -146 45q-104 0 -161 -45q-64 -46 -102 -105.5t-62 -144.5l-121 -563q-13 -80 2 -148q12 -61 57 -100q50 -47 144 -47q101 0 163 45q64 43 102 100.5t62 142.5zM578 842l-121 -563
q-3 -32 -19 -58q-25 -55 -76 -55q-27 0 -40 16q-22 39 -7 97l121 563q3 31 19 57q26 57 75 57q28 0 41 -16q22 -35 7 -98z" />
    <glyph glyph-name="ocircumflex" unicode="&#xf4;" horiz-adv-x="657" 
d="M754 1489h-219l-181 -184h189l75 71l50 -71h188zM651 272l121 576q14 75 -2 143q-15 67 -57 101q-55 45 -146 45q-104 0 -161 -45q-64 -46 -102 -105.5t-62 -144.5l-121 -563q-13 -80 2 -148q12 -61 57 -100q50 -47 144 -47q101 0 163 45q64 43 102 100.5t62 142.5z
M578 842l-121 -563q-3 -32 -19 -58q-25 -55 -76 -55q-27 0 -40 16q-22 39 -7 97l121 563q3 31 19 57q26 57 75 57q28 0 41 -16q22 -35 7 -98z" />
    <glyph glyph-name="otilde" unicode="&#xf5;" horiz-adv-x="657" 
d="M440 1456l-32 -151q3 1 9 4t9 4t9 4t9 4q46 16 78 16q44 -3 88 -20q40 -19 84 -19q18 0 43 7q44 8 74 32l33 152q-3 -1 -9.5 -4t-9.5 -4t-9 -4t-9 -4q-53 -17 -78 -17q-45 3 -86 23q-46 16 -86 16q-25 0 -43 -6q-39 -11 -74 -33zM651 272l121 576q14 75 -2 143
q-15 67 -57 101q-55 45 -146 45q-104 0 -161 -45q-64 -46 -102 -105.5t-62 -144.5l-121 -563q-13 -80 2 -148q12 -61 57 -100q50 -47 144 -47q101 0 163 45q64 43 102 100.5t62 142.5zM578 842l-121 -563q-3 -32 -19 -58q-25 -55 -76 -55q-27 0 -40 16q-22 39 -7 97l121 563
q3 31 19 57q26 57 75 57q28 0 41 -16q22 -35 7 -98z" />
    <glyph glyph-name="odieresis" unicode="&#xf6;" horiz-adv-x="657" 
d="M410 1505l-43 -200h190l43 200h-190zM698 1505l-43 -200h191l43 200h-191zM651 272l121 576q14 75 -2 143q-15 67 -57 101q-55 45 -146 45q-104 0 -161 -45q-64 -46 -102 -105.5t-62 -144.5l-121 -563q-13 -80 2 -148q12 -61 57 -100q50 -47 144 -47q101 0 163 45
q64 43 102 100.5t62 142.5zM578 842l-121 -563q-3 -32 -19 -58q-25 -55 -76 -55q-27 0 -40 16q-22 39 -7 97l121 563q3 31 19 57q26 57 75 57q28 0 41 -16q22 -35 7 -98z" />
    <glyph glyph-name="oslash" unicode="&#xf8;" horiz-adv-x="657" 
d="M106 -78h80l39 78q46 -16 99 -16q101 0 163 45q64 43 102 100.5t62 142.5l121 576q6 44 6 84q-4 34 -7 51t-14.5 45.5t-29.5 48.5l57 121h-75l-37 -80q-59 19 -105 19q-104 0 -161 -45q-64 -46 -102 -105.5t-62 -144.5l-121 -563q-8 -36 -8 -86q0 -94 51 -150zM350 436
l86 406q3 31 19 57q26 57 75 57q22 0 32.5 -8t15.5 -26zM543 682l-86 -403q-3 -32 -19 -58q-25 -55 -76 -55q-38 0 -47 31z" />
    <glyph glyph-name="ugrave" unicode="&#xf9;" 
d="M643 1489h-215l123 -184h160zM639 1120l-188 -882q-17 -21 -25 -27q-31 -27 -53 -27q-23 0 -34.5 10t-4.5 39l188 887h-207l-194 -917q-18 -83 6 -144q24 -75 102 -75q20 0 60 16q40 23 104 74q18 16 27 20l-19 -94h207l238 1120h-207z" />
    <glyph glyph-name="uacute" unicode="&#xfa;" 
d="M911 1489h-215l-145 -184h160zM639 1120l-188 -882q-17 -21 -25 -27q-31 -27 -53 -27q-23 0 -34.5 10t-4.5 39l188 887h-207l-194 -917q-18 -83 6 -144q24 -75 102 -75q20 0 60 16q40 23 104 74q18 16 27 20l-19 -94h207l238 1120h-207z" />
    <glyph glyph-name="ucircumflex" unicode="&#xfb;" 
d="M770 1489h-219l-180 -184h188l76 71l49 -71h188zM639 1120l-188 -882q-17 -21 -25 -27q-31 -27 -53 -27q-23 0 -34.5 10t-4.5 39l188 887h-207l-194 -917q-18 -83 6 -144q24 -75 102 -75q20 0 60 16q40 23 104 74q18 16 27 20l-19 -94h207l238 1120h-207z" />
    <glyph glyph-name="udieresis" unicode="&#xfc;" 
d="M426 1505l-43 -200h190l43 200h-190zM715 1505l-43 -200h190l43 200h-190zM639 1120l-188 -882q-17 -21 -25 -27q-31 -27 -53 -27q-23 0 -34.5 10t-4.5 39l188 887h-207l-194 -917q-18 -83 6 -144q24 -75 102 -75q20 0 60 16q40 23 104 74q18 16 27 20l-19 -94h207
l238 1120h-207z" />
    <glyph glyph-name="yacute" unicode="&#xfd;" horiz-adv-x="634" 
d="M868 1489h-215l-145 -184h160zM-12 -213l-39 -184q50 -4 65 -4h25q110 0 217 100q83 78 137 217l455 1204h-203l-229 -688l-17 -57h-8l8 57l66 688h-203l-55 -1153q-6 -34 -21 -61q-35 -69 -90 -103q-25 -16 -59.5 -19t-36.5 1q-10 0 -12 2z" />
    <glyph glyph-name="thorn" unicode="&#xfe;" horiz-adv-x="686" 
d="M401 1505l-401 -1890h207l96 459q14 -16 43 -45q53 -45 103 -45q71 0 139 75q49 61 67 144l152 715q16 77 -6 145q-32 74 -109 74q-32 0 -59 -15q-50 -19 -123 -75l98 458h-207zM340 246l133 628q6 28 29 48t47 20q23 0 35 -19.5t6 -48.5l-133 -628q-6 -29 -26.5 -48.5
t-43.5 -19.5t-37.5 21.5t-9.5 46.5z" />
    <glyph glyph-name="ydieresis" unicode="&#xff;" horiz-adv-x="634" 
d="M397 1505l-43 -200h191l43 200h-191zM686 1505l-43 -200h191l43 200h-191zM-12 -213l-39 -184q50 -4 65 -4h25q110 0 217 100q83 78 137 217l455 1204h-203l-229 -688l-17 -57h-8l8 57l66 688h-203l-55 -1153q-6 -34 -21 -61q-35 -69 -90 -103q-25 -16 -59.5 -19t-36.5 1
q-10 0 -12 2z" />
    <glyph glyph-name="Amacron" unicode="&#x100;" horiz-adv-x="765" 
d="M582 1862l-35 -162h397l35 162h-397zM20 0h216l104 307h213l-23 -307h215l93 1505h-271zM610 1016l-37 -475h-151l164 475l14 39h12z" />
    <glyph glyph-name="amacron" unicode="&#x101;" horiz-adv-x="681" 
d="M459 1477l-35 -162h397l35 162h-397zM575 854l-26 -123q-3 -5 -7.5 -9.5t-11.5 -9.5t-13 -8.5t-17.5 -9t-18.5 -9t-22 -10.5t-23 -11q-120 -59 -188 -127q-110 -110 -146 -277q-33 -153 17 -225q31 -51 92 -51t117 39q41 29 71 67h15q-6 -14 -7.5 -41.5t7.5 -48.5h202
q4 94 27 195l145 688q24 110 -36 182t-162 72q-116 0 -217 -88q-99 -92 -125 -211l-8 -47h206q1 5 2.5 14t2.5 12q3 12 6 27q3 8 8 26t8 27q25 59 68 59q37 0 43 -34q3 -33 -9 -68zM510 541l-61 -287q-6 -29 -35.5 -48.5t-65.5 -19.5q-29 0 -39 43q-3 40 4 62
q19 86 68 152.5t129 97.5z" />
    <glyph glyph-name="Abreve" unicode="&#x102;" horiz-adv-x="765" 
d="M989 1784l-88 94q-15 -15 -35 -25q-42 -22 -92 -22q-73 0 -106 47l-129 -94q18 -28 49 -49q62 -47 155 -47q59 0 97 14q77 24 149 82zM20 0h216l104 307h213l-23 -307h215l93 1505h-271zM610 1016l-37 -475h-151l164 475l14 39h12z" />
    <glyph glyph-name="abreve" unicode="&#x103;" horiz-adv-x="681" 
d="M866 1399l-88 94q-15 -15 -35 -25q-42 -22 -92 -22q-73 0 -106 47l-129 -94q18 -28 49 -49q62 -47 156 -47q58 0 96 14q77 24 149 82zM575 854l-26 -123q-3 -5 -7.5 -9.5t-11.5 -9.5t-13 -8.5t-17.5 -9t-18.5 -9t-22 -10.5t-23 -11q-120 -59 -188 -127
q-110 -110 -146 -277q-33 -153 17 -225q31 -51 92 -51t117 39q41 29 71 67h15q-6 -14 -7.5 -41.5t7.5 -48.5h202q4 94 27 195l145 688q24 110 -36 182t-162 72q-116 0 -217 -88q-99 -92 -125 -211l-8 -47h206q1 5 2.5 14t2.5 12q3 12 6 27q3 8 8 26t8 27q25 59 68 59
q37 0 43 -34q3 -33 -9 -68zM510 541l-61 -287q-6 -29 -35.5 -48.5t-65.5 -19.5q-29 0 -39 43q-3 40 4 62q19 86 68 152.5t129 97.5z" />
    <glyph glyph-name="Aogonek" unicode="&#x104;" horiz-adv-x="765" 
d="M649 0h96l93 1505h-271l-547 -1505h216l104 307h213l-23 -307h21q-45 -26 -82 -63q-79 -72 -98 -148q-18 -72 28.5 -123t143.5 -51q46 0 106 18l47 138q-51 -19 -90 -19q-40 0 -65 19q-28 21 -21 59q5 29 29 68q36 56 100 102zM573 541h-151l164 475l14 39h12l-2 -39z
" />
    <glyph glyph-name="aogonek" unicode="&#x105;" horiz-adv-x="681" 
d="M522 0h94q4 94 27 195l145 688q24 110 -36 182t-162 72q-116 0 -217 -88q-99 -92 -125 -211l-8 -47h206q1 5 2.5 14t2.5 12q3 12 6 27q3 8 8 26t8 27q25 59 68 59q37 0 43 -34q3 -33 -9 -68l-26 -123q-3 -5 -7.5 -9.5t-11.5 -9.5t-13 -8.5t-17.5 -9t-18.5 -9t-22 -10.5
t-23 -11q-120 -59 -188 -127q-110 -110 -146 -277q-33 -153 17 -225q31 -51 92 -51t117 39q41 29 71 67h15q-6 -14 -7.5 -41.5t7.5 -48.5h10q-45 -26 -82 -63q-79 -72 -98 -148q-18 -72 28.5 -123t143.5 -51q46 0 106 18l47 138q-51 -19 -90 -19q-40 0 -65 19q-28 21 -21 59
q5 29 29 68q36 56 100 102zM510 541l-61 -287q-6 -29 -35.5 -48.5t-65.5 -19.5q-29 0 -39 43q-3 40 4 62q19 86 68 152.5t129 97.5z" />
    <glyph glyph-name="Cacute" unicode="&#x106;" horiz-adv-x="708" 
d="M915 1874h-215l-145 -184h160zM766 516h-207l-43 -207q-7 -29 -20 -55q-28 -55 -88 -55q-26 0 -39 16q-24 35 -15 94l189 887q6 21 20 55q33 56 80 56q33 0 47 -17q27 -35 15 -94l-46 -207h207l45 207q16 99 -4 162q-13 68 -63 112q-59 52 -160 52q-103 0 -182 -52
q-52 -35 -111 -112q-47 -70 -69 -162l-189 -887q-18 -96 2 -164q13 -67 62 -110q54 -51 161 -51q110 0 181 51q58 38 112 110q48 73 72 164z" />
    <glyph glyph-name="cacute" unicode="&#x107;" horiz-adv-x="645" 
d="M801 1489h-215l-146 -184h160zM326 258l129 604q5 27 10.5 43t22 31.5t42.5 15.5q35 0 43.5 -19.5t-2.5 -70.5l-28 -135h207l18 88q39 180 -14 254q-46 68 -185 68q-122 0 -202 -72q-93 -83 -131 -260l-105 -490q-38 -174 21 -260q54 -71 174 -71q138 0 213 67
q81 72 120 254l23 109h-207l-33 -156q-11 -52 -26.5 -71t-50.5 -19q-20 0 -30.5 7.5t-12.5 23t-1 27.5t5 32z" />
    <glyph glyph-name="Ccircumflex" unicode="&#x108;" horiz-adv-x="708" 
d="M864 1874h-219l-180 -184h188l76 71l49 -71h189zM766 516h-207l-43 -207q-7 -29 -20 -55q-28 -55 -88 -55q-26 0 -39 16q-24 35 -15 94l189 887q6 21 20 55q33 56 80 56q33 0 47 -17q27 -35 15 -94l-46 -207h207l45 207q16 99 -4 162q-13 68 -63 112q-59 52 -160 52
q-103 0 -182 -52q-52 -35 -111 -112q-47 -70 -69 -162l-189 -887q-18 -96 2 -164q13 -67 62 -110q54 -51 161 -51q110 0 181 51q58 38 112 110q48 73 72 164z" />
    <glyph glyph-name="ccircumflex" unicode="&#x109;" horiz-adv-x="645" 
d="M750 1489h-220l-180 -184h189l75 71l50 -71h188zM326 258l129 604q5 27 10.5 43t22 31.5t42.5 15.5q35 0 43.5 -19.5t-2.5 -70.5l-28 -135h207l18 88q39 180 -14 254q-46 68 -185 68q-122 0 -202 -72q-93 -83 -131 -260l-105 -490q-38 -174 21 -260q54 -71 174 -71
q138 0 213 67q81 72 120 254l23 109h-207l-33 -156q-11 -52 -26.5 -71t-50.5 -19q-20 0 -30.5 7.5t-12.5 23t-1 27.5t5 32z" />
    <glyph glyph-name="Cdotaccent" unicode="&#x10a;" horiz-adv-x="708" 
d="M655 1890l-45 -207h207l45 207h-207zM766 516h-207l-43 -207q-7 -29 -20 -55q-28 -55 -88 -55q-26 0 -39 16q-24 35 -15 94l189 887q6 21 20 55q33 56 80 56q33 0 47 -17q27 -35 15 -94l-46 -207h207l45 207q16 99 -4 162q-13 68 -63 112q-59 52 -160 52q-103 0 -182 -52
q-52 -35 -111 -112q-47 -70 -69 -162l-189 -887q-18 -96 2 -164q13 -67 62 -110q54 -51 161 -51q110 0 181 51q58 38 112 110q48 73 72 164z" />
    <glyph glyph-name="cdotaccent" unicode="&#x10b;" horiz-adv-x="645" 
d="M541 1505l-45 -207h206l46 207h-207zM326 258l129 604q5 27 10.5 43t22 31.5t42.5 15.5q35 0 43.5 -19.5t-2.5 -70.5l-28 -135h207l18 88q39 180 -14 254q-46 68 -185 68q-122 0 -202 -72q-93 -83 -131 -260l-105 -490q-38 -174 21 -260q54 -71 174 -71q138 0 213 67
q81 72 120 254l23 109h-207l-33 -156q-11 -52 -26.5 -71t-50.5 -19q-20 0 -30.5 7.5t-12.5 23t-1 27.5t5 32z" />
    <glyph glyph-name="Ccaron" unicode="&#x10c;" horiz-adv-x="708" 
d="M606 1690h219l181 184h-189l-78 -72l-47 72h-188zM766 516h-207l-43 -207q-7 -29 -20 -55q-28 -55 -88 -55q-26 0 -39 16q-24 35 -15 94l189 887q6 21 20 55q33 56 80 56q33 0 47 -17q27 -35 15 -94l-46 -207h207l45 207q16 99 -4 162q-13 68 -63 112q-59 52 -160 52
q-103 0 -182 -52q-52 -35 -111 -112q-47 -70 -69 -162l-189 -887q-18 -96 2 -164q13 -67 62 -110q54 -51 161 -51q110 0 181 51q58 38 112 110q48 73 72 164z" />
    <glyph glyph-name="ccaron" unicode="&#x10d;" horiz-adv-x="645" 
d="M492 1305h219l180 184h-189l-77 -72l-47 72h-189zM326 258l129 604q5 27 10.5 43t22 31.5t42.5 15.5q35 0 43.5 -19.5t-2.5 -70.5l-28 -135h207l18 88q39 180 -14 254q-46 68 -185 68q-122 0 -202 -72q-93 -83 -131 -260l-105 -490q-38 -174 21 -260q54 -71 174 -71
q138 0 213 67q81 72 120 254l23 109h-207l-33 -156q-11 -52 -26.5 -71t-50.5 -19q-20 0 -30.5 7.5t-12.5 23t-1 27.5t5 32z" />
    <glyph glyph-name="Dcaron" unicode="&#x10e;" horiz-adv-x="761" 
d="M633 1690h219l180 184h-188l-78 -72l-47 72h-189zM82 0h174q156 0 251 35.5t157 120.5q57 80 98 214t94 382q26 124 41 205t25.5 160t9 135t-13.5 98q-29 85 -108 120t-235 35h-174zM348 221l227 1063q64 0 91.5 -15t31.5 -65q8 -73 -36 -284q-4 -18 -16 -75t-19 -91
q-1 -6 -35 -164q-42 -205 -84 -287q-27 -52 -61.5 -67t-98.5 -15z" />
    <glyph glyph-name="dcaron" unicode="&#x10f;" horiz-adv-x="995" 
d="M604 0l320 1505h-207l-99 -458q-14 16 -43 45q-53 45 -102 45q-75 0 -135 -74q-51 -56 -70 -145l-151 -715q-18 -85 8 -144q24 -75 104 -75q34 0 62 14q55 23 121 76l-15 -74h207zM1217 1278l49 227h-215l-50 -227h72l-127 -266h103zM582 874l-133 -628q-6 -28 -29 -48
t-47 -20q-23 0 -35 19.5t-6 48.5l133 628q6 29 26.5 48.5t43.5 19.5t38 -21.5t9 -46.5z" />
    <glyph glyph-name="Dcroat" unicode="&#x110;" horiz-adv-x="761" 
d="M575 1505h-174l-141 -665h-121l-35 -162h121l-143 -678h174q156 0 251 35.5t157 120.5q57 80 98 214t94 382q26 124 41 205t25.5 160t9 135t-13.5 98q-29 85 -108 120t-235 35zM348 221l98 457h56l35 162h-56l94 444q64 0 91.5 -15t31.5 -65q8 -73 -36 -284
q-4 -18 -16 -75t-19 -91q-1 -6 -35 -164q-42 -205 -84 -287q-27 -52 -61.5 -67t-98.5 -15z" />
    <glyph glyph-name="dcroat" unicode="&#x111;" horiz-adv-x="686" 
d="M909 1223l43 194h-47l19 88h-207l-19 -88h-43l-43 -194h43l-37 -176q-14 16 -43 45q-53 45 -102 45q-75 0 -135 -74q-51 -56 -70 -145l-151 -715q-18 -85 8 -144q24 -75 104 -75q34 0 62 14q55 23 121 76l-15 -74h207l258 1223h47zM582 874l-133 -628q-6 -28 -29 -48
t-47 -20q-23 0 -35 19.5t-6 48.5l133 628q6 29 26.5 48.5t43.5 19.5t38 -21.5t9 -46.5z" />
    <glyph glyph-name="Emacron" unicode="&#x112;" horiz-adv-x="628" 
d="M514 1862l-35 -162h398l34 162h-397zM401 1505l-319 -1505h506l47 227h-285l88 414h205l51 242h-205l84 395h285l49 227h-506z" />
    <glyph glyph-name="emacron" unicode="&#x113;" horiz-adv-x="659" 
d="M446 1477l-34 -162h397l35 162h-398zM684 401h-192l-27 -122q-7 -38 -21 -58q-25 -55 -75 -55q-28 0 -41 16q-22 39 -13 97l54 243h342l67 326q14 75 -2 143q-15 67 -57 101q-55 45 -146 45q-104 0 -161 -45q-122 -87 -168 -250l-121 -563q-13 -80 2 -148
q14 -64 62.5 -105.5t140.5 -41.5q102 0 164 45q64 43 102.5 101t62.5 142zM401 684l35 158q7 29 23 57q29 57 78 57q28 0 41 -16q20 -32 8 -98l-35 -158h-150z" />
    <glyph glyph-name="Ebreve" unicode="&#x114;" horiz-adv-x="628" 
d="M922 1784l-88 94q-15 -15 -35 -25q-42 -22 -92 -22q-74 0 -107 47l-129 -94q18 -28 49 -49q62 -47 156 -47q58 0 96 14q79 24 150 82zM401 1505l-319 -1505h506l47 227h-285l88 414h205l51 242h-205l84 395h285l49 227h-506z" />
    <glyph glyph-name="ebreve" unicode="&#x115;" horiz-adv-x="659" 
d="M854 1399l-88 94q-15 -15 -35 -25q-42 -22 -92 -22q-74 0 -107 47l-129 -94q17 -26 50 -49q62 -47 155 -47q59 0 97 14q77 24 149 82zM684 401h-192l-27 -122q-7 -38 -21 -58q-25 -55 -75 -55q-28 0 -41 16q-22 39 -13 97l54 243h342l67 326q14 75 -2 143q-15 67 -57 101
q-55 45 -146 45q-104 0 -161 -45q-122 -87 -168 -250l-121 -563q-13 -80 2 -148q14 -64 62.5 -105.5t140.5 -41.5q102 0 164 45q64 43 102.5 101t62.5 142zM401 684l35 158q7 29 23 57q29 57 78 57q28 0 41 -16q20 -32 8 -98l-35 -158h-150z" />
    <glyph glyph-name="Edotaccent" unicode="&#x116;" horiz-adv-x="628" 
d="M614 1890l-45 -207h207l45 207h-207zM401 1505l-319 -1505h506l47 227h-285l88 414h205l51 242h-205l84 395h285l49 227h-506z" />
    <glyph glyph-name="edotaccent" unicode="&#x117;" horiz-adv-x="659" 
d="M549 1505l-45 -207h207l45 207h-207zM684 401h-192l-27 -122q-7 -38 -21 -58q-25 -55 -75 -55q-28 0 -41 16q-22 39 -13 97l54 243h342l67 326q14 75 -2 143q-15 67 -57 101q-55 45 -146 45q-104 0 -161 -45q-122 -87 -168 -250l-121 -563q-13 -80 2 -148
q14 -64 62.5 -105.5t140.5 -41.5q102 0 164 45q64 43 102.5 101t62.5 142zM401 684l35 158q7 29 23 57q29 57 78 57q28 0 41 -16q20 -32 8 -98l-35 -158h-150z" />
    <glyph glyph-name="Eogonek" unicode="&#x118;" horiz-adv-x="628" 
d="M494 0h94l47 227h-285l88 414h205l51 242h-205l84 395h285l49 227h-506l-319 -1505h313q-45 -26 -82 -63q-79 -72 -98 -148q-18 -72 28.5 -123t143.5 -51q47 0 107 18l47 138q-51 -19 -90 -19q-41 0 -66 19q-27 21 -20 59q5 31 28 68q35 54 101 102z" />
    <glyph glyph-name="eogonek" unicode="&#x119;" horiz-adv-x="659" 
d="M508 0h-70q29 10 54 29q64 43 102.5 101t62.5 142l27 129h-192l-27 -122q-7 -38 -21 -58q-25 -55 -75 -55q-28 0 -41 16q-22 39 -13 97l54 243h342l67 326q14 75 -2 143q-15 67 -57 101q-55 45 -146 45q-104 0 -161 -45q-122 -87 -168 -250l-121 -563q-13 -80 2 -148
q14 -64 62.5 -105.5t140.5 -41.5q25 0 61 4q-33 -23 -61 -51q-81 -73 -99 -148q-18 -72 28.5 -123t143.5 -51q47 0 107 18l47 138q-51 -19 -90 -19q-41 0 -66 19q-27 21 -20 59q5 29 29 68q36 56 100 102zM401 684l35 158q7 29 23 57q29 57 78 57q28 0 41 -16q20 -32 8 -98
l-35 -158h-150z" />
    <glyph glyph-name="Ecaron" unicode="&#x11a;" horiz-adv-x="628" 
d="M565 1690h219l181 184h-189l-78 -72l-47 72h-188zM401 1505l-319 -1505h506l47 227h-285l88 414h205l51 242h-205l84 395h285l49 227h-506z" />
    <glyph glyph-name="ecaron" unicode="&#x11b;" horiz-adv-x="659" 
d="M500 1305h219l180 184h-188l-78 -72l-47 72h-189zM684 401h-192l-27 -122q-7 -38 -21 -58q-25 -55 -75 -55q-28 0 -41 16q-22 39 -13 97l54 243h342l67 326q14 75 -2 143q-15 67 -57 101q-55 45 -146 45q-104 0 -161 -45q-122 -87 -168 -250l-121 -563q-13 -80 2 -148
q14 -64 62.5 -105.5t140.5 -41.5q102 0 164 45q64 43 102.5 101t62.5 142zM401 684l35 158q7 29 23 57q29 57 78 57q28 0 41 -16q20 -32 8 -98l-35 -158h-150z" />
    <glyph glyph-name="Gcircumflex" unicode="&#x11c;" horiz-adv-x="737" 
d="M879 1874h-220l-180 -184h189l75 71l50 -71h188zM641 965h221l49 231q16 99 -4 162q-13 68 -63 112q-59 52 -160 52q-103 0 -182 -52q-52 -35 -111 -112q-47 -70 -69 -162l-189 -887q-24 -96 -10 -164q10 -67 53 -110q48 -51 148 -51q102 0 190 88l12 -72h131l158 750
h-309l-39 -187h88l-57 -272q-6 -25 -21 -55q-25 -56 -78 -56q-25 0 -39 17q-25 36 -10 94l193 905q6 32 18 55q29 56 78 56q27 0 41 -17q21 -35 10 -94z" />
    <glyph glyph-name="gcircumflex" unicode="&#x11d;" horiz-adv-x="700" 
d="M778 1489h-219l-180 -184h188l76 71l49 -71h189zM702 541l68 317q0 6 2 10v11q-2 3 2 22v27q46 24 125 24l39 185q-37 0 -107 -41q-37 -22 -83 -62q-51 103 -187 103q-101 0 -158 -45q-116 -81 -163 -240l-66 -305q-5 -35 -2 -92q4 -102 70 -152q-53 -24 -101 -72
q-55 -52 -63 -96q-30 -114 92 -149q-78 -33 -125 -70q-62 -49 -72 -100q-23 -117 56 -168q71 -46 229 -49q146 0 254 61q127 72 162 225q30 128 -53 197q-60 48 -179 63q-59 9 -102 23q-49 13 -41 47q6 28 39 51q4 -2 20 -2h19q49 0 96 15t92 46.5t81 87t56 128.5zM563 844
l-65 -307q-4 -16 -17 -52q-27 -49 -67 -49q-25 0 -35 17q-19 32 -4 84l65 307q2 22 15 51q29 51 67 51q25 0 35 -16q18 -34 6 -86zM276 -51l103 -21q39 -6 57 -14q47 -17 37 -66q-7 -32 -65 -57q-42 -18 -109 -18q-68 0 -96.5 21t-22.5 56q10 53 96 99z" />
    <glyph glyph-name="Gbreve" unicode="&#x11e;" horiz-adv-x="737" 
d="M975 1784l-88 94q-15 -15 -35 -25q-42 -22 -92 -22q-74 0 -107 47l-129 -94q18 -28 49 -49q62 -47 156 -47q58 0 96 14q79 24 150 82zM641 965h221l49 231q16 99 -4 162q-13 68 -63 112q-59 52 -160 52q-103 0 -182 -52q-52 -35 -111 -112q-47 -70 -69 -162l-189 -887
q-24 -96 -10 -164q10 -67 53 -110q48 -51 148 -51q102 0 190 88l12 -72h131l158 750h-309l-39 -187h88l-57 -272q-6 -25 -21 -55q-25 -56 -78 -56q-25 0 -39 17q-25 36 -10 94l193 905q6 32 18 55q29 56 78 56q27 0 41 -17q21 -35 10 -94z" />
    <glyph glyph-name="gbreve" unicode="&#x11f;" horiz-adv-x="700" 
d="M874 1399l-88 94q-16 -16 -34 -25q-42 -22 -93 -22q-73 0 -106 47l-129 -94q18 -28 49 -49q62 -47 156 -47q58 0 96 14q77 24 149 82zM702 541l68 317q0 6 2 10v11q-2 3 2 22v27q46 24 125 24l39 185q-37 0 -107 -41q-37 -22 -83 -62q-51 103 -187 103q-101 0 -158 -45
q-116 -81 -163 -240l-66 -305q-5 -35 -2 -92q4 -102 70 -152q-53 -24 -101 -72q-55 -52 -63 -96q-30 -114 92 -149q-78 -33 -125 -70q-62 -49 -72 -100q-23 -117 56 -168q71 -46 229 -49q146 0 254 61q127 72 162 225q30 128 -53 197q-60 48 -179 63q-59 9 -102 23
q-49 13 -41 47q6 28 39 51q4 -2 20 -2h19q49 0 96 15t92 46.5t81 87t56 128.5zM563 844l-65 -307q-4 -16 -17 -52q-27 -49 -67 -49q-25 0 -35 17q-19 32 -4 84l65 307q2 22 15 51q29 51 67 51q25 0 35 -16q18 -34 6 -86zM276 -51l103 -21q39 -6 57 -14q47 -17 37 -66
q-7 -32 -65 -57q-42 -18 -109 -18q-68 0 -96.5 21t-22.5 56q10 53 96 99z" />
    <glyph glyph-name="Gdotaccent" unicode="&#x120;" horiz-adv-x="737" 
d="M670 1890l-45 -207h206l46 207h-207zM641 965h221l49 231q16 99 -4 162q-13 68 -63 112q-59 52 -160 52q-103 0 -182 -52q-52 -35 -111 -112q-47 -70 -69 -162l-189 -887q-24 -96 -10 -164q10 -67 53 -110q48 -51 148 -51q102 0 190 88l12 -72h131l158 750h-309l-39 -187
h88l-57 -272q-6 -25 -21 -55q-25 -56 -78 -56q-25 0 -39 17q-25 36 -10 94l193 905q6 32 18 55q29 56 78 56q27 0 41 -17q21 -35 10 -94z" />
    <glyph glyph-name="gdotaccent" unicode="&#x121;" horiz-adv-x="700" 
d="M569 1505l-45 -207h207l45 207h-207zM702 541l68 317q0 6 2 10v11q-2 3 2 22v27q46 24 125 24l39 185q-37 0 -107 -41q-37 -22 -83 -62q-51 103 -187 103q-101 0 -158 -45q-116 -81 -163 -240l-66 -305q-5 -35 -2 -92q4 -102 70 -152q-53 -24 -101 -72q-55 -52 -63 -96
q-30 -114 92 -149q-78 -33 -125 -70q-62 -49 -72 -100q-23 -117 56 -168q71 -46 229 -49q146 0 254 61q127 72 162 225q30 128 -53 197q-60 48 -179 63q-59 9 -102 23q-49 13 -41 47q6 28 39 51q4 -2 20 -2h19q49 0 96 15t92 46.5t81 87t56 128.5zM563 844l-65 -307
q-4 -16 -17 -52q-27 -49 -67 -49q-25 0 -35 17q-19 32 -4 84l65 307q2 22 15 51q29 51 67 51q25 0 35 -16q18 -34 6 -86zM276 -51l103 -21q39 -6 57 -14q47 -17 37 -66q-7 -32 -65 -57q-42 -18 -109 -18q-68 0 -96.5 21t-22.5 56q10 53 96 99z" />
    <glyph glyph-name="Gcommaaccent" unicode="&#x122;" horiz-adv-x="737" 
d="M641 965h221l49 231q16 99 -4 162q-13 68 -63 112q-59 52 -160 52q-103 0 -182 -52q-52 -35 -111 -112q-47 -70 -69 -162l-189 -887q-24 -96 -10 -164q10 -67 53 -110q48 -51 148 -51q102 0 190 88l12 -72h131l158 750h-309l-39 -187h88l-57 -272q-6 -25 -21 -55
q-25 -56 -78 -56q-25 0 -39 17q-25 36 -10 94l193 905q6 32 18 55q29 56 78 56q27 0 41 -17q21 -35 10 -94zM385 -252l31 141h-172l-31 -141h63l-67 -133h104z" />
    <glyph glyph-name="gcommaaccent" unicode="&#x123;" horiz-adv-x="700" 
d="M586 1624l-49 -227h215l49 227h-72l129 266h-102zM702 541l68 317q0 6 2 10v11q-2 3 2 22v27q46 24 125 24l39 185q-37 0 -107 -41q-37 -22 -83 -62q-51 103 -187 103q-101 0 -158 -45q-116 -81 -163 -240l-66 -305q-5 -35 -2 -92q4 -102 70 -152q-53 -24 -101 -72
q-55 -52 -63 -96q-30 -114 92 -149q-78 -33 -125 -70q-62 -49 -72 -100q-23 -117 56 -168q71 -46 229 -49q146 0 254 61q127 72 162 225q30 128 -53 197q-60 48 -179 63q-59 9 -102 23q-49 13 -41 47q6 28 39 51q4 -2 20 -2h19q49 0 96 15t92 46.5t81 87t56 128.5zM563 844
l-65 -307q-4 -16 -17 -52q-27 -49 -67 -49q-25 0 -35 17q-19 32 -4 84l65 307q2 22 15 51q29 51 67 51q25 0 35 -16q18 -34 6 -86zM276 -51l103 -21q39 -6 57 -14q47 -17 37 -66q-7 -32 -65 -57q-42 -18 -109 -18q-68 0 -96.5 21t-22.5 56q10 53 96 99z" />
    <glyph glyph-name="Hcircumflex" unicode="&#x124;" horiz-adv-x="778" 
d="M899 1874h-219l-180 -184h188l76 71l49 -71h188zM614 655l-139 -655h221l320 1505h-221l-133 -622h-173l134 622h-222l-319 -1505h221l139 655h172z" />
    <glyph glyph-name="hcircumflex" unicode="&#x125;" 
d="M506 1026l59 283l72 67l49 -71h188l-102 184h-168l4 16h-207l-319 -1505h207l186 883q4 6 12 14q2 2 6.5 6t6.5 6q31 27 55 27q23 0 33.5 -10t5.5 -39l-188 -887h206l195 918q16 77 -6 145q-29 74 -105 74q-45 0 -112 -52q-16 -12 -49 -36q-17 -17 -29 -23z" />
    <glyph glyph-name="Hbar" unicode="&#x126;" horiz-adv-x="778" 
d="M1016 1122l35 162h-82l47 221h-221l-47 -221h-173l48 221h-222l-47 -221h-80l-34 -162h79l-237 -1122h221l139 655h172l-139 -655h221l238 1122h82zM713 1122l-51 -239h-173l52 239h172z" />
    <glyph glyph-name="hbar" unicode="&#x127;" 
d="M506 1026l49 227h113l32 162h-112l20 90h-207l-20 -90h-78l-33 -162h78l-266 -1253h207l186 883q4 6 12 14q2 2 6.5 6t6.5 6q31 27 55 27q23 0 33.5 -10t5.5 -39l-188 -887h206l195 918q16 77 -6 145q-29 74 -105 74q-45 0 -112 -52q-16 -12 -49 -36q-17 -17 -29 -23z
" />
    <glyph glyph-name="Itilde" unicode="&#x128;" horiz-adv-x="385" 
d="M387 1841l-33 -151q1 0 37 16q46 16 78 16q44 -3 88 -20q40 -19 84 -19q19 0 43 7q43 10 74 32l33 152q-3 -1 -9.5 -4t-9.5 -4t-9 -4t-9 -4q-53 -17 -78 -17q-45 3 -86 23q-46 16 -86 16q-25 0 -43 -6q-39 -11 -74 -33zM401 1505l-319 -1505h221l320 1505h-222z" />
    <glyph glyph-name="itilde" unicode="&#x129;" horiz-adv-x="370" 
d="M299 1456l-33 -151q3 1 9.5 4t9.5 4t9 4t9 4q46 16 78 16q44 -3 88 -20q40 -19 84 -19q19 0 43 7q44 8 74 32l32 152q-3 -1 -9 -4t-9 -4t-9 -4t-9 -4q-53 -17 -78 -17q-45 3 -86 23q-46 16 -86 16q-25 0 -43 -6q-39 -11 -74 -33zM82 0h207l237 1120h-207z" />
    <glyph glyph-name="Imacron" unicode="&#x12a;" horiz-adv-x="385" 
d="M391 1862l-35 -162h398l34 162h-397zM401 1505l-319 -1505h221l320 1505h-222z" />
    <glyph glyph-name="imacron" unicode="&#x12b;" horiz-adv-x="370" 
d="M303 1477l-35 -162h398l34 162h-397zM82 0h207l237 1120h-207z" />
    <glyph glyph-name="Ibreve" unicode="&#x12c;" horiz-adv-x="385" 
d="M799 1784l-88 94q-15 -15 -35 -25q-42 -22 -92 -22q-74 0 -107 47l-129 -94q18 -28 49 -49q62 -47 156 -47q58 0 96 14q79 24 150 82zM401 1505l-319 -1505h221l320 1505h-222z" />
    <glyph glyph-name="ibreve" unicode="&#x12d;" horiz-adv-x="370" 
d="M711 1399l-88 94q-15 -15 -35 -25q-42 -22 -92 -22q-74 0 -107 47l-129 -94q18 -28 49 -49q62 -47 156 -47q58 0 96 14q79 24 150 82zM82 0h207l237 1120h-207z" />
    <glyph glyph-name="Iogonek" unicode="&#x12e;" horiz-adv-x="385" 
d="M209 0h94l320 1505h-222l-319 -1505h29q-45 -26 -82 -63q-79 -75 -97 -148q-18 -72 28.5 -123t141.5 -51q47 0 107 18l47 138q-51 -19 -90 -19q-41 0 -66 19q-27 21 -20 59q5 28 29 68q36 56 100 102z" />
    <glyph glyph-name="iogonek" unicode="&#x12f;" horiz-adv-x="370" 
d="M563 1298l45 207h-207l-45 -207h207zM256 0h33l237 1120h-207l-237 -1120h76q-45 -26 -82 -63q-77 -70 -96 -148q-18 -72 28 -123t142 -51q46 0 106 18l47 138q-51 -19 -90 -19q-41 0 -66 19q-27 21 -20 59q5 28 29 68q36 56 100 102z" />
    <glyph glyph-name="Idotaccent" unicode="&#x130;" horiz-adv-x="385" 
d="M494 1890l-45 -207h206l45 207h-206zM401 1505l-319 -1505h221l320 1505h-222z" />
    <glyph glyph-name="dotlessi" unicode="&#x131;" horiz-adv-x="370" 
d="M82 0h207l237 1120h-207z" />
    <glyph glyph-name="IJ" unicode="&#x132;" horiz-adv-x="808" 
d="M401 1505l-319 -1505h221l320 1505h-222zM440 203l-47 -217q181 -11 285 80q91 79 117 213l262 1226h-221l-254 -1192q-11 -53 -35 -73q-43 -46 -107 -37z" />
    <glyph glyph-name="ij" unicode="&#x133;" horiz-adv-x="735" 
d="M401 1505l-45 -207h207l45 207h-207zM766 1505l-45 -207h207l45 207h-207zM82 0h207l237 1120h-207zM891 1120h-207l-244 -1147q-4 -12 -4 -20q-3 -12 -6 -27q-3 -8 -8 -26t-8 -27q-25 -63 -72 -63q-11 0 -39 4q-2 2 -8 2t-8 2l-41 -191q2 -2 8 -2q1 -1 4.5 -2t5.5 -2
q21 -6 70 -6q154 0 237 135q38 65 76 221z" />
    <glyph glyph-name="Jcircumflex" unicode="&#x134;" horiz-adv-x="423" 
d="M721 1874h-219l-180 -184h188l76 71l49 -71h188zM55 203l-47 -217q181 -11 285 80q91 79 117 213l262 1226h-221l-254 -1192q-11 -53 -35 -73q-43 -46 -107 -37z" />
    <glyph glyph-name="jcircumflex" unicode="&#x135;" horiz-adv-x="364" 
d="M563 1321h154l-103 184h-219l-180 -184h141l-6 -23h207zM313 1120l-243 -1147q-4 -12 -4 -20q0 -1 -3 -11t-4 -16q-3 -8 -8 -26t-8 -27q-25 -63 -70 -63q-11 0 -39 4q-2 2 -8 2t-8 2l-41 -191q2 -2 8 -2q1 -1 5 -2t6 -2q21 -6 69 -6q153 0 236 135q10 18 19.5 39.5
t15.5 37t13.5 41t10 36t9 37.5t7.5 30l244 1149h-207z" />
    <glyph glyph-name="Kcommaaccent" unicode="&#x136;" horiz-adv-x="768" 
d="M623 1505h-222l-319 -1505h221l113 532l78 123l18 31h6v-31l14 -655h216l-17 1010l309 495h-215l-290 -501l-17 -25h-8zM385 -252l31 141h-172l-31 -141h63l-67 -133h104z" />
    <glyph glyph-name="kcommaaccent" unicode="&#x137;" horiz-adv-x="641" 
d="M608 1505h-207l-319 -1505h207l82 387l39 66l10 16h10v-16l8 -453h199l-29 756l228 364h-187l-164 -293l-18 -36h-10zM385 -252l31 141h-172l-31 -141h63l-67 -133h104z" />
    <glyph glyph-name="kgreenlandic" unicode="&#x138;" horiz-adv-x="641" 
d="M608 1505h-207l-319 -1505h207l82 387l39 66l10 16h10v-16l8 -453h199l-29 756l228 364h-187l-164 -293l-18 -36h-10z" />
    <glyph glyph-name="Lacute" unicode="&#x139;" horiz-adv-x="604" 
d="M862 1874h-215l-145 -184h160zM401 1505l-319 -1505h514l43 205h-293l277 1300h-222z" />
    <glyph glyph-name="lacute" unicode="&#x13a;" horiz-adv-x="370" 
d="M713 1716h-215l-148 -184h160zM82 0h207l319 1505h-207z" />
    <glyph glyph-name="Lcommaaccent" unicode="&#x13b;" horiz-adv-x="604" 
d="M401 1505l-319 -1505h514l43 205h-293l277 1300h-222zM385 -252l31 141h-172l-31 -141h63l-67 -133h104z" />
    <glyph glyph-name="lcommaaccent" unicode="&#x13c;" horiz-adv-x="370" 
d="M82 0h207l319 1505h-207zM225 -238l31 142h-172l-31 -142h64l-70 -133h105z" />
    <glyph glyph-name="Lcaron" unicode="&#x13d;" horiz-adv-x="604" 
d="M911 1509l50 228h-216l-49 -228h72l-127 -266h102zM401 1505l-319 -1505h514l43 205h-293l277 1300h-222z" />
    <glyph glyph-name="lcaron" unicode="&#x13e;" horiz-adv-x="679" 
d="M82 0h207l319 1505h-207zM901 1278l49 227h-215l-49 -227h72l-127 -266h102z" />
    <glyph glyph-name="Ldot" unicode="&#x13f;" horiz-adv-x="604" 
d="M401 1505l-319 -1505h514l43 205h-293l277 1300h-222zM571 901l-49 -227h215l49 227h-215z" />
    <glyph glyph-name="ldot" unicode="&#x140;" horiz-adv-x="585" 
d="M82 0h207l319 1505h-207zM555 877l-47 -228h215l47 228h-215z" />
    <glyph glyph-name="Lslash" unicode="&#x141;" horiz-adv-x="628" 
d="M207 782l-47 -221l76 51l-130 -612h515l43 205h-293l123 579l141 95l47 221l-141 -94l106 499h-221l-143 -671z" />
    <glyph glyph-name="lslash" unicode="&#x142;" horiz-adv-x="468" 
d="M131 0h207l170 801l117 78l47 221l-117 -78l102 483h-206l-138 -645l-116 -78l-47 -221l116 78z" />
    <glyph glyph-name="Nacute" unicode="&#x143;" horiz-adv-x="808" 
d="M965 1874h-215l-146 -184h160zM481 784l49 -784h197l320 1505h-203l-182 -854h-13l-4 70l-47 784h-197l-319 -1505h203l180 854h12z" />
    <glyph glyph-name="nacute" unicode="&#x144;" 
d="M823 1489h-215l-145 -184h160zM289 0l186 883q4 6 12 14q2 2 6.5 6t6.5 6q31 27 55 27q23 0 33.5 -10t5.5 -39l-188 -887h206l195 918q16 77 -6 145q-29 74 -105 74q-45 0 -112 -52q-16 -12 -49 -36q-17 -17 -29 -23l20 94h-207l-237 -1120h207z" />
    <glyph glyph-name="Ncommaaccent" unicode="&#x145;" horiz-adv-x="808" 
d="M481 784l49 -784h197l320 1505h-203l-182 -854h-13l-4 70l-47 784h-197l-319 -1505h203l180 854h12zM385 -252l31 141h-172l-31 -141h63l-67 -133h104z" />
    <glyph glyph-name="ncommaaccent" unicode="&#x146;" 
d="M289 0l186 883q4 6 12 14q2 2 6.5 6t6.5 6q31 27 55 27q23 0 33.5 -10t5.5 -39l-188 -887h206l195 918q16 77 -6 145q-29 74 -105 74q-45 0 -112 -52q-16 -12 -49 -36q-17 -17 -29 -23l20 94h-207l-237 -1120h207zM385 -252l31 141h-172l-31 -141h63l-67 -133h104z" />
    <glyph glyph-name="Ncaron" unicode="&#x147;" horiz-adv-x="808" 
d="M655 1690h219l181 184h-189l-78 -72l-47 72h-188zM481 784l49 -784h197l320 1505h-203l-182 -854h-13l-4 70l-47 784h-197l-319 -1505h203l180 854h12z" />
    <glyph glyph-name="ncaron" unicode="&#x148;" 
d="M514 1305h219l180 184h-188l-78 -72l-47 72h-188zM289 0l186 883q4 6 12 14q2 2 6.5 6t6.5 6q31 27 55 27q23 0 33.5 -10t5.5 -39l-188 -887h206l195 918q16 77 -6 145q-29 74 -105 74q-45 0 -112 -52q-16 -12 -49 -36q-17 -17 -29 -23l20 94h-207l-237 -1120h207z" />
    <glyph glyph-name="napostrophe" unicode="&#x149;" 
d="M451 1300l30 142h-172l-30 -142h63l-68 -133h105zM289 0l186 883q4 6 12 14q2 2 6.5 6t6.5 6q31 27 55 27q23 0 33.5 -10t5.5 -39l-188 -887h206l195 918q16 77 -6 145q-29 74 -105 74q-45 0 -112 -52q-16 -12 -49 -36q-17 -17 -29 -23l20 94h-207l-237 -1120h207z" />
    <glyph glyph-name="Eng" unicode="&#x14a;" horiz-adv-x="808" 
d="M1047 1505h-203l-182 -854h-13l-4 70l-47 784h-197l-319 -1505h203l180 854h12l4 -70l49 -784h2l-4 -2q0 -2 -2 -4q-38 -44 -94 -35l-43 -207q148 -11 242 76q67 68 96 172z" />
    <glyph glyph-name="eng" unicode="&#x14b;" 
d="M602 -39l207 965q11 83 -8 137q-29 74 -105 74q-45 0 -112 -52q-16 -12 -49 -36q-17 -17 -29 -23l20 94h-207l-237 -1120h207l186 883q4 6 12 14q2 2 6.5 6t6.5 6q31 27 55 27q23 0 33.5 -10t5.5 -39l-193 -899q-12 -46 -44.5 -71.5t-82.5 -14.5l-36 -172q165 -8 262 65
q77 56 102 166z" />
    <glyph glyph-name="Omacron" unicode="&#x14c;" horiz-adv-x="724" 
d="M561 1862l-35 -162h398l34 162h-397zM723 309l188 887q16 99 -4 162q-13 68 -63 112q-59 52 -160 52q-103 0 -182 -52q-52 -35 -111 -112q-47 -70 -69 -162l-189 -887q-18 -96 2 -164q13 -67 62 -110q54 -51 161 -51q110 0 181 51q58 38 112 110q48 73 72 164zM690 1196
l-188 -887q-6 -25 -21 -55q-25 -55 -78 -55q-25 0 -38 16q-26 37 -11 94l189 887q6 32 18 55q29 56 78 56q27 0 41 -17q21 -35 10 -94z" />
    <glyph glyph-name="omacron" unicode="&#x14d;" horiz-adv-x="657" 
d="M446 1477l-34 -162h397l35 162h-398zM651 272l121 576q14 75 -2 143q-15 67 -57 101q-55 45 -146 45q-104 0 -161 -45q-64 -46 -102 -105.5t-62 -144.5l-121 -563q-13 -80 2 -148q12 -61 57 -100q50 -47 144 -47q101 0 163 45q64 43 102 100.5t62 142.5zM578 842
l-121 -563q-3 -32 -19 -58q-25 -55 -76 -55q-27 0 -40 16q-22 39 -7 97l121 563q3 31 19 57q26 57 75 57q28 0 41 -16q22 -35 7 -98z" />
    <glyph glyph-name="Obreve" unicode="&#x14e;" horiz-adv-x="724" 
d="M969 1784l-88 94q-15 -15 -35 -25q-42 -22 -92 -22q-74 0 -107 47l-129 -94q18 -28 49 -49q62 -47 156 -47q58 0 96 14q79 24 150 82zM723 309l188 887q16 99 -4 162q-13 68 -63 112q-59 52 -160 52q-103 0 -182 -52q-52 -35 -111 -112q-47 -70 -69 -162l-189 -887
q-18 -96 2 -164q13 -67 62 -110q54 -51 161 -51q110 0 181 51q58 38 112 110q48 73 72 164zM690 1196l-188 -887q-6 -25 -21 -55q-25 -55 -78 -55q-25 0 -38 16q-26 37 -11 94l189 887q6 32 18 55q29 56 78 56q27 0 41 -17q21 -35 10 -94z" />
    <glyph glyph-name="obreve" unicode="&#x14f;" horiz-adv-x="657" 
d="M854 1399l-88 94q-15 -15 -35 -25q-42 -22 -92 -22q-74 0 -107 47l-129 -94q17 -26 50 -49q62 -47 155 -47q59 0 97 14q77 24 149 82zM651 272l121 576q14 75 -2 143q-15 67 -57 101q-55 45 -146 45q-104 0 -161 -45q-64 -46 -102 -105.5t-62 -144.5l-121 -563
q-13 -80 2 -148q12 -61 57 -100q50 -47 144 -47q101 0 163 45q64 43 102 100.5t62 142.5zM578 842l-121 -563q-3 -32 -19 -58q-25 -55 -76 -55q-27 0 -40 16q-22 39 -7 97l121 563q3 31 19 57q26 57 75 57q28 0 41 -16q22 -35 7 -98z" />
    <glyph glyph-name="Ohungarumlaut" unicode="&#x150;" horiz-adv-x="724" 
d="M772 1874h-215l-145 -184h159zM1075 1874h-215l-145 -184h159zM723 309l188 887q16 99 -4 162q-13 68 -63 112q-59 52 -160 52q-103 0 -182 -52q-52 -35 -111 -112q-47 -70 -69 -162l-189 -887q-18 -96 2 -164q13 -67 62 -110q54 -51 161 -51q110 0 181 51q58 38 112 110
q48 73 72 164zM690 1196l-188 -887q-6 -25 -21 -55q-25 -55 -78 -55q-25 0 -38 16q-26 37 -11 94l189 887q6 32 18 55q29 56 78 56q27 0 41 -17q21 -35 10 -94z" />
    <glyph glyph-name="ohungarumlaut" unicode="&#x151;" horiz-adv-x="657" 
d="M655 1489h-215l-145 -184h160zM958 1489h-215l-145 -184h160zM651 272l121 576q14 75 -2 143q-15 67 -57 101q-55 45 -146 45q-104 0 -161 -45q-64 -46 -102 -105.5t-62 -144.5l-121 -563q-13 -80 2 -148q12 -61 57 -100q50 -47 144 -47q101 0 163 45q64 43 102 100.5
t62 142.5zM578 842l-121 -563q-3 -32 -19 -58q-25 -55 -76 -55q-27 0 -40 16q-22 39 -7 97l121 563q3 31 19 57q26 57 75 57q28 0 41 -16q22 -35 7 -98z" />
    <glyph glyph-name="OE" unicode="&#x152;" horiz-adv-x="983" 
d="M362 0h580l47 227h-284l88 414h204l52 242h-205l84 395h284l50 227h-580q-111 0 -182 -47q-63 -42 -109 -108q-48 -67 -69 -154l-189 -887q-18 -85 0 -151.5t68 -108.5q55 -49 161 -49zM692 1210l-190 -901q-6 -25 -21 -55q-25 -55 -78 -55q-25 0 -38 16q-26 37 -11 94
l189 887q6 32 18 55q29 56 78 56q41 0 51 -37t2 -60z" />
    <glyph glyph-name="oe" unicode="&#x153;" horiz-adv-x="995" 
d="M1020 401h-193l-26 -122q-7 -38 -21 -58q-25 -55 -75 -55q-43 0 -54 47q-7 30 0 59l54 250h342l67 326q14 75 -2 143q-15 67 -57 101q-55 45 -146 45q-101 0 -182 -60q-53 60 -160 60q-104 0 -161 -45q-64 -46 -102 -105.5t-62 -144.5l-121 -563q-13 -80 2 -148
q12 -61 57 -100q50 -47 144 -47q101 0 182 57q50 -57 158 -57q101 0 163 45q65 43 103.5 101t62.5 142zM578 842l-121 -563q-3 -32 -19 -58q-25 -55 -76 -55q-27 0 -40 16q-22 39 -7 97l121 563q3 31 19 57q26 57 75 57q28 0 41 -16q22 -35 7 -98zM737 684l35 164
q1 2 4.5 10.5t5.5 15.5q3 14 17 35q26 47 73 47q28 0 41 -16q21 -33 9 -98l-35 -158h-150z" />
    <glyph glyph-name="Racute" unicode="&#x154;" horiz-adv-x="739" 
d="M930 1874h-215l-146 -184h160zM477 0h221l13 729q69 41 119.5 132.5t76.5 209.5q45 219 -22 326.5t-262 107.5h-222l-319 -1505h221l133 635h60zM481 840l94 446q72 0 99 -31q48 -55 18 -192q-29 -135 -100 -191q-40 -32 -111 -32z" />
    <glyph glyph-name="racute" unicode="&#x155;" horiz-adv-x="503" 
d="M731 1489h-215l-145 -184h159zM688 907l47 230q-95 0 -170 -60q-47 -40 -65 -82l26 125h-207l-237 -1120h207l164 778q15 67 67 103q43 34 113 34q34 0 55 -8z" />
    <glyph glyph-name="Rcommaaccent" unicode="&#x156;" horiz-adv-x="739" 
d="M477 0h221l13 729q69 41 119.5 132.5t76.5 209.5q45 219 -22 326.5t-262 107.5h-222l-319 -1505h221l133 635h60zM481 840l94 446q72 0 99 -31q48 -55 18 -192q-29 -135 -100 -191q-40 -32 -111 -32zM385 -252l31 141h-172l-31 -141h63l-67 -133h104z" />
    <glyph glyph-name="rcommaaccent" unicode="&#x157;" horiz-adv-x="503" 
d="M688 907l47 230q-95 0 -170 -60q-47 -40 -65 -82l26 125h-207l-237 -1120h207l164 778q15 67 67 103q43 34 113 34q34 0 55 -8zM221 -240l29 142h-172l-29 -142h64l-70 -133h104z" />
    <glyph glyph-name="Rcaron" unicode="&#x158;" horiz-adv-x="739" 
d="M621 1690h219l180 184h-189l-77 -72l-47 72h-189zM477 0h221l13 729q69 41 119.5 132.5t76.5 209.5q45 219 -22 326.5t-262 107.5h-222l-319 -1505h221l133 635h60zM481 840l94 446q72 0 99 -31q48 -55 18 -192q-29 -135 -100 -191q-40 -32 -111 -32z" />
    <glyph glyph-name="rcaron" unicode="&#x159;" horiz-adv-x="503" 
d="M422 1305h219l180 184h-188l-78 -72l-47 72h-189zM688 907l47 230q-95 0 -170 -60q-47 -40 -65 -82l26 125h-207l-237 -1120h207l164 778q15 67 67 103q43 34 113 34q34 0 55 -8z" />
    <glyph glyph-name="Sacute" unicode="&#x15a;" horiz-adv-x="702" 
d="M911 1874h-215l-145 -184h160zM682 1102l221 20q34 161 2 267q-46 136 -227 133q-146 -3 -246 -115q-89 -96 -117 -238q-15 -76 -8 -120q9 -121 60 -234q3 -8 49 -108q8 -17 24 -50t23 -49q3 -7 9 -22.5t9 -22.5t9.5 -22.5t9.5 -22.5q37 -94 22 -166q-40 -166 -125 -166
q-33 0 -48.5 21t-20.5 61q-8 59 18 174l-221 -20q-13 -67 -19.5 -113t-5 -98.5t16.5 -91.5q44 -135 237 -135q169 0 269 114q78 89 118 264q24 110 -14 236q-42 128 -94 229q-39 79 -80 181q-35 88 -21 161q30 147 107 150q47 0 57 -70q6 -47 -14 -147z" />
    <glyph glyph-name="sacute" unicode="&#x15b;" horiz-adv-x="630" 
d="M795 1489h-215l-146 -184h160zM571 834h193q29 131 2 200q-41 106 -203 103q-131 -3 -221 -103q-68 -79 -94 -200q-21 -108 20 -199q26 -54 103 -146q32 -40 50 -66t31.5 -63t6.5 -69q-29 -135 -101 -135q-53 0 -67 63q-7 39 6 107h-193q-29 -124 5 -215
q48 -127 213 -127q132 0 227 102q73 76 102 205q19 98 -20 194q-23 54 -99 148q-45 51 -69 96q-33 61 -23 105q13 58 31 86q25 45 61 45q39 0 50 -45q2 -27 -11 -86z" />
    <glyph glyph-name="Scircumflex" unicode="&#x15c;" horiz-adv-x="702" 
d="M860 1874h-219l-180 -184h188l76 71l49 -71h189zM682 1102l221 20q34 161 2 267q-46 136 -227 133q-146 -3 -246 -115q-89 -96 -117 -238q-15 -76 -8 -120q9 -121 60 -234q3 -8 49 -108q8 -17 24 -50t23 -49q3 -7 9 -22.5t9 -22.5t9.5 -22.5t9.5 -22.5q37 -94 22 -166
q-40 -166 -125 -166q-33 0 -48.5 21t-20.5 61q-8 59 18 174l-221 -20q-13 -67 -19.5 -113t-5 -98.5t16.5 -91.5q44 -135 237 -135q169 0 269 114q78 89 118 264q24 110 -14 236q-42 128 -94 229q-39 79 -80 181q-35 88 -21 161q30 147 107 150q47 0 57 -70q6 -47 -14 -147z
" />
    <glyph glyph-name="scircumflex" unicode="&#x15d;" horiz-adv-x="630" 
d="M743 1489h-219l-180 -184h188l76 71l49 -71h189zM571 834h193q29 131 2 200q-41 106 -203 103q-131 -3 -221 -103q-68 -79 -94 -200q-21 -108 20 -199q26 -54 103 -146q32 -40 50 -66t31.5 -63t6.5 -69q-29 -135 -101 -135q-53 0 -67 63q-7 39 6 107h-193
q-29 -124 5 -215q48 -127 213 -127q132 0 227 102q73 76 102 205q19 98 -20 194q-23 54 -99 148q-45 51 -69 96q-33 61 -23 105q13 58 31 86q25 45 61 45q39 0 50 -45q2 -27 -11 -86z" />
    <glyph glyph-name="Scedilla" unicode="&#x15e;" horiz-adv-x="702" 
d="M682 1102l221 20q34 161 2 267q-46 136 -227 133q-146 -3 -246 -115q-89 -96 -117 -238q-15 -76 -8 -120q9 -121 60 -234q3 -8 49 -108q8 -17 24 -50t23 -49q3 -7 9 -22.5t9 -22.5t9.5 -22.5t9.5 -22.5q37 -94 22 -166q-40 -166 -125 -166q-33 0 -48.5 21t-20.5 61
q-8 59 18 174l-221 -20q-13 -67 -19.5 -113t-5 -98.5t16.5 -91.5q44 -135 237 -135q169 0 269 114q78 89 118 264q24 110 -14 236q-42 128 -94 229q-39 79 -80 181q-35 88 -21 161q30 147 107 150q47 0 57 -70q6 -47 -14 -147zM385 -252l31 141h-172l-31 -141h63l-67 -133
h104z" />
    <glyph glyph-name="scedilla" unicode="&#x15f;" horiz-adv-x="630" 
d="M571 834h193q29 131 2 200q-41 106 -203 103q-131 -3 -221 -103q-68 -79 -94 -200q-21 -108 20 -199q26 -54 103 -146q32 -40 50 -66t31.5 -63t6.5 -69q-29 -135 -101 -135q-53 0 -67 63q-7 39 6 107h-193q-29 -124 5 -215q48 -127 213 -127q132 0 227 102q73 76 102 205
q19 98 -20 194q-23 54 -99 148q-45 51 -69 96q-33 61 -23 105q13 58 31 86q25 45 61 45q39 0 50 -45q2 -27 -11 -86zM348 -252l31 141h-172l-31 -141h64l-68 -133h104z" />
    <glyph glyph-name="Scaron" unicode="&#x160;" horiz-adv-x="702" 
d="M590 1638h219l180 185h-188l-80 -72l-45 72h-189zM682 1102l221 20q34 161 2 267q-46 136 -227 133q-146 -3 -246 -115q-89 -96 -117 -238q-15 -76 -8 -120q9 -121 60 -234q3 -8 49 -108q8 -17 24 -50t23 -49q3 -7 9 -22.5t9 -22.5t9.5 -22.5t9.5 -22.5q37 -94 22 -166
q-40 -166 -125 -166q-33 0 -48.5 21t-20.5 61q-8 59 18 174l-221 -20q-13 -67 -19.5 -113t-5 -98.5t16.5 -91.5q44 -135 237 -135q169 0 269 114q78 89 118 264q24 110 -14 236q-42 128 -94 229q-39 79 -80 181q-35 88 -21 161q30 147 107 150q47 0 57 -70q6 -47 -14 -147z
" />
    <glyph glyph-name="scaron" unicode="&#x161;" horiz-adv-x="630" 
d="M483 1305h219l181 184h-189l-78 -72l-47 72h-188zM571 834h193q29 131 2 200q-41 106 -203 103q-131 -3 -221 -103q-68 -79 -94 -200q-21 -108 20 -199q26 -54 103 -146q32 -40 50 -66t31.5 -63t6.5 -69q-29 -135 -101 -135q-53 0 -67 63q-7 39 6 107h-193
q-29 -124 5 -215q48 -127 213 -127q132 0 227 102q73 76 102 205q19 98 -20 194q-23 54 -99 148q-45 51 -69 96q-33 61 -23 105q13 58 31 86q25 45 61 45q39 0 50 -45q2 -27 -11 -86z" />
    <glyph glyph-name="Tcaron" unicode="&#x164;" horiz-adv-x="647" 
d="M575 1690h220l180 184h-189l-77 -72l-47 72h-189zM274 1278h209l-270 -1278h221l271 1278h208l50 227h-639z" />
    <glyph glyph-name="tcaron" unicode="&#x165;" horiz-adv-x="811" 
d="M1032 1278l49 227h-215l-49 -227h72l-127 -266h102zM627 1397h-207l-58 -277h-104l-41 -186h105l-121 -574q-29 -136 -25 -202q1 -18 4 -35q12 -67 52 -103t126 -36q50 0 80 6q3 1 9.5 2t9.5 2q2 1 7 2t7 2l43 203q-4 -2 -12 -2q-9 0 -13 -2q-28 -4 -53 -4q-40 0 -43 67
q0 34 19 117l116 557h142l41 186h-142z" />
    <glyph glyph-name="Tbar" unicode="&#x166;" horiz-adv-x="647" 
d="M705 1278h208l50 227h-639l-50 -227h209l-32 -152h-80l-33 -161h80l-205 -965h221l205 965h96l33 161h-96z" />
    <glyph glyph-name="tbar" unicode="&#x167;" horiz-adv-x="501" 
d="M528 934h142l41 186h-142l41 195h121l35 162h-397l-35 -162h69l-41 -195h-104l-41 -186h105l-121 -574q-29 -136 -25 -202q1 -18 4 -35q12 -67 52 -103t126 -36q50 0 80 6q3 1 9.5 2t9.5 2q2 1 7 2t7 2l43 203q-4 -2 -12 -2q-9 0 -13 -2q-28 -4 -53 -4q-40 0 -43 67
q0 34 19 117z" />
    <glyph glyph-name="Utilde" unicode="&#x168;" horiz-adv-x="749" 
d="M569 1841l-32 -151q3 2 36 16q46 16 78 16q44 -3 88 -20q40 -19 84 -19q19 0 43 7q43 10 74 32l33 152q-3 -1 -9.5 -4t-9.5 -4t-9 -4t-9 -4q-53 -17 -78 -17q-45 3 -86 23q-46 16 -86 16q-25 0 -43 -6q-39 -11 -74 -33zM989 1505h-221l-254 -1196q-7 -29 -20 -55
q-25 -55 -78 -55q-26 0 -39 16q-25 36 -10 94l254 1196h-222l-254 -1196q-18 -96 2 -164q13 -67 62 -110q54 -51 162 -51q109 0 180 51q60 39 113 110q46 70 71 164z" />
    <glyph glyph-name="utilde" unicode="&#x169;" 
d="M459 1456l-33 -151q3 1 9 4t9 4t9.5 4t9.5 4q46 16 78 16q44 -3 88 -20q40 -19 84 -19q19 0 43 7q42 8 73 32l33 152q-3 -1 -9 -4t-9 -4t-9.5 -4t-9.5 -4q-53 -17 -77 -17q-45 3 -86 23q-46 16 -87 16q-25 0 -43 -6q-37 -11 -73 -33zM639 1120l-188 -882q-17 -21 -25 -27
q-31 -27 -53 -27q-23 0 -34.5 10t-4.5 39l188 887h-207l-194 -917q-18 -83 6 -144q24 -75 102 -75q20 0 60 16q40 23 104 74q18 16 27 20l-19 -94h207l238 1120h-207z" />
    <glyph glyph-name="Umacron" unicode="&#x16a;" horiz-adv-x="749" 
d="M573 1862l-34 -162h397l35 162h-398zM989 1505h-221l-254 -1196q-7 -29 -20 -55q-25 -55 -78 -55q-26 0 -39 16q-25 36 -10 94l254 1196h-222l-254 -1196q-18 -96 2 -164q13 -67 62 -110q54 -51 162 -51q109 0 180 51q60 39 113 110q46 70 71 164z" />
    <glyph glyph-name="umacron" unicode="&#x16b;" 
d="M463 1477l-35 -162h397l35 162h-397zM639 1120l-188 -882q-17 -21 -25 -27q-31 -27 -53 -27q-23 0 -34.5 10t-4.5 39l188 887h-207l-194 -917q-18 -83 6 -144q24 -75 102 -75q20 0 60 16q40 23 104 74q18 16 27 20l-19 -94h207l238 1120h-207z" />
    <glyph glyph-name="Ubreve" unicode="&#x16c;" horiz-adv-x="749" 
d="M981 1784l-88 94q-15 -15 -35 -25q-42 -22 -92 -22q-74 0 -107 47l-129 -94q18 -26 50 -49q62 -47 155 -47q58 0 96 14q79 24 150 82zM989 1505h-221l-254 -1196q-7 -29 -20 -55q-25 -55 -78 -55q-26 0 -39 16q-25 36 -10 94l254 1196h-222l-254 -1196q-18 -96 2 -164
q13 -67 62 -110q54 -51 162 -51q109 0 180 51q60 39 113 110q46 70 71 164z" />
    <glyph glyph-name="ubreve" unicode="&#x16d;" 
d="M870 1399l-88 94q-16 -16 -34 -25q-42 -22 -93 -22q-73 0 -106 47l-129 -94q18 -28 49 -49q62 -47 156 -47q58 0 96 14q77 24 149 82zM639 1120l-188 -882q-17 -21 -25 -27q-31 -27 -53 -27q-23 0 -34.5 10t-4.5 39l188 887h-207l-194 -917q-18 -83 6 -144
q24 -75 102 -75q20 0 60 16q40 23 104 74q18 16 27 20l-19 -94h207l238 1120h-207z" />
    <glyph glyph-name="Uring" unicode="&#x16e;" horiz-adv-x="749" 
d="M608 1806q-13 -62 23 -102.5t100 -40.5t116.5 40.5t65.5 102.5t-21.5 103t-98.5 41t-118 -41t-67 -103zM686 1806q6 29 33 50.5t57 21.5t49 -21.5t13 -50.5t-33 -50t-57 -21t-49 21t-13 50zM989 1505h-221l-254 -1196q-7 -29 -20 -55q-25 -55 -78 -55q-26 0 -39 16
q-25 36 -10 94l254 1196h-222l-254 -1196q-18 -96 2 -164q13 -67 62 -110q54 -51 162 -51q109 0 180 51q60 39 113 110q46 70 71 164z" />
    <glyph glyph-name="uring" unicode="&#x16f;" 
d="M496 1421q-13 -62 22.5 -102.5t99.5 -40.5t117 40.5t66 102.5t-22 103t-99 41t-117.5 -41t-66.5 -103zM573 1421q6 29 33.5 50.5t57.5 21.5t48.5 -21.5t12.5 -50.5t-33 -50t-57 -21t-49 21t-13 50zM639 1120l-188 -882q-17 -21 -25 -27q-31 -27 -53 -27q-23 0 -34.5 10
t-4.5 39l188 887h-207l-194 -917q-18 -83 6 -144q24 -75 102 -75q20 0 60 16q40 23 104 74q18 16 27 20l-19 -94h207l238 1120h-207z" />
    <glyph glyph-name="Uhungarumlaut" unicode="&#x170;" horiz-adv-x="749" 
d="M784 1874h-215l-145 -184h160zM1087 1874h-215l-145 -184h160zM989 1505h-221l-254 -1196q-7 -29 -20 -55q-25 -55 -78 -55q-26 0 -39 16q-25 36 -10 94l254 1196h-222l-254 -1196q-18 -96 2 -164q13 -67 62 -110q54 -51 162 -51q109 0 180 51q60 39 113 110
q46 70 71 164z" />
    <glyph glyph-name="uhungarumlaut" unicode="&#x171;" 
d="M672 1489h-215l-146 -184h160zM975 1489h-215l-146 -184h160zM639 1120l-188 -882q-17 -21 -25 -27q-31 -27 -53 -27q-23 0 -34.5 10t-4.5 39l188 887h-207l-194 -917q-18 -83 6 -144q24 -75 102 -75q20 0 60 16q40 23 104 74q18 16 27 20l-19 -94h207l238 1120h-207z
" />
    <glyph glyph-name="Uogonek" unicode="&#x172;" horiz-adv-x="749" 
d="M578 0h-97q35 10 70 35q60 39 113 110q46 70 71 164l254 1196h-221l-254 -1196q-7 -29 -20 -55q-25 -55 -78 -55q-26 0 -39 16q-25 36 -10 94l254 1196h-222l-254 -1196q-18 -96 2 -164q13 -67 62 -110q54 -51 162 -51q50 0 104 14q-41 -24 -78 -61q-79 -72 -98 -148
q-18 -72 28.5 -123t143.5 -51q47 0 107 18l47 138q-51 -19 -90 -19q-41 0 -66 19q-27 21 -20 59q5 31 28 68q35 54 101 102z" />
    <glyph glyph-name="uogonek" unicode="&#x173;" 
d="M514 0h94l238 1120h-207l-188 -882q-17 -21 -25 -27q-31 -27 -53 -27q-23 0 -34.5 10t-4.5 39l188 887h-207l-194 -917q-18 -83 6 -144q24 -75 102 -75q20 0 60 16q40 23 104 74q18 16 27 20l-19 -94h15q-45 -26 -82 -63q-79 -72 -98 -148q-18 -72 28.5 -123t143.5 -51
q46 0 106 18l47 138q-51 -19 -90 -19q-40 0 -65 19q-28 21 -21 59q5 29 29 68q36 56 100 102z" />
    <glyph glyph-name="Wcircumflex" unicode="&#x174;" horiz-adv-x="1036" 
d="M1024 1874h-219l-180 -184h188l76 71l49 -71h188zM399 0l252 713l33 88h8l-8 -88l-47 -713h172l522 1505h-205l-254 -782l-16 -49h-16l6 49l72 782h-160l-260 -782l-19 -49h-16l8 49l78 782h-205l-117 -1505h172z" />
    <glyph glyph-name="wcircumflex" unicode="&#x175;" horiz-adv-x="905" 
d="M881 1489h-219l-181 -184h189l75 71l50 -71h188zM547 0h172l403 1120h-188l-191 -585l-22 -64h-12l4 64l39 585h-123l-211 -585l-25 -64h-12l6 64l59 585h-188l-72 -1120h172l193 535l24 63h9l-4 -63z" />
    <glyph glyph-name="Ycircumflex" unicode="&#x176;" horiz-adv-x="700" 
d="M860 1874h-219l-180 -184h188l76 71l49 -71h189zM559 1024l-8 481h-217l41 -864l-135 -641h221l135 641l410 864h-218l-213 -481l-10 -14h-4z" />
    <glyph glyph-name="ycircumflex" unicode="&#x177;" horiz-adv-x="634" 
d="M745 1489h-219l-180 -184h189l75 71l49 -71h189zM-12 -213l-39 -184q50 -4 65 -4h25q110 0 217 100q83 78 137 217l455 1204h-203l-229 -688l-17 -57h-8l8 57l66 688h-203l-55 -1153q-6 -34 -21 -61q-35 -69 -90 -103q-25 -16 -59.5 -19t-36.5 1q-10 0 -12 2z" />
    <glyph glyph-name="Ydieresis" unicode="&#x178;" horiz-adv-x="704" 
d="M502 1839l-41 -201h190l41 201h-190zM791 1839l-41 -201h190l41 201h-190zM561 1024l-8 481h-217l41 -864l-135 -641h221l135 641l410 864h-217l-213 -481l-11 -14h-4z" />
    <glyph glyph-name="Zacute" unicode="&#x179;" horiz-adv-x="626" 
d="M874 1874h-215l-145 -184h160zM70 238l-50 -238h586l45 219h-352l580 1067l47 219h-537l-47 -219h297z" />
    <glyph glyph-name="zacute" unicode="&#x17a;" horiz-adv-x="532" 
d="M745 1489h-215l-145 -184h160zM47 168l-35 -168h504l39 188h-285l447 764l37 168h-459l-41 -188h240z" />
    <glyph glyph-name="Zdotaccent" unicode="&#x17b;" horiz-adv-x="626" 
d="M614 1890l-45 -207h207l45 207h-207zM70 238l-50 -238h586l45 219h-352l580 1067l47 219h-537l-47 -219h297z" />
    <glyph glyph-name="zdotaccent" unicode="&#x17c;" horiz-adv-x="532" 
d="M485 1505l-45 -207h207l45 207h-207zM47 168l-35 -168h504l39 188h-285l447 764l37 168h-459l-41 -188h240z" />
    <glyph glyph-name="Zcaron" unicode="&#x17d;" horiz-adv-x="626" 
d="M578 1638h219l180 185h-189l-79 -72l-45 72h-189zM70 238l-50 -238h586l45 219h-352l580 1067l47 219h-537l-47 -219h297z" />
    <glyph glyph-name="zcaron" unicode="&#x17e;" horiz-adv-x="532" 
d="M442 1305h220l180 184h-189l-78 -72l-47 72h-188zM47 168l-35 -168h504l39 188h-285l447 764l37 168h-459l-41 -188h240z" />
    <glyph glyph-name="longs" unicode="&#x17f;" horiz-adv-x="475" 
d="M37 0h158l245 1157q20 95 57.5 129.5t112.5 34.5q50 0 86 -8l58 160q-88 16 -142 16q-125 0 -200 -64q-89 -76 -127 -251z" />
    <glyph glyph-name="uni021A" unicode="&#x21a;" horiz-adv-x="647" 
d="M274 1278h209l-270 -1278h221l271 1278h208l50 227h-639zM385 -252l31 141h-172l-31 -141h63l-67 -133h104z" />
    <glyph glyph-name="uni021B" unicode="&#x21b;" horiz-adv-x="501" 
d="M627 1397h-207l-58 -277h-104l-41 -186h105l-121 -574q-29 -136 -25 -202q1 -18 4 -35q12 -67 52 -103t126 -36q50 0 80 6q3 1 9.5 2t9.5 2q2 1 7 2t7 2l43 203q-4 -2 -12 -2q-9 0 -13 -2q-28 -4 -53 -4q-40 0 -43 67q0 34 19 117l116 557h142l41 186h-142zM385 -252
l31 141h-172l-31 -141h63l-67 -133h104z" />
    <glyph glyph-name="circumflex" unicode="&#x2c6;" horiz-adv-x="1021" 
d="M936 1489h-219l-180 -184h188l76 71l49 -71h188z" />
    <glyph glyph-name="caron" unicode="&#x2c7;" horiz-adv-x="1021" 
d="M678 1305h219l180 184h-188l-78 -72l-47 72h-189z" />
    <glyph glyph-name="breve" unicode="&#x2d8;" horiz-adv-x="1024" 
d="M1034 1399l-88 94q-15 -15 -35 -25q-42 -22 -92 -22q-73 0 -106 47l-129 -94q18 -28 49 -49q62 -47 155 -47q59 0 97 14q77 24 149 82z" />
    <glyph glyph-name="dotaccent" unicode="&#x2d9;" horiz-adv-x="1021" 
d="M727 1505l-45 -207h207l45 207h-207z" />
    <glyph glyph-name="ring" unicode="&#x2da;" horiz-adv-x="1021" 
d="M659 1421q-13 -62 23 -102.5t100 -40.5t117 40.5t66 102.5t-22 103t-99 41t-118 -41t-67 -103zM737 1421q6 29 33 50.5t57 21.5t49 -21.5t13 -50.5t-33 -50t-57 -21t-49 21t-13 50z" />
    <glyph glyph-name="ogonek" unicode="&#x2db;" horiz-adv-x="1024" 
d="M582 0h-99q-45 -26 -82 -63q-79 -72 -98 -148q-18 -72 28.5 -123t143.5 -51q47 0 107 18l47 138q-51 -19 -90 -19q-41 0 -66 19q-27 21 -20 59q5 31 28 68q35 54 101 102z" />
    <glyph glyph-name="tilde" unicode="&#x2dc;" horiz-adv-x="1024" 
d="M623 1456l-33 -151q3 1 9 4t9 4t9.5 4t9.5 4q46 16 78 16q44 -3 88 -20q40 -19 84 -19q19 0 43 7q42 8 73 32l33 152q-3 -1 -9 -4t-9 -4t-9.5 -4t-9.5 -4q-53 -17 -78 -17q-45 3 -86 23q-46 16 -86 16q-25 0 -43 -6q-37 -11 -73 -33z" />
    <glyph glyph-name="hungarumlaut" unicode="&#x2dd;" horiz-adv-x="1024" 
d="M852 1489h-215l-145 -184h159zM1155 1489h-215l-145 -184h159z" />
    <glyph glyph-name="endash" unicode="&#x2013;" horiz-adv-x="806" 
d="M252 844l-41 -195h659l41 195h-659z" />
    <glyph glyph-name="emdash" unicode="&#x2014;" horiz-adv-x="972" 
d="M252 844l-41 -195h825l41 195h-825z" />
    <glyph glyph-name="quoteleft" unicode="&#x2018;" horiz-adv-x="309" 
d="M311 1239l-47 -227h215l47 227h-71l129 266h-103z" />
    <glyph glyph-name="quoteright" unicode="&#x2019;" horiz-adv-x="309" 
d="M530 1278l50 227h-215l-50 -227h72l-127 -266h102z" />
    <glyph glyph-name="quotesinglbase" unicode="&#x201a;" horiz-adv-x="309" 
d="M260 0l47 227h-215l-47 -227h72l-127 -266h100z" />
    <glyph glyph-name="quotedblleft" unicode="&#x201c;" horiz-adv-x="624" 
d="M315 1239l-47 -227h215l47 227h-71l129 266h-103zM618 1239l-47 -227h215l48 227h-72l129 266h-103z" />
    <glyph glyph-name="quotedblright" unicode="&#x201d;" horiz-adv-x="624" 
d="M539 1278l49 227h-215l-49 -227h71l-127 -266h103zM842 1278l49 227h-215l-49 -227h71l-127 -266h103z" />
    <glyph glyph-name="quotedblbase" unicode="&#x201e;" horiz-adv-x="624" 
d="M268 0l47 227h-215l-47 -227h72l-127 -266h100zM571 0l47 227h-215l-47 -227h72l-129 -266h102z" />
    <glyph glyph-name="uni201F" unicode="&#x201f;" horiz-adv-x="624" 
d="M588 1505h-215l-49 -227l57 -266h102l-16 266h72zM891 1505h-215l-49 -227l57 -266h102l-16 266h72z" />
    <glyph glyph-name="bullet" unicode="&#x2022;" horiz-adv-x="663" 
d="M254 817q-21 -108 37 -178q55 -74 162 -74q49 0 102 21q96 36 160 133q23 34 36.5 75.5t8.5 97.5t-39 101q-60 72 -162 72q-108 0 -192 -72q-93 -80 -113 -176z" />
    <glyph glyph-name="ellipsis" unicode="&#x2026;" horiz-adv-x="964" 
d="M100 227l-47 -227h215l47 227h-215zM422 227l-47 -227h215l47 227h-215zM743 227l-47 -227h215l47 227h-215z" />
    <glyph glyph-name="Euro" unicode="&#x20ac;" horiz-adv-x="813" 
d="M256 958l-29 -137h107l-31 -137h-106l-29 -137h106l-49 -238q-18 -96 2 -164q13 -67 62 -110q54 -51 162 -51q109 0 180 51q58 38 112 110q48 73 72 164l16 84h-206l-17 -84q-7 -29 -20 -55q-28 -55 -88 -55q-26 0 -39 16q-24 35 -15 94l50 238h233l29 137h-234l31 137
h233l29 137h-233l51 238q6 21 20 55q33 56 80 56q33 0 47 -17q27 -35 15 -94l-19 -84h207l19 84q15 97 -5 162q-13 68 -63 112q-59 52 -160 52q-103 0 -182 -52q-52 -35 -111 -112q-47 -70 -69 -162l-52 -238h-106z" />
    <glyph glyph-name="trademark" unicode="&#x2122;" horiz-adv-x="937" 
d="M371 1401h104l-123 -580h113l123 580h104l23 104h-322zM797 821h51l172 449l-94 -449h104l146 684h-138l-135 -319h-6v319h-137l-146 -684h103l94 449z" />
    <glyph glyph-name="minus" unicode="&#x2212;" horiz-adv-x="776" 
d="M248 821l-37 -172h629l37 172h-629z" />
    <glyph glyph-name="fi" unicode="&#xfb01;" horiz-adv-x="772" 
d="M483 0h207l238 1120h-359l6 29q1 3 2.5 11t2.5 11q1 4 6 29q7 38 20 62q33 71 92 71q33 0 47 -2q20 -2 62 -10l39 184q-3 1 -11 2t-12 2q-16 0 -22 2q-37 9 -101 9q-169 0 -251 -140q-12 -19 -22.5 -41.5t-17 -40t-14 -42.5t-10.5 -37.5t-9 -37t-7 -30.5l-7 -31h-104
l-41 -186h105l-197 -934h207l196 934h152z" />
    <glyph glyph-name="fl" unicode="&#xfb02;" horiz-adv-x="772" 
d="M483 0h207l320 1505h-164q-3 1 -11 2t-12 2q-16 0 -22 2q-37 9 -101 9q-169 0 -251 -140q-12 -19 -22.5 -41.5t-17 -40t-14 -42.5t-10.5 -37.5t-9 -37t-7 -30.5l-7 -31h-104l-41 -186h105l-197 -934h207l196 934h105l41 186h-105l6 29q1 3 2.5 11t2.5 11q1 4 6 29
q7 38 20 62q33 71 92 71q34 0 66 -4z" />
    </font>
</defs>
</svg>
