<?xml version="1.0" standalone="no"?>
<!DOCTYPE svg PUBLIC "-//W3C//DTD SVG 1.1//EN" "http://www.w3.org/Graphics/SVG/1.1/DTD/svg11.dtd" >
<svg xmlns="http://www.w3.org/2000/svg" xmlns:xlink="http://www.w3.org/1999/xlink" version="1.1">
<metadata>
Created by FontForge 20170731 at Mon Jan  9 13:29:31 2023
 By Aleksey,,,
Copyright (c) 2012 by The League of Moveable Type
</metadata>
<defs>
<font id="LeagueGothic-CondensedRegular" horiz-adv-x="475" >
  <font-face 
    font-family="League Gothic Condensed"
    font-weight="400"
    font-stretch="condensed"
    units-per-em="2048"
    panose-1="0 0 5 6 0 0 0 0 0 0"
    ascent="1505"
    descent="-543"
    x-height="1120"
    cap-height="1505"
    bbox="-61 -512 973 1950"
    underline-thickness="102"
    underline-position="-307"
    unicode-range="U+000D-FB02"
  />
<missing-glyph horiz-adv-x="188" 
 />
    <glyph glyph-name=".notdef" horiz-adv-x="188" 
 />
    <glyph glyph-name=".null" horiz-adv-x="0" 
 />
    <glyph glyph-name="nonmarkingreturn" horiz-adv-x="682" 
 />
    <glyph glyph-name="CR" unicode="&#xd;" horiz-adv-x="221" 
 />
    <glyph glyph-name="space" unicode=" " horiz-adv-x="221" 
 />
    <glyph glyph-name="exclam" unicode="!" horiz-adv-x="292" 
d="M59 406l-32 1099h180l-33 -1099h-115zM33 0v227h166v-227h-166z" />
    <glyph glyph-name="quotedbl" unicode="&#x22;" horiz-adv-x="417" 
d="M168 954h-129l-19 551h166zM375 954h-129l-19 551h166z" />
    <glyph glyph-name="numbersign" unicode="#" horiz-adv-x="800" 
d="M10 438l17 195h118q2 34 11 129l12 129h-117l15 194h118q2 36 17 209l18 211h154l-33 -420h119q5 76 16 209l19 211h153l-35 -420h117l-16 -194h-115l-12 -129q-10 -106 -11 -129h115l-16 -195h-115l-18 -219q-15 -189 -17 -219h-155l34 438h-118l-19 -219
q-12 -150 -16 -219h-156l37 438h-121zM324 891l-23 -258h119q3 56 10 129l12 129h-118z" />
    <glyph glyph-name="dollar" unicode="$" horiz-adv-x="479" 
d="M180 1628h86v-125q76 -11 121 -96q36 -74 43 -186l-133 -25q-5 59 -20 92.5t-46 32.5q-29 0 -45 -51q-14 -54 -14 -111q0 -74 41 -172q25 -63 80 -166q37 -71 49 -98q61 -121 84 -225q12 -62 12 -127q0 -152 -37 -242q-48 -113 -135 -127v-217h-86v221q-87 22 -131 125
q-43 93 -43 227l133 13q3 -78 25 -129q23 -58 65 -58q35 0 52 58q14 46 14 127t-41 174q-18 43 -39 84q-40 73 -90 176q-62 135 -82 227q-14 72 -14 125q0 123 32 211q39 106 119 131v131z" />
    <glyph glyph-name="percent" unicode="%" horiz-adv-x="837" 
d="M348 1348v-437q-3 -77 -42.5 -126.5t-108.5 -49.5q-74 0 -114 51.5t-40 124.5v437q0 75 42.5 124.5t111.5 49.5q75 0 110.5 -49.5t40.5 -124.5zM295 0h-137l430 1505h131zM225 911v437q0 55 -28 55q-31 0 -31 -55v-437q-5 -55 31 -55q5 0 9 1t7 3.5t5 4.5t3.5 6.5t2 7
t1 8.5t0.5 7.5v8.5v8zM831 594v-436q-3 -75 -43 -124.5t-108 -49.5q-73 0 -113.5 51t-40.5 123v436q0 75 42.5 125.5t111.5 50.5q72 0 109 -51t42 -125zM709 158v436q0 55 -29 55q-31 0 -31 -55v-436q-2 -23 5.5 -40.5t25.5 -17.5q29 0 29 58z" />
    <glyph glyph-name="ampersand" unicode="&#x26;" horiz-adv-x="573" 
d="M391 674l135 -25q-1 -20 -3 -41.5t-4 -39t-7.5 -42t-7.5 -38t-10 -41.5t-10.5 -37t-12.5 -40t-11.5 -36.5t-13 -39.5t-12.5 -36q6 -13 27 -31t45 -30v-213q-13 4 -24.5 8.5t-20.5 8t-17.5 9.5t-14 8.5t-12.5 10.5t-9.5 10.5t-9 12t-8 12t-9 14.5t-8.5 14
q-21 -55 -64 -81.5t-98 -26.5q-50 0 -89.5 21.5t-63 54.5t-39 76t-21.5 81t-6 74q0 23 2.5 48t5.5 46.5t10 51t11.5 48t14.5 51t14.5 46.5t17 47.5t15.5 42.5t16 43t14 37q-64 231 -64 442q5 328 180 328q45 0 79 -24t52 -58t29 -81.5t14 -84t3 -74.5q0 -70 -18 -148
t-37.5 -131t-53.5 -133q-8 -19 -12 -28q11 -39 26.5 -101.5t27 -105t19.5 -64.5q12 34 22.5 91.5t10.5 93.5zM262 1200q2 55 -7.5 100.5t-29.5 45.5q-19 0 -28 -45.5t-9 -100.5q0 -39 8 -110t21 -115q45 129 45 225zM299 260q-52 114 -100 281q-4 -20 -13.5 -62.5t-12.5 -58
t-7.5 -42.5t-6 -46t-1.5 -39q0 -51 16 -91t45 -40q12 0 22.5 3.5t28 27t29.5 67.5z" />
    <glyph glyph-name="quotesingle" unicode="'" horiz-adv-x="247" 
d="M164 954h-129l-19 551h166z" />
    <glyph glyph-name="parenleft" unicode="(" horiz-adv-x="397" 
d="M203 1610l125 -109q-82 -205 -127 -506q-25 -162 -25 -350q0 -327 78 -620q34 -134 74 -234l-123 -106q-101 256 -158 598q-27 167 -27 362q0 324 89 664q47 172 94 301z" />
    <glyph glyph-name="parenright" unicode=")" horiz-adv-x="397" 
d="M8 1501l125 109q102 -271 156 -600q26 -163 26 -365q0 -327 -88 -663q-37 -141 -96 -297l-123 106q70 166 129 506q25 182 25 348q0 301 -78 621q-46 165 -76 235z" />
    <glyph glyph-name="asterisk" unicode="*" horiz-adv-x="468" 
d="M150 1350l-11 155h129l-10 -157l96 49l31 -142l-109 -38l89 -134l-99 -100l-63 125l-62 -125l-100 100l96 134l-114 38l28 142z" />
    <glyph glyph-name="plus" unicode="+" horiz-adv-x="698" 
d="M27 649v172h221v346h141v-346h221v-172h-221v-346h-141v346h-221z" />
    <glyph glyph-name="comma" unicode="," horiz-adv-x="247" 
d="M174 227v-227l-68 -266h-98l51 266h-51v227h166z" />
    <glyph glyph-name="hyphen" unicode="-" horiz-adv-x="327" 
d="M27 455v194h215v-194h-215z" />
    <glyph glyph-name="period" unicode="." horiz-adv-x="253" 
d="M14 0v227h166v-227h-166z" />
    <glyph glyph-name="slash" unicode="/" horiz-adv-x="493" 
d="M-14 -147l325 1652h135l-321 -1652h-139z" />
    <glyph glyph-name="zero" unicode="0" horiz-adv-x="495" 
d="M430 1217v-928q0 -62 -10.5 -114t-33 -96.5t-64 -69.5t-97.5 -25q-57 0 -99 27t-64.5 72.5t-33 96.5t-10.5 109v928q0 84 18.5 149.5t67 110.5t121.5 45q58 0 100.5 -29.5t64 -78t31 -97.5t9.5 -100zM260 289v928q0 90 -33 90q-16 0 -25 -25.5t-9 -64.5v-928
q0 -40 10 -65t24 -25q15 0 24 26.5t9 63.5z" />
    <glyph glyph-name="one" unicode="1" horiz-adv-x="346" 
d="M84 1180h-88v137q62 23 115 110q16 31 26 78h117v-1505h-170v1180z" />
    <glyph glyph-name="two" unicode="2" horiz-adv-x="499" 
d="M188 1028h-170v105q1 45 3.5 82t9.5 85t21.5 84.5t36 69.5t56 50.5t78.5 17.5q46 0 80.5 -18t55.5 -51t34.5 -68.5t19.5 -83t7.5 -80t1.5 -74.5q0 -183 -66.5 -437t-154.5 -491h211v-219h-398v219q53 139 73.5 194t61 175.5t58 192.5t33.5 169.5t18 182.5q0 58 -8 121
t-27 63q-11 0 -19 -24t-11 -60t-4 -59t-1 -41v-105z" />
    <glyph glyph-name="three" unicode="3" horiz-adv-x="473" 
d="M14 434h166q0 -256 37 -256q35 0 35 205q-3 174 -26 233.5t-95 63.5v182q28 2 48 11.5t32 29.5t19 37.5t10 51.5t3.5 53t0.5 60v17q0 199 -31 199q-37 0 -37 -250h-168q0 451 203 451q47 0 84.5 -24t59 -60t35.5 -83.5t19 -88.5t5 -80q0 -166 -22 -256.5t-81 -161.5
q107 -72 107 -383q0 -84 -7.5 -147.5t-27.5 -125t-62 -95t-104 -33.5q-36 0 -66 13.5t-50.5 40t-36 55.5t-24.5 70t-14.5 73t-8 75.5t-3 66.5t-0.5 56z" />
    <glyph glyph-name="four" unicode="4" horiz-adv-x="479" 
d="M233 0v328h-231v194l211 983h166v-983h61v-194h-61v-328h-146zM238 522v465l-93 -465h93z" />
    <glyph glyph-name="five" unicode="5" horiz-adv-x="483" 
d="M262 336v377q0 47 -11 78.5t-26 31.5q-21 0 -32 -41t-11 -69h-147v792h356v-219h-205v-321q3 20 33 39.5t55 19.5q154 0 154 -311v-357q-5 -372 -211 -372q-35 0 -63.5 12.5t-47.5 34.5t-34 52t-22.5 63.5t-13.5 69.5t-7 71t-2 67.5t0 58.5v25h168v-100q0 -63 8 -112.5
t22 -49.5q37 0 37 160z" />
    <glyph glyph-name="six" unicode="6" horiz-adv-x="481" 
d="M430 657v-368q-1 -54 -13 -105t-36 -97.5t-67.5 -74.5t-100.5 -28q-47 0 -83 22t-56 54.5t-33 76t-17 80t-4 72.5v889q5 344 203 344q51 0 89.5 -24.5t59 -60t33 -86t16 -90t3.5 -83.5v-107h-164q0 258 -37 258q-33 0 -33 -151v-279q3 10 26.5 22.5t45.5 12.5
q38 0 67 -12.5t47 -36.5t29.5 -49.5t16.5 -60.5t6.5 -60.5t1.5 -57.5zM190 700v-436q0 -31 8.5 -59.5t28.5 -28.5q22 0 30.5 28t8.5 60v430q0 12 -2.5 26t-12 28t-24.5 14q-32 0 -37 -62z" />
    <glyph glyph-name="seven" unicode="7" horiz-adv-x="415" 
d="M53 0l135 1286h-200v219h372v-221l-133 -1284h-174z" />
    <glyph glyph-name="eight" unicode="8" horiz-adv-x="479" 
d="M424 1280v-291q0 -71 -19 -115t-61 -79q40 -24 63 -80t23 -135v-320q0 -50 -11.5 -97t-34.5 -88t-63 -66t-92 -25q-53 0 -94 26.5t-63 69t-32.5 88.5t-10.5 92v320q0 129 86 215q-40 40 -60 83t-20 111v291q0 97 50.5 169.5t143.5 72.5q51 0 90.5 -22t61 -58.5
t32.5 -77.5t11 -84zM264 1085v164q0 84 -35 84q-34 0 -34 -84v-164v-139q0 -28 10.5 -47.5t23.5 -19.5t24 19.5t11 47.5v139zM264 410v184q0 36 -9 61t-26 25q-34 0 -34 -86v-184v-160q0 -28 10.5 -48t23.5 -20t24 20t11 48v160z" />
    <glyph glyph-name="nine" unicode="9" horiz-adv-x="481" 
d="M4 848v369q1 54 13 105t36 97.5t67.5 74.5t100.5 28q47 0 83 -22t56 -54.5t33 -76t17 -80t4 -72.5v-889q-5 -344 -203 -344q-51 0 -89.5 24.5t-59 60t-33 86t-16 90t-3.5 83.5v106h164q0 -258 37 -258q33 0 33 152v278q-3 -10 -26.5 -22.5t-45.5 -12.5q-38 0 -67 12.5
t-47 36.5t-29.5 49.5t-16.5 60.5t-6.5 60.5t-1.5 57.5zM244 805v436q0 31 -8.5 59.5t-28.5 28.5q-22 0 -30.5 -28t-8.5 -60v-430q0 -12 2.5 -26t12 -28t24.5 -14q32 0 37 62z" />
    <glyph glyph-name="colon" unicode=":" horiz-adv-x="278" 
d="M27 893v227h166v-227h-166zM27 0v227h166v-227h-166z" />
    <glyph glyph-name="semicolon" unicode=";" horiz-adv-x="278" 
d="M27 893v227h166v-227h-166zM193 227v-227l-68 -266h-98l51 266h-51v227h166z" />
    <glyph glyph-name="less" unicode="&#x3c;" horiz-adv-x="696" 
d="M27 655v148l583 508v-219l-426 -363q104 -90 211 -180l215 -182v-220z" />
    <glyph glyph-name="equal" unicode="=" horiz-adv-x="696" 
d="M27 864v172h583v-172h-583zM27 477v172h583v-172h-583z" />
    <glyph glyph-name="greater" unicode="&#x3e;" horiz-adv-x="696" 
d="M610 803v-148l-583 -508v220l424 362l-424 363v219z" />
    <glyph glyph-name="question" unicode="?" horiz-adv-x="313" 
d="M238 406h-146v256q0 101 41 270q12 50 64 182q10 24 18.5 51.5t16 66.5t-3.5 64t-42 25q-33 0 -61 -55q-7 -15 -13 -32.5t-11.5 -35.5t-6.5 -22l-123 84q12 65 66 153q64 100 153 100q57 0 97 -25t58.5 -67.5t26 -84t7.5 -89.5q0 -96 -60 -239q-2 -4 -11 -28t-15 -38
q-36 -89 -49 -172q-6 -35 -6 -108v-256zM84 0v227h166v-227h-166z" />
    <glyph glyph-name="at" unicode="@" horiz-adv-x="692" 
d="M633 1184v-795h-137l-27 64q-8 -29 -39.5 -53.5t-64.5 -24.5q-51 0 -80 53.5t-29 134.5v477q0 185 129 185q39 0 72 -29q-4 48 -25 78q-27 53 -108 53q-78 0 -105 -53q-29 -47 -29 -90v-873q0 -44 29 -84q30 -55 105 -55q47 0 76.5 18t52.5 54l145 -103
q-46 -76 -110 -120t-164 -44q-158 0 -250 132q-58 89 -58 202v873q0 117 58 211q88 133 250 133t254 -133q55 -90 55 -211zM463 575v449q0 15 -8 25t-19 10q-8 0 -15 -10.5t-7 -24.5v-449q0 -14 8 -24t16 -10q25 0 25 34z" />
    <glyph glyph-name="A" unicode="A" horiz-adv-x="520" 
d="M160 0h-166l137 1505h199l135 -1505h-166l-23 307h-94zM262 541l-33 598l-30 -598h63z" />
    <glyph glyph-name="B" unicode="B" horiz-adv-x="507" 
d="M254 0h-223v1505h149q63 0 103.5 -21t72.5 -67q70 -107 70 -311q0 -130 -16 -195q-25 -81 -72 -116q22 -21 34 -35t27 -44t23 -69q14 -66 14 -221q0 -85 -10 -172.5t-23 -124.5q-19 -51 -55 -90t-94 -39zM201 1286v-401q33 0 41 12q22 32 22 188q0 157 -22 189
q-12 12 -41 12zM201 682v-463q33 0 41 10q22 32 22 222q0 108 -4 157.5t-18 63.5q-10 10 -41 10z" />
    <glyph glyph-name="C" unicode="C" horiz-adv-x="487" 
d="M256 516h166v-227q0 -63 -10 -115t-32.5 -96t-63.5 -69t-97 -25q-57 0 -98.5 28t-62.5 75.5t-30.5 97t-9.5 104.5v928q0 54 10 104.5t32 97t63 75t96 28.5q58 0 100.5 -32t63 -82t30 -97.5t9.5 -93.5v-228h-166v228q0 90 -35 90q-28 0 -28 -82v-936q0 -90 28 -90
q35 0 35 90v227z" />
    <glyph glyph-name="D" unicode="D" horiz-adv-x="518" 
d="M195 0h-164v1505h141q100 0 148.5 -34t76.5 -121q24 -80 31.5 -214t7.5 -384q0 -154 -0.5 -216t-3 -163t-9 -154.5t-17.5 -85.5q-22 -66 -69 -99.5t-142 -33.5zM201 1284v-1063h18t16.5 5.5t17.5 16.5t10 34.5t5 58.5v352q0 72 0.5 164t0.5 138t-0.5 99t-2 86t-4.5 60
q-1 13 -5 22t-7.5 14t-11.5 8t-11 3.5t-13.5 1t-12.5 0.5z" />
    <glyph glyph-name="E" unicode="E" horiz-adv-x="438" 
d="M31 0v1505h340v-227h-170v-395h123v-242h-123v-414h170v-227h-340z" />
    <glyph glyph-name="F" unicode="F" horiz-adv-x="432" 
d="M383 1505v-227h-182v-395h123v-228h-123v-655h-170v1505h352z" />
    <glyph glyph-name="G" unicode="G" horiz-adv-x="503" 
d="M424 965h-170v252q0 90 -33 90q-16 0 -23.5 -28t-7.5 -62v-947q0 -90 35 -90q41 0 41 90v293h-37v187h195v-750h-88l-19 55q-13 -27 -48.5 -49t-63.5 -22q-43 0 -77.5 22t-54.5 54.5t-33 75.5t-17.5 80.5t-4.5 72.5v928q0 54 10.5 105t33 97.5t63.5 74.5t96 28
q47 0 84 -20.5t58.5 -52t36 -73.5t19.5 -80.5t5 -78.5v-252z" />
    <glyph glyph-name="H" unicode="H" horiz-adv-x="528" 
d="M266 0v655h-65v-655h-170v1505h170v-622h65v622h170v-1505h-170z" />
    <glyph glyph-name="I" unicode="I" horiz-adv-x="292" 
d="M31 0v1505h170v-1505h-170z" />
    <glyph glyph-name="J" unicode="J" horiz-adv-x="315" 
d="M-8 -12v221q24 -5 40.5 4t23.5 28t9.5 36t2.5 36v1192h170v-1226q0 -69 -11.5 -122t-38.5 -95t-76.5 -61.5t-119.5 -12.5z" />
    <glyph glyph-name="K" unicode="K" horiz-adv-x="522" 
d="M31 1505h164v-432l110 432h166l-149 -551l145 -954h-166l-106 717v-717h-164v1505z" />
    <glyph glyph-name="L" unicode="L" horiz-adv-x="423" 
d="M31 0v1505h170v-1300h176v-205h-346z" />
    <glyph glyph-name="M" unicode="M" horiz-adv-x="655" 
d="M344 0h-92l-64 741v-741h-157v1505h188l78 -710l78 710h188v-1505h-162v741z" />
    <glyph glyph-name="N" unicode="N" horiz-adv-x="546" 
d="M311 0l-123 731v-731h-157v1505h143l123 -710v710h158v-1505h-144z" />
    <glyph glyph-name="O" unicode="O" horiz-adv-x="495" 
d="M430 1217v-928q0 -62 -10.5 -114t-33 -96.5t-64 -69.5t-97.5 -25q-57 0 -99 27t-64.5 72.5t-33 96.5t-10.5 109v928q0 84 18.5 149.5t67 110.5t121.5 45q58 0 100.5 -29.5t64 -78t31 -97.5t9.5 -100zM260 289v928q0 90 -33 90q-16 0 -25 -25.5t-9 -64.5v-928
q0 -40 10 -65t24 -25q15 0 24 26.5t9 63.5z" />
    <glyph glyph-name="P" unicode="P" horiz-adv-x="493" 
d="M31 0v1505h172q53 0 89.5 -19.5t69.5 -70.5q72 -115 72 -360q0 -252 -72 -367q-53 -82 -161 -86v-602h-170zM201 1284v-457q41 0 53 25q16 33 16 195q0 178 -16 215q-10 22 -53 22z" />
    <glyph glyph-name="Q" unicode="Q" horiz-adv-x="499" 
d="M422 1217v-928q0 -87 -31 -178q-1 -1 0 -2v-3q18 -27 47 -36v-185q-123 0 -166 107h-2q-12 -4 -18 -4l-25 -4h-16q-2 0 -4.5 1t-3.5 1q-54 4 -92 32.5t-57 74.5t-27.5 94t-8.5 102v928q0 62 10 114t31.5 96.5t61.5 69.5t96 25q58 0 100.5 -29.5t64 -78t31 -97.5t9.5 -100
zM248 289v928q0 90 -29 90q-26 0 -26 -90v-928q0 -90 26 -90q14 0 21.5 27.5t7.5 62.5z" />
    <glyph glyph-name="R" unicode="R" horiz-adv-x="505" 
d="M455 0h-166l-88 655v-655h-170v1505h172q118 0 171.5 -108t53.5 -326q0 -112 -20 -204t-58 -138zM201 1286v-457q31 0 45 23q20 30 20 211q0 175 -18 203q-12 20 -47 20z" />
    <glyph glyph-name="S" unicode="S" horiz-adv-x="483" 
d="M418 1124l-168 -24q0 219 -33 219q-17 0 -23 -37.5t-6 -112.5q0 -46 15 -106.5t31.5 -106t54.5 -141.5q66 -160 97.5 -264.5t31.5 -208.5q0 -40 -3 -76.5t-10.5 -79.5t-22.5 -77t-36 -63.5t-55 -45.5t-76 -16q-44 0 -78.5 17.5t-56 42t-37 66t-23 74.5t-11.5 83.5
t-4.5 76t-0.5 69.5v7l166 24q0 -258 45 -258q22 0 28.5 33.5t6.5 112.5q0 61 -18 132.5t-40.5 129t-76.5 188.5q-92 247 -92 387q0 45 4 87t16 92t32 86.5t55.5 61.5t82.5 26q41 1 73.5 -14.5t53.5 -40t36.5 -61.5t23 -71t12 -77.5t5.5 -71.5t1 -62z" />
    <glyph glyph-name="T" unicode="T" horiz-adv-x="450" 
d="M109 1278h-125v227h419v-227h-124v-1278h-170v1278z" />
    <glyph glyph-name="U" unicode="U" horiz-adv-x="512" 
d="M250 1505h170v-1216q0 -305 -201 -305q-203 0 -203 305v1216h170v-1216q0 -46 7 -68t26 -22q31 0 31 90v1216z" />
    <glyph glyph-name="V" unicode="V" horiz-adv-x="491" 
d="M-8 1505h166l57 -770l57 770h166l-139 -1505h-168z" />
    <glyph glyph-name="W" unicode="W" horiz-adv-x="684" 
d="M369 0l-58 721l-57 -721h-143l-115 1505h160l43 -706l49 706h125l51 -704q6 110 20.5 351.5t20.5 352.5h160l-111 -1505h-145z" />
    <glyph glyph-name="X" unicode="X" horiz-adv-x="503" 
d="M285 0l-64 416l-63 -416h-166l145 791q-61 301 -71 356l-72 358h168l59 -364q9 61 30 182.5t30 181.5h168l-144 -714q9 -46 24.5 -134t22.5 -125l99 -532h-166z" />
    <glyph glyph-name="Y" unicode="Y" horiz-adv-x="481" 
d="M164 1505l57 -438q9 71 30 217t30 221h168l-142 -864v-641h-170v641l-141 864h168z" />
    <glyph glyph-name="Z" unicode="Z" horiz-adv-x="438" 
d="M-6 0v238l207 1048h-178v219h360v-219l-213 -1067h213v-219h-389z" />
    <glyph glyph-name="bracketleft" unicode="[" horiz-adv-x="385" 
d="M307 1505v-196h-121v-1325h121v-197h-276v1718h276z" />
    <glyph glyph-name="backslash" unicode="\" horiz-adv-x="536" 
d="M121 1692l368 -1872h-137l-366 1872h135z" />
    <glyph glyph-name="bracketright" unicode="]" horiz-adv-x="385" 
d="M16 1309v196h277v-1718h-277v197h121v1325h-121z" />
    <glyph glyph-name="asciicircum" unicode="^" horiz-adv-x="722" 
d="M242 1505h178l227 -696h-155l-162 487l-160 -487h-156z" />
    <glyph glyph-name="underscore" unicode="_" horiz-adv-x="724" 
d="M27 -326v172h612v-172h-612z" />
    <glyph glyph-name="grave" unicode="`" horiz-adv-x="675" 
d="M160 1489h164l63 -184h-131z" />
    <glyph glyph-name="a" unicode="a" horiz-adv-x="471" 
d="M231 743v121q0 32 -7 63t-19 31q-13 0 -21 -32.5t-8 -61.5v-73h-156v67q0 67 18.5 128t63.5 106t109 45q59 0 100.5 -43t57.5 -99t14 -112v-688q0 -113 10 -195h-137q-5 8 -14.5 33.5t-10.5 34.5q-13 -35 -41 -59.5t-63 -24.5q-31 0 -54.5 23t-35 53.5t-18 73t-8 70
t-1.5 56.5q0 271 156 404q57 49 65 79zM229 254v260q-28 -36 -49.5 -110.5t-21.5 -141.5q0 -84 28 -84q19 0 31 22.5t12 53.5z" />
    <glyph glyph-name="b" unicode="b" horiz-adv-x="473" 
d="M31 0v1505h162v-432q4 20 32.5 42t50.5 22q37 0 63 -20.5t39 -55.5t18 -69.5t5 -73.5v-715q0 -8 -0.5 -28.5t-0.5 -32t-1.5 -31.5t-4 -32.5t-6.5 -29t-11 -27t-16 -20t-22.5 -14t-29.5 -4.5q-36 0 -71.5 27t-44.5 50v-61h-162zM193 883v-627q0 -78 28 -78q29 0 29 78v627
q0 30 -8 51.5t-21 21.5q-14 0 -21 -22.5t-7 -50.5z" />
    <glyph glyph-name="c" unicode="c" horiz-adv-x="448" 
d="M182 874v-616q0 -34 8.5 -61t22.5 -27q33 0 33 88v156h155v-129q-1 -47 -3 -78t-8 -69.5t-19 -63t-34 -47t-53.5 -33t-76.5 -10.5q-46 0 -81 21.5t-54.5 53.5t-31.5 76.5t-16 82t-4 77.5v530q1 55 9.5 104t28 99t59 79.5t94.5 29.5q38 0 68 -9.5t50 -24t34 -40t21.5 -48
t11 -57t4.5 -59.5t1 -63v-109h-155v147q0 82 -31 82q-13 0 -23 -25.5t-10 -56.5z" />
    <glyph glyph-name="d" unicode="d" horiz-adv-x="473" 
d="M414 1505v-1505h-162v61q-9 -23 -45 -50t-72 -27q-16 0 -29.5 4.5t-22.5 14t-16 20t-11 27t-6.5 29t-4 32.5t-1.5 31.5t-0.5 32t-0.5 28.5v715q0 39 5 73.5t18 69.5t39 55.5t63 20.5q22 0 51 -22t33 -42v432h162zM252 256v627q0 28 -7.5 50.5t-21.5 22.5q-13 0 -20.5 -21
t-7.5 -52v-627q0 -78 28 -78q14 0 21.5 23t7.5 55z" />
    <glyph glyph-name="e" unicode="e" horiz-adv-x="456" 
d="M248 401h153v-141q0 -276 -202 -276q-51 0 -88 25t-55.5 68t-27 89.5t-8.5 99.5v584q0 72 17.5 134t62 107.5t109.5 45.5q50 0 86 -17.5t56 -43.5t31.5 -66t15 -74.5t3.5 -79.5v-334h-223v-243q0 -41 7.5 -77t23.5 -36q39 0 39 113v122zM178 842v-158h70v158
q0 114 -41 114q-29 0 -29 -114z" />
    <glyph glyph-name="f" unicode="f" horiz-adv-x="346" 
d="M217 0h-160v934h-63v186h63v66q1 43 2.5 72.5t6.5 72t15.5 71t27.5 56t44.5 41.5t63.5 14q40 0 76 -20v-170q-16 10 -32.5 10t-24.5 -8q-19 -21 -19 -127v-78h64v-186h-64v-934z" />
    <glyph glyph-name="g" unicode="g" horiz-adv-x="501" 
d="M391 879v-338q-2 -48 -14 -94t-34.5 -88.5t-61 -68.5t-88.5 -26h-11q-12 -20 -12 -49q0 -27 25.5 -44.5t56.5 -25.5q88 -23 123 -63q63 -77 63 -197q0 -59 -13 -108.5t-39.5 -90.5t-72 -64t-106.5 -23q-104 0 -160.5 58.5t-56.5 158.5q0 92 106 170h2q-88 43 -88 149
q0 43 24.5 90t59.5 78q-78 119 -78 244v305q1 48 11.5 95.5t31 91.5t58 71t86.5 27q88 0 127 -70q60 70 129 70v-185q-59 0 -76 -24q8 -16 8 -49zM233 537v317q0 102 -30 102q-14 0 -20.5 -32t-6.5 -70v-317q0 -36 6.5 -68.5t20.5 -32.5q30 0 30 101zM231 -72l-49 17
q-37 -41 -37 -95q0 -34 16 -55.5t48 -21.5q33 0 54.5 22t21.5 53q0 60 -54 80z" />
    <glyph glyph-name="h" unicode="h" horiz-adv-x="468" 
d="M193 883v-883h-162v1505h162v-432q3 20 32.5 42t55.5 22q36 0 61 -23.5t36.5 -61.5t16 -70t4.5 -64v-918h-153v883q0 73 -27 73q-26 0 -26 -73z" />
    <glyph glyph-name="i" unicode="i" horiz-adv-x="270" 
d="M31 1298v207h162v-207h-162zM193 0h-162v1120h162v-1120z" />
    <glyph glyph-name="j" unicode="j" horiz-adv-x="280" 
d="M27 1298v207h161v-207h-161zM27 1120h161v-1149q0 -147 -18 -221q-15 -59 -51.5 -97t-91.5 -38q-37 0 -72 16l4 187q13 -4 23 -4.5t17 3t12 9.5t8 14t5 17.5t2.5 19.5t0.5 20v19v10v1194z" />
    <glyph glyph-name="k" unicode="k" horiz-adv-x="446" 
d="M31 1505h155v-618l76 233h156l-137 -385l133 -735h-156l-72 475v-475h-155v1505z" />
    <glyph glyph-name="l" unicode="l" horiz-adv-x="280" 
d="M193 0h-162v1505h162v-1505z" />
    <glyph glyph-name="m" unicode="m" horiz-adv-x="673" 
d="M399 883v-883h-147v887q0 69 -31 69q-13 0 -20.5 -21t-7.5 -52v-883h-162v1120h162v-59q19 32 50.5 54t59.5 22q32 0 53.5 -24.5t24.5 -57.5q15 33 53.5 57.5t73.5 24.5q24 0 42.5 -10.5t29 -32t17.5 -41t9.5 -49.5t3 -45.5t0.5 -40.5v-918h-149v883q0 73 -31 73
q-15 0 -23 -24t-8 -49z" />
    <glyph glyph-name="n" unicode="n" 
d="M193 883v-883h-162v1120h162v-57q16 25 49.5 49.5t58.5 24.5q36 0 60 -23.5t34 -62t13.5 -69t3.5 -64.5v-918h-160v885q0 71 -31 71q-28 0 -28 -73z" />
    <glyph glyph-name="o" unicode="o" horiz-adv-x="456" 
d="M399 848v-576q0 -139 -43 -213.5t-147 -74.5q-58 0 -97.5 25.5t-58.5 71t-26 92.5t-7 106v563q0 295 193 295q48 0 82.5 -15.5t54 -40t31 -64t15 -78t3.5 -91.5zM246 258v604q4 94 -35 94q-37 0 -37 -94v-604q-4 -92 35 -92q21 0 30 35t7 57z" />
    <glyph glyph-name="p" unicode="p" horiz-adv-x="473" 
d="M31 -385v1505h162v-57q12 28 45 51t61 23q113 0 113 -219v-715q-5 -219 -113 -219q-28 0 -59.5 24t-46.5 58v-451h-162zM193 881v-635q0 -68 30 -68q29 0 29 68v635q0 75 -29 75q-30 0 -30 -75z" />
    <glyph glyph-name="q" unicode="q" horiz-adv-x="473" 
d="M412 1120v-1505h-162v451q-15 -33 -47 -57.5t-60 -24.5q-107 0 -112 219v715q0 219 112 219q28 0 61.5 -23t45.5 -51v57h162zM250 246v635q0 75 -31 75q-29 0 -29 -75v-635q0 -68 29 -68q31 0 31 68z" />
    <glyph glyph-name="r" unicode="r" horiz-adv-x="364" 
d="M326 1137v-246q-67 38 -102.5 0t-35.5 -113v-778h-157v1120h157v-61q46 78 138 78z" />
    <glyph glyph-name="s" unicode="s" horiz-adv-x="440" 
d="M381 834h-139q0 42 -8.5 86.5t-28.5 44.5q-29 0 -29 -117q0 -21 4.5 -44t8.5 -38.5t15.5 -41t15 -33.5t18.5 -36.5t16 -29.5q35 -59 57 -102t44 -119t22 -150q0 -33 -4 -65.5t-16 -71t-31.5 -66.5t-54.5 -47.5t-81 -19.5q-42 0 -74 14t-51.5 41.5t-32.5 57.5t-18.5 73.5
t-7.5 77t-2 78.5h148q0 -66 9 -118t29 -52t26.5 31.5t6.5 103.5q0 12 -1 24t-5 26t-6.5 24.5t-9.5 28t-10 26t-12.5 28.5t-12.5 26.5t-14 29.5t-13 28q-8 15 -31.5 59.5t-33 66t-24 59.5t-20 74.5t-5.5 78.5q0 116 44.5 191.5t131.5 75.5q40 0 71.5 -14t50 -40.5t31 -55
t18 -66.5t7.5 -65.5t2 -61.5z" />
    <glyph glyph-name="t" unicode="t" horiz-adv-x="358" 
d="M72 1397h157v-277h86v-186h-86v-934h-157v934h-68v186h68v277z" />
    <glyph glyph-name="u" unicode="u" 
d="M242 238v882h161v-1120h-161v57q-16 -25 -50 -49t-59 -24q-110 0 -110 219v917h159v-884q0 -72 31 -72q29 0 29 74z" />
    <glyph glyph-name="v" unicode="v" horiz-adv-x="421" 
d="M270 0h-159l-119 1120h151l47 -657l50 657h151z" />
    <glyph glyph-name="w" unicode="w" horiz-adv-x="604" 
d="M451 0h-134l-47 532l-45 -532h-131l-100 1120h145l39 -514l45 514h99l43 -514l38 514h146z" />
    <glyph glyph-name="x" unicode="x" horiz-adv-x="444" 
d="M12 0l115 578l-125 542h152l51 -280l55 280h152l-127 -542l114 -578h-149l-45 303q-7 -39 -22.5 -160.5t-18.5 -142.5h-152z" />
    <glyph glyph-name="y" unicode="y" horiz-adv-x="466" 
d="M23 -395v182q48 -19 71 10q37 55 37 170l-135 1153h158l59 -661q5 78 26.5 332t26.5 329h160l-139 -1204q-11 -136 -58 -217q-35 -66 -91.5 -91.5t-114.5 -2.5z" />
    <glyph glyph-name="z" unicode="z" horiz-adv-x="380" 
d="M-10 0v168l170 764h-144v188h312v-168l-170 -764h170v-188h-338z" />
    <glyph glyph-name="braceleft" unicode="{" 
d="M397 1522v-172q-40 -1 -67.5 -12t-42.5 -26t-23 -43t-10 -52t-2 -64v-397q0 -75 -30 -141.5t-72 -79.5q45 -30 73.5 -90.5t28.5 -131.5v-397q1 -45 4 -71t11 -53.5t23.5 -41t41.5 -22.5t65 -9v-172q-80 0 -135 16.5t-87.5 44t-50 77t-23 101t-5.5 130.5v397q0 39 -14 78
q-19 59 -64 62v163q46 0 64 60q14 36 14 80v397q1 81 8 135t25.5 103t51.5 76t86 42t130 13z" />
    <glyph glyph-name="bar" unicode="|" horiz-adv-x="274" 
d="M182 -512h-151v2204h151v-2204z" />
    <glyph glyph-name="braceright" unicode="}" 
d="M16 1350v172q77 2 130 -13t86 -42t51.5 -76t25.5 -103t8 -135v-397q0 -41 15 -80q18 -60 63 -60v-163q-44 -3 -63 -62q-15 -41 -15 -78v-397q0 -79 -5.5 -130.5t-23 -101t-50 -77t-87.5 -44t-135 -16.5v172q39 0 65 9t41.5 22.5t24 41t11.5 53.5t4 71v397
q0 71 28.5 131.5t73.5 90.5q-42 13 -72 79.5t-30 141.5v397q0 40 -2 64.5t-10 52t-23.5 42.5t-43 26t-67.5 12z" />
    <glyph glyph-name="asciitilde" unicode="~" horiz-adv-x="829" 
d="M164 1276l-115 82q27 137 113 254q41 47 106 47q80 0 168 -92l10 -11q64 -71 93 -71q33 0 67 90q11 20 27 86q0 3 2 11.5t2 10.5l117 -79q-36 -151 -113 -256q-39 -48 -102 -48q-37 0 -71.5 16.5t-53 34t-49.5 50.5q-66 74 -97 74q-33 0 -73 -91q-25 -72 -31 -108z" />
    <glyph glyph-name="uni0093" 
d="M14 1012v227l68 266h98l-43 -266h43v-227h-166zM236 1012v227l67 266h98l-43 -266h43v-227h-165z" />
    <glyph glyph-name="uni0094" horiz-adv-x="466" 
d="M180 1505v-227l-67 -266h-99l43 266h-43v227h166zM401 1505v-227l-67 -266h-98l43 266h-43v227h165z" />
    <glyph glyph-name="exclamdown" unicode="&#xa1;" horiz-adv-x="292" 
d="M33 893v227h166v-227h-166zM27 -385l32 1100h115l33 -1100h-180z" />
    <glyph glyph-name="cent" unicode="&#xa2;" horiz-adv-x="444" 
d="M176 1069v-616q0 -34 8.5 -61t22.5 -27q33 0 33 88v155h155v-129q-1 -50 -3 -83t-10 -73t-22.5 -65.5t-40.5 -46.5t-63 -29v-305h-109v301q-40 14 -68 50.5t-41 85.5t-18.5 91t-5.5 84v531q0 42 5.5 84.5t18.5 89.5t40.5 82.5t66.5 48.5v242h111v-240q32 -7 56.5 -22
t39 -39t24 -48.5t13.5 -60t5 -62t1 -65.5v-108h-155v147q0 82 -31 82q-13 0 -23 -25.5t-10 -56.5z" />
    <glyph glyph-name="sterling" unicode="&#xa3;" horiz-adv-x="550" 
d="M453 1120h-166q0 197 -43 197q-14 0 -23.5 -23t-13.5 -57.5t-5 -54.5t-1 -33q0 -110 47 -363h125v-137h-105q17 -107 17 -174q0 -103 -39 -219q6 -5 14.5 -13t22 -21t24.5 -23l17 43q15 41 18 149l150 -29q-7 -183 -53 -280.5t-117 -97.5q-30 0 -63.5 25.5t-60 51
t-40.5 25.5q-13 0 -33 -51q-10 -23 -23 -76l-118 109q20 84 73 163q15 23 54 45q22 99 22 199q0 71 -18 174h-113v137h90q-7 23 -14 64q-39 216 -39 299q0 153 39 250q48 120 158 123q125 3 178 -123q39 -102 39 -279z" />
    <glyph glyph-name="yen" unicode="&#xa5;" horiz-adv-x="493" 
d="M39 340v137h104v137h-104v138h88l-131 753h168l63 -438q7 52 33.5 212.5t34.5 225.5h168l-133 -753h90v-138h-107v-137h107v-137h-107v-340h-170v340h-104z" />
    <glyph glyph-name="dieresis" unicode="&#xa8;" horiz-adv-x="675" 
d="M125 1305v200h151v-200h-151zM338 1305v200h151v-200h-151z" />
    <glyph glyph-name="copyright" unicode="&#xa9;" horiz-adv-x="1048" 
d="M14 752q0 318 138 544q63 106 152 166t190 60t189.5 -60t152.5 -166q137 -225 137 -544q0 -318 -137 -543q-64 -106 -152.5 -165.5t-189.5 -59.5t-190.5 59.5t-151.5 165.5q-65 107 -101.5 247.5t-36.5 295.5zM121 752q0 -270 115 -457q117 -193 258 -193q71 0 138 51
t122 142q110 189 110 457q0 271 -110 460q-55 91 -122 141t-138 50q-142 0 -258 -191q-115 -187 -115 -460zM504 612h119v-125q-6 -101 -52 -165q-24 -31 -79 -31q-93 0 -121 98q-13 47 -13 98v531q0 99 52 166q24 30 82 30q88 0 116 -98q15 -54 15 -98v-125h-119v125
q3 32 -8 53q-2 0 -2 4l-7 -20q0 -1 -1 -3t-1 -3q-4 -16 -4 -31v-531q0 -34 13 -57v-6q2 0 3 4.5t2 13t3 13.5q5 20 2 32v125z" />
    <glyph glyph-name="registered" unicode="&#xae;" horiz-adv-x="1048" 
d="M14 752q0 318 138 544q63 106 152 166t190 60t189.5 -60t152.5 -166q137 -225 137 -544q0 -318 -137 -543q-64 -106 -152.5 -165.5t-189.5 -59.5t-190.5 59.5t-151.5 165.5q-65 107 -101.5 247.5t-36.5 295.5zM121 752q0 -270 115 -457q117 -193 258 -193q71 0 138 51
t122 142q110 189 110 457q0 271 -110 460q-55 91 -122 141t-138 50q-142 0 -258 -191q-115 -187 -115 -460zM356 1192h138q155 0 155 -258q0 -76 -9 -122.5t-44 -98.5h2l64 -400h-130l-51 338v-338h-125v879zM489 1063h-8v-258h8q8 0 16 7.5t16.5 38t8.5 81.5q0 57 -10 88
q-4 19 -13 31t-18 12z" />
    <glyph glyph-name="macron" unicode="&#xaf;" horiz-adv-x="675" 
d="M170 1315v162h274v-162h-274z" />
    <glyph glyph-name="acute" unicode="&#xb4;" horiz-adv-x="675" 
d="M291 1489h164l-97 -184h-131z" />
    <glyph glyph-name="periodcentered" unicode="&#xb7;" horiz-adv-x="190" 
d="M-18 649v228h165v-228h-165z" />
    <glyph glyph-name="cedilla" unicode="&#xb8;" horiz-adv-x="675" 
d="M377 -111v-141l-27 -133h-100l33 133h-45v141h139z" />
    <glyph glyph-name="questiondown" unicode="&#xbf;" horiz-adv-x="448" 
d="M266 1120v-227h-166v227h166zM113 715h145v-256q0 -102 -41 -271q-14 -56 -63 -182q-10 -25 -18.5 -52t-16.5 -66t3 -64t42 -25q32 0 61 56q7 15 13 32.5t11.5 35.5t6.5 22l123 -84q-12 -66 -66 -154q-64 -100 -153 -100q-57 0 -97 25t-58.5 67.5t-26 84t-7.5 89.5
q0 97 60 240l26 65q36 89 49 172q7 41 7 109v256z" />
    <glyph glyph-name="Agrave" unicode="&#xc0;" horiz-adv-x="520" 
d="M68 1823h163l66 -185h-131zM160 0h-166l137 1505h199l135 -1505h-166l-23 307h-94zM262 541l-33 598l-30 -598h63z" />
    <glyph glyph-name="Aacute" unicode="&#xc1;" horiz-adv-x="520" 
d="M221 1823h164l-96 -185h-131zM160 0h-166l137 1505h199l135 -1505h-166l-23 307h-94zM262 541l-33 598l-30 -598h63z" />
    <glyph glyph-name="Acircumflex" unicode="&#xc2;" horiz-adv-x="520" 
d="M150 1823h165l84 -185h-133l-35 80l-34 -80h-134zM160 0h-166l137 1505h199l135 -1505h-166l-23 307h-94zM262 541l-33 598l-30 -598h63z" />
    <glyph glyph-name="Atilde" unicode="&#xc3;" horiz-adv-x="520" 
d="M94 1604v176q29 43 84 43q24 0 57 -17.5t52 -17.5t45.5 21t36.5 38v-170q-30 -51 -82 -51q-24 0 -57.5 19.5t-53.5 19.5q-16 0 -43.5 -23t-38.5 -38zM160 0h-166l137 1505h199l135 -1505h-166l-23 307h-94zM262 541l-33 598l-30 -598h63z" />
    <glyph glyph-name="Adieresis" unicode="&#xc4;" horiz-adv-x="520" 
d="M57 1638v201h152v-201h-152zM256 1638v201h150v-201h-150zM160 0h-166l137 1505h199l135 -1505h-166l-25 307h-90zM260 541l-31 536l-28 -536h59z" />
    <glyph glyph-name="Aring" unicode="&#xc5;" horiz-adv-x="520" 
d="M121 1761q0 62 32 103t78 41q45 0 77 -41t32 -103t-32 -102.5t-77 -40.5q-46 0 -78 40.5t-32 102.5zM201 1761q0 -28 9.5 -46.5t20.5 -18.5q10 0 20.5 19t10.5 46t-10.5 45.5t-20.5 18.5q-11 0 -20.5 -18t-9.5 -46zM160 0h-166l137 1505h199l135 -1505h-166l-25 307h-90z
M260 541l-31 536l-28 -536h59z" />
    <glyph glyph-name="AE" unicode="&#xc6;" horiz-adv-x="720" 
d="M313 0v307h-100l-53 -307h-168l252 1505h409v-227h-170v-395h123v-242h-123v-414h170v-227h-340zM313 1102l-65 -561h65v561z" />
    <glyph glyph-name="Ccedilla" unicode="&#xc7;" horiz-adv-x="487" 
d="M256 516h166v-227q0 -63 -10 -115t-32.5 -96t-63.5 -69t-97 -25q-57 0 -98.5 28t-62.5 75.5t-30.5 97t-9.5 104.5v928q0 54 10 104.5t32 97t63 75t96 28.5q58 0 100.5 -32t63 -82t30 -97.5t9.5 -93.5v-228h-166v228q0 90 -35 90q-28 0 -28 -82v-936q0 -90 28 -90
q35 0 35 90v227zM283 -111v-141l-27 -133h-100l24 133h-37v141h140z" />
    <glyph glyph-name="Egrave" unicode="&#xc8;" horiz-adv-x="438" 
d="M49 1823h164l66 -185h-132zM31 0v1505h340v-227h-170v-395h123v-242h-123v-414h170v-227h-340z" />
    <glyph glyph-name="Eacute" unicode="&#xc9;" horiz-adv-x="438" 
d="M186 1823h164l-96 -185h-131zM31 0v1505h340v-227h-170v-395h123v-242h-123v-414h170v-227h-340z" />
    <glyph glyph-name="Ecircumflex" unicode="&#xca;" horiz-adv-x="438" 
d="M123 1823h166l84 -185h-133l-35 80l-35 -80h-133zM31 0v1505h340v-227h-170v-395h123v-242h-123v-414h170v-227h-340z" />
    <glyph glyph-name="Edieresis" unicode="&#xcb;" horiz-adv-x="438" 
d="M31 1638v201h151v-201h-151zM229 1638v201h150v-201h-150zM31 0v1505h340v-227h-170v-395h123v-242h-123v-414h170v-227h-340z" />
    <glyph glyph-name="Igrave" unicode="&#xcc;" horiz-adv-x="303" 
d="M-20 1823h163l64 -185h-129zM41 0v1505h170v-1505h-170z" />
    <glyph glyph-name="Iacute" unicode="&#xcd;" horiz-adv-x="303" 
d="M96 1823h164l-96 -185h-131zM31 0v1505h170v-1505h-170z" />
    <glyph glyph-name="Icircumflex" unicode="&#xce;" horiz-adv-x="284" 
d="M27 1823h166l83 -185h-133l-34 80l-35 -80h-133zM27 0v1505h168v-1505h-168z" />
    <glyph glyph-name="Idieresis" unicode="&#xcf;" horiz-adv-x="284" 
d="M-59 1638v201h151v-201h-151zM139 1638v201h150v-201h-150zM27 0v1505h170v-1505h-170z" />
    <glyph glyph-name="Eth" unicode="&#xd0;" horiz-adv-x="518" 
d="M31 1505h123q200 0 241 -127t41 -626q0 -108 -0.5 -171.5t-2.5 -142.5t-6 -121t-11.5 -95t-17.5 -78t-26 -56t-36 -43t-47.5 -25t-60 -16.5t-74.5 -3.5h-123v655h-37v228h37v622zM201 655v-434h18t16.5 5.5t17.5 16.5t10 34.5t5 58.5v352q0 72 0.5 164t0.5 138t-0.5 99
t-2 86t-4.5 60q-1 13 -5 22t-7.5 14t-11.5 8t-11 3.5t-13.5 1t-12.5 0.5v-401h30v-228h-30z" />
    <glyph glyph-name="Ntilde" unicode="&#xd1;" horiz-adv-x="546" 
d="M104 1604v176q29 43 84 43q24 0 57 -17.5t52 -17.5t45.5 21t36.5 38v-170q-30 -51 -82 -51q-24 0 -57.5 19.5t-53.5 19.5q-16 0 -43.5 -23t-38.5 -38zM311 0l-123 731v-731h-157v1505h143l123 -710v710h158v-1505h-144z" />
    <glyph glyph-name="Ograve" unicode="&#xd2;" horiz-adv-x="495" 
d="M55 1823h164l66 -185h-131zM430 1217v-928q0 -62 -10.5 -114t-33 -96.5t-64 -69.5t-97.5 -25q-57 0 -99 27t-64.5 72.5t-33 96.5t-10.5 109v928q0 84 18.5 149.5t67 110.5t121.5 45q58 0 100.5 -29.5t64 -78t31 -97.5t9.5 -100zM260 289v928q0 90 -33 90q-16 0 -25 -25.5
t-9 -64.5v-928q0 -40 10 -65t24 -25q15 0 24 26.5t9 63.5z" />
    <glyph glyph-name="Oacute" unicode="&#xd3;" horiz-adv-x="495" 
d="M217 1823h164l-98 -185h-131zM430 1217v-928q0 -62 -10.5 -114t-33 -96.5t-64 -69.5t-97.5 -25q-57 0 -99 27t-64.5 72.5t-33 96.5t-10.5 109v928q0 84 18.5 149.5t67 110.5t121.5 45q58 0 100.5 -29.5t64 -78t31 -97.5t9.5 -100zM260 289v928q0 90 -33 90
q-16 0 -25 -25.5t-9 -64.5v-928q0 -40 10 -65t24 -25q15 0 24 26.5t9 63.5z" />
    <glyph glyph-name="Ocircumflex" unicode="&#xd4;" horiz-adv-x="495" 
d="M141 1823h166l84 -185h-133l-35 80l-35 -80h-133zM430 1217v-928q0 -62 -10.5 -114t-33 -96.5t-64 -69.5t-97.5 -25q-57 0 -99 27t-64.5 72.5t-33 96.5t-10.5 109v928q0 84 18.5 149.5t67 110.5t121.5 45q58 0 100.5 -29.5t64 -78t31 -97.5t9.5 -100zM260 289v928
q0 90 -33 90q-16 0 -25 -25.5t-9 -64.5v-928q0 -40 10 -65t24 -25q15 0 24 26.5t9 63.5z" />
    <glyph glyph-name="Otilde" unicode="&#xd5;" horiz-adv-x="495" 
d="M80 1604v176q29 43 84 43q24 0 57 -17.5t51 -17.5q19 0 45.5 21t36.5 38v-170q-30 -51 -82 -51q-24 0 -57 19.5t-53 19.5q-16 0 -43.5 -23t-38.5 -38zM430 1217v-928q0 -62 -10.5 -114t-33 -96.5t-64 -69.5t-97.5 -25q-57 0 -99 27t-64.5 72.5t-33 96.5t-10.5 109v928
q0 84 18.5 149.5t67 110.5t121.5 45q58 0 100.5 -29.5t64 -78t31 -97.5t9.5 -100zM260 289v928q0 90 -33 90q-16 0 -25 -25.5t-9 -64.5v-928q0 -40 10 -65t24 -25q15 0 24 26.5t9 63.5z" />
    <glyph glyph-name="Odieresis" unicode="&#xd6;" horiz-adv-x="495" 
d="M51 1638v201h152v-201h-152zM250 1638v201h149v-201h-149zM430 1217v-928q0 -62 -10.5 -114t-33 -96.5t-64 -69.5t-97.5 -25q-57 0 -99 27t-64.5 72.5t-33 96.5t-10.5 109v928q0 84 18.5 149.5t67 110.5t121.5 45q58 0 100.5 -29.5t64 -78t31 -97.5t9.5 -100zM260 289
v928q0 90 -33 90q-16 0 -25 -25.5t-9 -64.5v-928q0 -40 10 -65t24 -25q15 0 24 26.5t9 63.5z" />
    <glyph glyph-name="Oslash" unicode="&#xd8;" horiz-adv-x="495" 
d="M436 1217v-928q0 -62 -10.5 -114t-33 -96.5t-64 -69.5t-97.5 -25q-50 0 -96 24l-6 -28h-98l24 129q-30 69 -30 180v928q0 62 11 114t34 96.5t64 69.5t97 25q51 0 97 -27l6 31h94l-25 -129q33 -75 33 -180zM266 1180v37q0 90 -33 90q-16 0 -25 -25.5t-9 -64.5v-381z
M199 338v-49q0 -40 10 -65t24 -25q15 0 24 26.5t9 63.5v399z" />
    <glyph glyph-name="Ugrave" unicode="&#xd9;" horiz-adv-x="512" 
d="M72 1823h164l63 -185h-131zM250 1505h170v-1216q0 -305 -201 -305q-203 0 -203 305v1216h170v-1216q0 -46 7 -68t26 -22q31 0 31 90v1216z" />
    <glyph glyph-name="Uacute" unicode="&#xda;" horiz-adv-x="512" 
d="M229 1823h164l-96 -185h-131zM250 1505h170v-1216q0 -305 -201 -305q-203 0 -203 305v1216h170v-1216q0 -46 7 -68t26 -22q31 0 31 90v1216z" />
    <glyph glyph-name="Ucircumflex" unicode="&#xdb;" horiz-adv-x="512" 
d="M131 1823h166l84 -185h-133l-35 80l-35 -80h-133zM250 1505h170v-1216q0 -305 -201 -305q-203 0 -203 305v1216h170v-1216q0 -46 7 -68t26 -22q31 0 31 90v1216z" />
    <glyph glyph-name="Udieresis" unicode="&#xdc;" horiz-adv-x="512" 
d="M43 1638v201h152v-201h-152zM242 1638v201h149v-201h-149zM250 1505h170v-1216q0 -305 -201 -305q-203 0 -203 305v1216h170v-1216q0 -46 7 -68t26 -22q31 0 31 90v1216z" />
    <glyph glyph-name="Yacute" unicode="&#xdd;" horiz-adv-x="483" 
d="M199 1823h163l-98 -185h-131zM164 1505l57 -438q9 71 30 217t30 221h168l-142 -864v-641h-170v641l-141 864h168z" />
    <glyph glyph-name="Thorn" unicode="&#xde;" horiz-adv-x="495" 
d="M31 0v1505h170v-241q98 -7 157 -95q76 -122 76 -356q0 -232 -76 -354q-62 -89 -157 -99v-360h-170zM201 1038v-452q36 8 47 41q18 37 18 178q0 144 -18 186q-15 40 -47 47z" />
    <glyph glyph-name="germandbls" unicode="&#xdf;" horiz-adv-x="514" 
d="M223 979v141q22 0 37.5 32t15.5 85q0 43 -15 71.5t-40 28.5q-45 0 -45 -102v-1235h-162v1235q0 76 20.5 139t69 105.5t117.5 42.5q57 0 98.5 -25.5t63.5 -69t31.5 -90.5t9.5 -100q0 -102 -59 -174q51 -54 71 -150q25 -122 25 -338q0 -356 -51 -475q-25 -58 -70 -79
t-117 -21v193q45 0 60 67q18 82 18 315q0 247 -18 332q-15 72 -60 72z" />
    <glyph glyph-name="agrave" unicode="&#xe0;" horiz-adv-x="471" 
d="M66 1489h163l64 -184h-131zM231 743v121q0 32 -7 63t-19 31q-13 0 -21 -32.5t-8 -61.5v-73h-156v67q0 67 18.5 128t63.5 106t109 45q59 0 100.5 -43t57.5 -99t14 -112v-688q0 -113 10 -195h-137q-5 8 -14.5 33.5t-10.5 34.5q-13 -35 -41 -59.5t-63 -24.5q-31 0 -54.5 23
t-35 53.5t-18 73t-8 70t-1.5 56.5q0 271 156 404q57 49 65 79zM229 254v260q-28 -36 -49.5 -110.5t-21.5 -141.5q0 -84 28 -84q19 0 31 22.5t12 53.5z" />
    <glyph glyph-name="aacute" unicode="&#xe1;" horiz-adv-x="471" 
d="M186 1489h164l-98 -184h-131zM231 743v121q0 32 -7 63t-19 31q-13 0 -21 -32.5t-8 -61.5v-73h-156v67q0 67 18.5 128t63.5 106t109 45q59 0 100.5 -43t57.5 -99t14 -112v-688q0 -113 10 -195h-137q-5 8 -14.5 33.5t-10.5 34.5q-13 -35 -41 -59.5t-63 -24.5
q-31 0 -54.5 23t-35 53.5t-18 73t-8 70t-1.5 56.5q0 271 156 404q57 49 65 79zM229 254v260q-28 -36 -49.5 -110.5t-21.5 -141.5q0 -84 28 -84q19 0 31 22.5t12 53.5z" />
    <glyph glyph-name="acircumflex" unicode="&#xe2;" horiz-adv-x="471" 
d="M123 1489h166l84 -184h-133l-35 79l-35 -79h-133zM231 743v121q0 32 -7 63t-19 31q-13 0 -21 -32.5t-8 -61.5v-73h-156v67q0 67 18.5 128t63.5 106t109 45q59 0 100.5 -43t57.5 -99t14 -112v-688q0 -113 10 -195h-137q-5 8 -14.5 33.5t-10.5 34.5q-13 -35 -41 -59.5
t-63 -24.5q-31 0 -54.5 23t-35 53.5t-18 73t-8 70t-1.5 56.5q0 271 156 404q57 49 65 79zM229 254v260q-28 -36 -49.5 -110.5t-21.5 -141.5q0 -84 28 -84q19 0 31 22.5t12 53.5z" />
    <glyph glyph-name="atilde" unicode="&#xe3;" horiz-adv-x="471" 
d="M66 1268v176q29 43 84 43q24 0 57 -17.5t51 -17.5q19 0 45.5 21t36.5 38v-170q-30 -51 -82 -51q-24 0 -57.5 19.5t-53.5 19.5q-16 0 -43 -22.5t-38 -38.5zM231 743v121q0 32 -7 63t-19 31q-13 0 -21 -32.5t-8 -61.5v-73h-156v67q0 67 18.5 128t63.5 106t109 45
q59 0 100.5 -43t57.5 -99t14 -112v-688q0 -113 10 -195h-137q-5 8 -14.5 33.5t-10.5 34.5q-13 -35 -41 -59.5t-63 -24.5q-31 0 -54.5 23t-35 53.5t-18 73t-8 70t-1.5 56.5q0 271 156 404q57 49 65 79zM229 254v260q-28 -36 -49.5 -110.5t-21.5 -141.5q0 -84 28 -84
q19 0 31 22.5t12 53.5z" />
    <glyph glyph-name="adieresis" unicode="&#xe4;" horiz-adv-x="471" 
d="M35 1305v200h151v-200h-151zM233 1305v200h150v-200h-150zM231 743v121q0 32 -7 63t-19 31q-13 0 -21 -32.5t-8 -61.5v-73h-156v67q0 67 18.5 128t63.5 106t109 45q59 0 100.5 -43t57.5 -99t14 -112v-688q0 -113 10 -195h-137q-5 8 -14.5 33.5t-10.5 34.5
q-13 -35 -41 -59.5t-63 -24.5q-31 0 -54.5 23t-35 53.5t-18 73t-8 70t-1.5 56.5q0 271 156 404q57 49 65 79zM229 254v260q-28 -36 -49.5 -110.5t-21.5 -141.5q0 -84 28 -84q19 0 31 22.5t12 53.5z" />
    <glyph glyph-name="aring" unicode="&#xe5;" horiz-adv-x="471" 
d="M96 1421q0 62 32.5 103t78.5 41q45 0 76.5 -41t31.5 -103t-31.5 -102.5t-76.5 -40.5q-46 0 -78.5 40.5t-32.5 102.5zM176 1421q0 -28 10 -46.5t21 -18.5q10 0 20.5 19t10.5 46t-10.5 45.5t-20.5 18.5q-11 0 -21 -18t-10 -46zM231 743v121q0 32 -7 63t-19 31
q-13 0 -21 -32.5t-8 -61.5v-73h-156v67q0 67 18.5 128t63.5 106t109 45q59 0 100.5 -43t57.5 -99t14 -112v-688q0 -113 10 -195h-137q-5 8 -14.5 33.5t-10.5 34.5q-13 -35 -41 -59.5t-63 -24.5q-31 0 -54.5 23t-35 53.5t-18 73t-8 70t-1.5 56.5q0 271 156 404q57 49 65 79z
M229 254v260q-28 -36 -49.5 -110.5t-21.5 -141.5q0 -84 28 -84q19 0 31 22.5t12 53.5z" />
    <glyph glyph-name="ae" unicode="&#xe6;" horiz-adv-x="681" 
d="M467 401h154v-141q0 -276 -203 -276q-79 0 -121 55q-20 -26 -55.5 -40.5t-73.5 -14.5q-47 0 -80.5 32t-48 81.5t-20 88.5t-5.5 74q0 271 156 404q58 50 66 79v121q0 31 -7.5 62.5t-19.5 31.5q-13 0 -21 -32.5t-8 -61.5v-73h-155v67q0 67 18.5 128t63 106t108.5 45
q57 0 102 -45q48 45 111 45q50 0 86 -17.5t56.5 -43.5t32 -66t15 -75t3.5 -79v-334h-224v-243q0 -41 7.5 -77t23.5 -36q39 0 39 113v122zM397 842v-158h70v158q0 114 -41 114q-29 0 -29 -114zM233 254v260q-28 -36 -49.5 -110.5t-21.5 -141.5q0 -84 28 -84q19 0 31 22.5
t12 53.5z" />
    <glyph glyph-name="ccedilla" unicode="&#xe7;" horiz-adv-x="448" 
d="M182 874v-616q0 -34 8.5 -61t22.5 -27q33 0 33 88v156h155v-129q-1 -47 -3 -78t-8 -69.5t-19 -63t-34 -47t-53.5 -33t-76.5 -10.5q-46 0 -81 21.5t-54.5 53.5t-31.5 76.5t-16 82t-4 77.5v530q1 55 9.5 104t28 99t59 79.5t94.5 29.5q38 0 68 -9.5t50 -24t34 -40t21.5 -48
t11 -57t4.5 -59.5t1 -63v-109h-155v147q0 82 -31 82q-13 0 -23 -25.5t-10 -56.5zM264 -111v-141l-26 -133h-101l25 133h-37v141h139z" />
    <glyph glyph-name="egrave" unicode="&#xe8;" horiz-adv-x="456" 
d="M45 1489h164l63 -184h-131zM248 401h153v-141q0 -276 -202 -276q-51 0 -88 25t-55.5 68t-27 89.5t-8.5 99.5v584q0 72 17.5 134t62 107.5t109.5 45.5q50 0 86 -17.5t56 -43.5t31.5 -66t15 -74.5t3.5 -79.5v-334h-223v-243q0 -41 7.5 -77t23.5 -36q39 0 39 113v122z
M178 842v-158h70v158q0 114 -41 114q-29 0 -29 -114z" />
    <glyph glyph-name="eacute" unicode="&#xe9;" horiz-adv-x="456" 
d="M205 1489h164l-99 -184h-131zM248 401h153v-141q0 -276 -202 -276q-51 0 -88 25t-55.5 68t-27 89.5t-8.5 99.5v584q0 72 17.5 134t62 107.5t109.5 45.5q50 0 86 -17.5t56 -43.5t31.5 -66t15 -74.5t3.5 -79.5v-334h-223v-243q0 -41 7.5 -77t23.5 -36q39 0 39 113v122z
M178 842v-158h70v158q0 114 -41 114q-29 0 -29 -114z" />
    <glyph glyph-name="ecircumflex" unicode="&#xea;" horiz-adv-x="456" 
d="M127 1489h166l84 -184h-133l-35 79l-35 -79h-133zM248 401h153v-141q0 -276 -202 -276q-51 0 -88 25t-55.5 68t-27 89.5t-8.5 99.5v584q0 72 17.5 134t62 107.5t109.5 45.5q50 0 86 -17.5t56 -43.5t31.5 -66t15 -74.5t3.5 -79.5v-334h-223v-243q0 -41 7.5 -77t23.5 -36
q39 0 39 113v122zM178 842v-158h70v158q0 114 -41 114q-29 0 -29 -114z" />
    <glyph glyph-name="edieresis" unicode="&#xeb;" horiz-adv-x="456" 
d="M37 1305v200h151v-200h-151zM236 1305v200h149v-200h-149zM248 401h153v-141q0 -276 -202 -276q-51 0 -88 25t-55.5 68t-27 89.5t-8.5 99.5v584q0 72 17.5 134t62 107.5t109.5 45.5q50 0 86 -17.5t56 -43.5t31.5 -66t15 -74.5t3.5 -79.5v-334h-223v-243q0 -41 7.5 -77
t23.5 -36q39 0 39 113v122zM178 842v-158h70v158q0 114 -41 114q-29 0 -29 -114z" />
    <glyph glyph-name="igrave" unicode="&#xec;" horiz-adv-x="284" 
d="M-37 1489h164l66 -184h-132zM193 0h-162v1120h162v-1120z" />
    <glyph glyph-name="iacute" unicode="&#xed;" horiz-adv-x="284" 
d="M94 1489h164l-96 -184h-131zM193 0h-162v1120h162v-1120z" />
    <glyph glyph-name="icircumflex" unicode="&#xee;" horiz-adv-x="284" 
d="M31 1489h166l84 -184h-134l-34 79l-35 -79h-133zM193 0h-162v1120h162v-1120z" />
    <glyph glyph-name="idieresis" unicode="&#xef;" horiz-adv-x="284" 
d="M-61 1305v200h151v-200h-151zM137 1305v200h150v-200h-150zM193 0h-162v1120h162v-1120z" />
    <glyph glyph-name="eth" unicode="&#xf0;" horiz-adv-x="464" 
d="M145 1407l86 131l33 -68l55 82l46 -90l-58 -88q86 -228 86 -446v-656q0 -47 -10 -94.5t-30.5 -92.5t-59 -73t-88.5 -28q-53 0 -92 27.5t-59 73.5t-29 94t-9 100v579q1 38 3 68t10.5 72.5t21.5 70t38.5 48t60.5 20.5q31 0 71 -35q-3 35 -20 127l-43 -64l-45 88l65 93
q-4 13 -12.5 27.5t-14.5 23.5t-6 10zM240 258v604q0 40 -9 67t-26 27q-15 0 -25 -36.5t-10 -57.5v-604q0 -38 9 -65t26 -27q13 0 24 32.5t11 59.5z" />
    <glyph glyph-name="ntilde" unicode="&#xf1;" 
d="M70 1276v176q29 43 84 43q24 0 57 -17.5t51 -17.5t44.5 21t37.5 39v-170q-31 -52 -82 -52q-24 0 -57 19.5t-53 19.5q-16 0 -43.5 -23t-38.5 -38zM193 883v-883h-162v1120h162v-57q16 25 49.5 49.5t58.5 24.5q36 0 60 -23.5t34 -62t13.5 -69t3.5 -64.5v-918h-160v885
q0 71 -31 71q-28 0 -28 -73z" />
    <glyph glyph-name="ograve" unicode="&#xf2;" horiz-adv-x="456" 
d="M43 1489h164l63 -184h-131zM399 848v-576q0 -139 -43 -213.5t-147 -74.5q-58 0 -97.5 25.5t-58.5 71t-26 92.5t-7 106v563q0 295 193 295q48 0 82.5 -15.5t54 -40t31 -64t15 -78t3.5 -91.5zM246 258v604q4 94 -35 94q-37 0 -37 -94v-604q-4 -92 35 -92q21 0 30 35t7 57z
" />
    <glyph glyph-name="oacute" unicode="&#xf3;" horiz-adv-x="456" 
d="M201 1489h164l-97 -184h-131zM399 848v-576q0 -139 -43 -213.5t-147 -74.5q-58 0 -97.5 25.5t-58.5 71t-26 92.5t-7 106v563q0 295 193 295q48 0 82.5 -15.5t54 -40t31 -64t15 -78t3.5 -91.5zM246 258v604q4 94 -35 94q-37 0 -37 -94v-604q-4 -92 35 -92q21 0 30 35t7 57
z" />
    <glyph glyph-name="ocircumflex" unicode="&#xf4;" horiz-adv-x="456" 
d="M127 1489h166l84 -184h-133l-35 79l-35 -79h-133zM399 848v-576q0 -139 -43 -213.5t-147 -74.5q-58 0 -97.5 25.5t-58.5 71t-26 92.5t-7 106v563q0 295 193 295q48 0 82.5 -15.5t54 -40t31 -64t15 -78t3.5 -91.5zM246 258v604q4 94 -35 94q-37 0 -37 -94v-604
q-4 -92 35 -92q21 0 30 35t7 57z" />
    <glyph glyph-name="otilde" unicode="&#xf5;" horiz-adv-x="456" 
d="M59 1274v176q29 43 84 43q24 0 57.5 -17.5t51.5 -17.5t44.5 21t37.5 39v-170q-31 -52 -82 -52q-24 0 -57.5 19.5t-53.5 19.5q-16 0 -43.5 -23t-38.5 -38zM399 848v-576q0 -139 -43 -213.5t-147 -74.5q-58 0 -97.5 25.5t-58.5 71t-26 92.5t-7 106v563q0 295 193 295
q48 0 82.5 -15.5t54 -40t31 -64t15 -78t3.5 -91.5zM246 258v604q4 94 -35 94q-37 0 -37 -94v-604q-4 -92 35 -92q21 0 30 35t7 57z" />
    <glyph glyph-name="odieresis" unicode="&#xf6;" horiz-adv-x="456" 
d="M37 1305v200h151v-200h-151zM236 1305v200h149v-200h-149zM399 848v-576q0 -139 -43 -213.5t-147 -74.5q-58 0 -97.5 25.5t-58.5 71t-26 92.5t-7 106v563q0 295 193 295q48 0 82.5 -15.5t54 -40t31 -64t15 -78t3.5 -91.5zM246 258v604q4 94 -35 94q-37 0 -37 -94v-604
q-4 -92 35 -92q21 0 30 35t7 57z" />
    <glyph glyph-name="oslash" unicode="&#xf8;" horiz-adv-x="468" 
d="M289 1126l14 70h88l-26 -129q41 -62 41 -219v-576q0 -139 -43.5 -213.5t-147.5 -74.5q-31 0 -61 10l-13 -70h-92l25 129q-47 69 -47 226v563q0 295 192 295q33 0 70 -11zM180 580l68 344q-6 32 -31 32q-37 0 -37 -94v-282zM252 487l-62 -307q10 -14 25 -14q21 0 30 35
t7 57v229z" />
    <glyph glyph-name="ugrave" unicode="&#xf9;" 
d="M51 1489h164l64 -184h-132zM242 238v882h161v-1120h-161v57q-16 -25 -50 -49t-59 -24q-110 0 -110 219v917h159v-884q0 -72 31 -72q29 0 29 74z" />
    <glyph glyph-name="uacute" unicode="&#xfa;" 
d="M211 1489h164l-99 -184h-131zM242 238v882h161v-1120h-161v57q-16 -25 -50 -49t-59 -24q-110 0 -110 219v917h159v-884q0 -72 31 -72q29 0 29 74z" />
    <glyph glyph-name="ucircumflex" unicode="&#xfb;" 
d="M127 1489h166l84 -184h-133l-35 79l-35 -79h-133zM242 238v882h161v-1120h-161v57q-16 -25 -50 -49t-59 -24q-110 0 -110 219v917h159v-884q0 -72 31 -72q29 0 29 74z" />
    <glyph glyph-name="udieresis" unicode="&#xfc;" 
d="M35 1305v200h151v-200h-151zM233 1305v200h150v-200h-150zM242 238v882h161v-1120h-161v57q-16 -25 -50 -49t-59 -24q-110 0 -110 219v917h159v-884q0 -72 31 -72q29 0 29 74z" />
    <glyph glyph-name="yacute" unicode="&#xfd;" horiz-adv-x="462" 
d="M195 1489h163l-96 -184h-131zM23 -395v182q48 -19 71 10q37 55 37 170l-135 1153h158l59 -661q5 78 26.5 332t26.5 329h160l-139 -1204q-11 -136 -58 -217q-35 -66 -91.5 -91.5t-114.5 -2.5z" />
    <glyph glyph-name="thorn" unicode="&#xfe;" horiz-adv-x="473" 
d="M29 -385v1890h161v-432q4 20 33 42t51 22q37 0 63 -20.5t39 -55.5t18 -69.5t5 -73.5v-715q0 -8 -0.5 -28.5t-0.5 -32t-1.5 -31.5t-4 -32.5t-6.5 -29t-11 -27t-16 -20t-22.5 -14t-29.5 -4.5q-36 0 -72 27t-45 50v-446h-161zM190 883v-627q0 -32 7.5 -55t21.5 -23
q29 0 29 78v627q0 30 -8 51.5t-21 21.5q-14 0 -21.5 -22.5t-7.5 -50.5z" />
    <glyph glyph-name="ydieresis" unicode="&#xff;" horiz-adv-x="442" 
d="M35 1305v200h151v-200h-151zM233 1305v200h150v-200h-150zM23 -395v182q48 -19 71 10q37 55 37 170l-135 1153h158l59 -661q5 78 26.5 332t26.5 329h160l-139 -1204q-11 -136 -58 -217q-35 -66 -91.5 -91.5t-114.5 -2.5z" />
    <glyph glyph-name="Amacron" unicode="&#x100;" horiz-adv-x="520" 
d="M94 1700v162h275v-162h-275zM160 0h-166l137 1505h199l135 -1505h-166l-23 307h-94zM262 541l-33 598l-30 -598h63z" />
    <glyph glyph-name="amacron" unicode="&#x101;" horiz-adv-x="471" 
d="M70 1315v162h274v-162h-274zM231 743v121q0 32 -7 63t-19 31q-13 0 -21 -32.5t-8 -61.5v-73h-156v67q0 67 18.5 128t63.5 106t109 45q59 0 100.5 -43t57.5 -99t14 -112v-688q0 -113 10 -195h-137q-5 8 -14.5 33.5t-10.5 34.5q-13 -35 -41 -59.5t-63 -24.5q-31 0 -54.5 23
t-35 53.5t-18 73t-8 70t-1.5 56.5q0 271 156 404q57 49 65 79zM229 254v260q-28 -36 -49.5 -110.5t-21.5 -141.5q0 -84 28 -84q19 0 31 22.5t12 53.5z" />
    <glyph glyph-name="Abreve" unicode="&#x102;" horiz-adv-x="520" 
d="M305 1894l80 -114q-64 -99 -152 -99q-46 0 -88 29t-63 70l84 116q3 -7 9 -18t24 -29t34 -18q15 0 33 15.5t28 31.5zM160 0h-166l137 1505h199l135 -1505h-166l-23 307h-94zM262 541l-33 598l-30 -598h63z" />
    <glyph glyph-name="abreve" unicode="&#x103;" horiz-adv-x="471" 
d="M281 1513l79 -114q-64 -99 -151 -99q-46 0 -88.5 29t-63.5 70l84 117q3 -7 9.5 -18t24.5 -29.5t34 -18.5q15 0 33 16t28 32zM231 743v121q0 32 -7 63t-19 31q-13 0 -21 -32.5t-8 -61.5v-73h-156v67q0 67 18.5 128t63.5 106t109 45q59 0 100.5 -43t57.5 -99t14 -112v-688
q0 -113 10 -195h-137q-5 8 -14.5 33.5t-10.5 34.5q-13 -35 -41 -59.5t-63 -24.5q-31 0 -54.5 23t-35 53.5t-18 73t-8 70t-1.5 56.5q0 271 156 404q57 49 65 79zM229 254v260q-28 -36 -49.5 -110.5t-21.5 -141.5q0 -84 28 -84q19 0 31 22.5t12 53.5z" />
    <glyph glyph-name="Aogonek" unicode="&#x104;" horiz-adv-x="520" 
d="M465 0h-59q-32 -54 -46 -102q-8 -27 -8 -68t12.5 -59.5t30.5 -18.5q15 0 70 41l-8 -153q-46 -25 -82 -25q-66 0 -105 50.5t-39 123.5q0 64 43 148q5 5 5 6q17 29 36 57h-16l-23 307h-94l-22 -307h-166l137 1505h199zM262 541l-33 598l-30 -598h63z" />
    <glyph glyph-name="aogonek" unicode="&#x105;" horiz-adv-x="471" 
d="M231 743v121q0 32 -7 63t-19 31q-13 0 -21 -32.5t-8 -61.5v-73h-156v67q0 67 18.5 128t63.5 106t109 45q59 0 100.5 -43t57.5 -99t14 -112v-688q0 -113 10 -195h-63q-30 -51 -45 -102q-9 -30 -9 -68q0 -41 12.5 -59.5t30.5 -18.5q15 0 70 41l-10 -153q-44 -25 -80 -25
q-66 0 -104.5 50.5t-38.5 123.5q0 75 41 148q37 59 59 63q-5 8 -14.5 33.5t-10.5 34.5q-13 -35 -41 -59.5t-63 -24.5q-31 0 -54.5 23t-35 53.5t-18 73t-8 70t-1.5 56.5q0 271 156 404q57 49 65 79zM229 254v260q-28 -36 -49.5 -110.5t-21.5 -141.5q0 -84 28 -84
q19 0 31 22.5t12 53.5z" />
    <glyph glyph-name="Cacute" unicode="&#x106;" horiz-adv-x="487" 
d="M164 1874h164l-99 -184h-129zM256 516h166v-227q0 -63 -10 -115t-32.5 -96t-63.5 -69t-97 -25q-57 0 -98.5 28t-62.5 75.5t-30.5 97t-9.5 104.5v928q0 54 10 104.5t32 97t63 75t96 28.5q58 0 100.5 -32t63 -82t30 -97.5t9.5 -93.5v-228h-166v228q0 90 -35 90
q-28 0 -28 -82v-936q0 -90 28 -90q35 0 35 90v227z" />
    <glyph glyph-name="cacute" unicode="&#x107;" horiz-adv-x="448" 
d="M143 1489h164l-96 -184h-131zM182 874v-616q0 -34 8.5 -61t22.5 -27q33 0 33 88v156h155v-129q-1 -47 -3 -78t-8 -69.5t-19 -63t-34 -47t-53.5 -33t-76.5 -10.5q-46 0 -81 21.5t-54.5 53.5t-31.5 76.5t-16 82t-4 77.5v530q1 55 9.5 104t28 99t59 79.5t94.5 29.5
q38 0 68 -9.5t50 -24t34 -40t21.5 -48t11 -57t4.5 -59.5t1 -63v-109h-155v147q0 82 -31 82q-13 0 -23 -25.5t-10 -56.5z" />
    <glyph glyph-name="Ccircumflex" unicode="&#x108;" horiz-adv-x="487" 
d="M131 1823h166l84 -185h-133l-35 80l-35 -80h-133zM256 516h166v-227q0 -63 -10 -115t-32.5 -96t-63.5 -69t-97 -25q-57 0 -98.5 28t-62.5 75.5t-30.5 97t-9.5 104.5v928q0 54 10 104.5t32 97t63 75t96 28.5q58 0 100.5 -32t63 -82t30 -97.5t9.5 -93.5v-228h-166v228
q0 90 -35 90q-28 0 -28 -82v-936q0 -90 28 -90q35 0 35 90v227z" />
    <glyph glyph-name="ccircumflex" unicode="&#x109;" horiz-adv-x="448" 
d="M129 1489h166l84 -184h-133l-35 79l-35 -79h-133zM182 874v-616q0 -34 8.5 -61t22.5 -27q33 0 33 88v156h155v-129q-1 -47 -3 -78t-8 -69.5t-19 -63t-34 -47t-53.5 -33t-76.5 -10.5q-46 0 -81 21.5t-54.5 53.5t-31.5 76.5t-16 82t-4 77.5v530q1 55 9.5 104t28 99t59 79.5
t94.5 29.5q38 0 68 -9.5t50 -24t34 -40t21.5 -48t11 -57t4.5 -59.5t1 -63v-109h-155v147q0 82 -31 82q-13 0 -23 -25.5t-10 -56.5z" />
    <glyph glyph-name="Cdotaccent" unicode="&#x10a;" horiz-adv-x="487" 
d="M133 1683v207h162v-207h-162zM256 516h166v-227q0 -63 -10 -115t-32.5 -96t-63.5 -69t-97 -25q-57 0 -98.5 28t-62.5 75.5t-30.5 97t-9.5 104.5v928q0 54 10 104.5t32 97t63 75t96 28.5q58 0 100.5 -32t63 -82t30 -97.5t9.5 -93.5v-228h-166v228q0 90 -35 90
q-28 0 -28 -82v-936q0 -90 28 -90q35 0 35 90v227z" />
    <glyph glyph-name="cdotaccent" unicode="&#x10b;" horiz-adv-x="448" 
d="M135 1298v207h160v-207h-160zM182 874v-616q0 -34 8.5 -61t22.5 -27q33 0 33 88v156h155v-129q-1 -47 -3 -78t-8 -69.5t-19 -63t-34 -47t-53.5 -33t-76.5 -10.5q-46 0 -81 21.5t-54.5 53.5t-31.5 76.5t-16 82t-4 77.5v530q1 55 9.5 104t28 99t59 79.5t94.5 29.5
q38 0 68 -9.5t50 -24t34 -40t21.5 -48t11 -57t4.5 -59.5t1 -63v-109h-155v147q0 82 -31 82q-13 0 -23 -25.5t-10 -56.5z" />
    <glyph glyph-name="Ccaron" unicode="&#x10c;" horiz-adv-x="487" 
d="M301 1690h-166l-86 184h133l35 -80l35 80h133zM256 516h166v-227q0 -63 -10 -115t-32.5 -96t-63.5 -69t-97 -25q-57 0 -98.5 28t-62.5 75.5t-30.5 97t-9.5 104.5v928q0 54 10 104.5t32 97t63 75t96 28.5q58 0 100.5 -32t63 -82t30 -97.5t9.5 -93.5v-228h-166v228
q0 90 -35 90q-28 0 -28 -82v-936q0 -90 28 -90q35 0 35 90v227z" />
    <glyph glyph-name="ccaron" unicode="&#x10d;" horiz-adv-x="448" 
d="M283 1305h-166l-86 184h133l35 -80l34 80h134zM182 874v-616q0 -34 8.5 -61t22.5 -27q33 0 33 88v156h155v-129q-1 -47 -3 -78t-8 -69.5t-19 -63t-34 -47t-53.5 -33t-76.5 -10.5q-46 0 -81 21.5t-54.5 53.5t-31.5 76.5t-16 82t-4 77.5v530q1 55 9.5 104t28 99t59 79.5
t94.5 29.5q38 0 68 -9.5t50 -24t34 -40t21.5 -48t11 -57t4.5 -59.5t1 -63v-109h-155v147q0 82 -31 82q-13 0 -23 -25.5t-10 -56.5z" />
    <glyph glyph-name="Dcaron" unicode="&#x10e;" horiz-adv-x="518" 
d="M307 1690h-166l-86 184h133l35 -80l35 80h133zM195 0h-164v1505h141q100 0 148.5 -34t76.5 -121q24 -80 31.5 -214t7.5 -384q0 -154 -0.5 -216t-3 -163t-9 -154.5t-17.5 -85.5q-22 -66 -69 -99.5t-142 -33.5zM201 1284v-1063h18t16.5 5.5t17.5 16.5t10 34.5t5 58.5v352
q0 72 0.5 164t0.5 138t-0.5 99t-2 86t-4.5 60q-1 13 -5 22t-7.5 14t-11.5 8t-11 3.5t-13.5 1t-12.5 0.5z" />
    <glyph glyph-name="dcaron" unicode="&#x10f;" horiz-adv-x="659" 
d="M381 1505v-1505h-162v27q-25 -25 -31 -29q-21 -14 -49 -14q-31 0 -55 21.5t-35 53.5q-22 56 -22 144v715q0 86 22 145q12 30 36 52t54 22q33 0 80 -41v409h162zM592 1505v-227l-68 -266h-98l51 266h-51v227h166zM219 246v628q0 24 -6 46t-12 22q-15 0 -15 -68v-628
q0 -68 15 -68q6 0 12 20t6 48z" />
    <glyph glyph-name="Dcroat" unicode="&#x110;" horiz-adv-x="518" 
d="M31 1505h141q100 0 148.5 -34t76.5 -121q24 -80 31.5 -214t7.5 -384q0 -154 -0.5 -216t-3 -163t-9 -154.5t-17.5 -85.5q-22 -66 -69 -99.5t-142 -33.5h-164v678h-72v162h72v665zM201 678v-457h18t16.5 5.5t17.5 16.5t10 34.5t5 58.5v352q0 72 0.5 164t0.5 138t-0.5 99
t-2 86t-4.5 60q-1 13 -5 22t-7.5 14t-11.5 8t-11 3.5t-13.5 1t-12.5 0.5v-444h32v-162h-32z" />
    <glyph glyph-name="dcroat" unicode="&#x111;" horiz-adv-x="473" 
d="M410 1417v-194h-29v-1223h-162v27q-25 -25 -31 -29q-21 -14 -49 -14q-31 0 -55 21.5t-35 53.5q-22 56 -22 144v715q0 86 22 145q12 30 36 52t54 22q33 0 80 -41v127h-24v194h24v88h162v-88h29zM219 246v628q0 24 -6 46t-12 22q-15 0 -15 -68v-628q0 -68 15 -68q6 0 12 20
t6 48z" />
    <glyph glyph-name="Emacron" unicode="&#x112;" horiz-adv-x="438" 
d="M53 1700v162h275v-162h-275zM31 0v1505h340v-227h-170v-395h123v-242h-123v-414h170v-227h-340z" />
    <glyph glyph-name="emacron" unicode="&#x113;" horiz-adv-x="456" 
d="M76 1315v162h274v-162h-274zM248 401h153v-141q0 -276 -202 -276q-51 0 -88 25t-55.5 68t-27 89.5t-8.5 99.5v584q0 72 17.5 134t62 107.5t109.5 45.5q50 0 86 -17.5t56 -43.5t31.5 -66t15 -74.5t3.5 -79.5v-334h-223v-243q0 -41 7.5 -77t23.5 -36q39 0 39 113v122z
M178 842v-158h70v158q0 114 -41 114q-29 0 -29 -114z" />
    <glyph glyph-name="Ebreve" unicode="&#x114;" horiz-adv-x="438" 
d="M262 1901l80 -119q-27 -48 -86 -80h2q-22 -14 -68 -14q-67 0 -114 47q-30 34 -37 47l84 121q33 -61 45 -66q12 -6 22 -6q19 0 41 22zM31 0v1505h340v-227h-170v-395h123v-242h-123v-414h170v-227h-340z" />
    <glyph glyph-name="ebreve" unicode="&#x115;" horiz-adv-x="456" 
d="M285 1516l80 -115q-64 -98 -152 -98q-46 0 -88.5 28.5t-63.5 69.5l84 117q3 -7 9.5 -18t24.5 -29.5t34 -18.5q15 0 33 16t28 32zM248 401h153v-141q0 -276 -202 -276q-51 0 -88 25t-55.5 68t-27 89.5t-8.5 99.5v584q0 72 17.5 134t62 107.5t109.5 45.5q50 0 86 -17.5
t56 -43.5t31.5 -66t15 -74.5t3.5 -79.5v-334h-223v-243q0 -41 7.5 -77t23.5 -36q39 0 39 113v122zM178 842v-158h70v158q0 114 -41 114q-29 0 -29 -114z" />
    <glyph glyph-name="Edotaccent" unicode="&#x116;" horiz-adv-x="438" 
d="M109 1683v207h161v-207h-161zM31 0v1505h340v-227h-170v-395h123v-242h-123v-414h170v-227h-340z" />
    <glyph glyph-name="edotaccent" unicode="&#x117;" horiz-adv-x="456" 
d="M133 1298v207h162v-207h-162zM248 401h153v-141q0 -276 -202 -276q-51 0 -88 25t-55.5 68t-27 89.5t-8.5 99.5v584q0 72 17.5 134t62 107.5t109.5 45.5q50 0 86 -17.5t56 -43.5t31.5 -66t15 -74.5t3.5 -79.5v-334h-223v-243q0 -41 7.5 -77t23.5 -36q39 0 39 113v122z
M178 842v-158h70v158q0 114 -41 114q-29 0 -29 -114z" />
    <glyph glyph-name="Eogonek" unicode="&#x118;" horiz-adv-x="438" 
d="M371 0h-60q-26 -37 -43 -102q-8 -27 -8 -68t12.5 -59.5t30.5 -18.5q15 0 70 41l-11 -153q-46 -25 -81 -25q-66 0 -105 50.5t-39 123.5q0 64 43 148q4 4 4 6q21 31 41 57h-194v1505h340v-227h-170v-395h123v-242h-123v-414h170v-227z" />
    <glyph glyph-name="eogonek" unicode="&#x119;" horiz-adv-x="456" 
d="M248 401h153v-141q0 -209 -116 -260h37q-33 -53 -46 -102q-8 -27 -8 -68t12.5 -59.5t30.5 -18.5q15 0 70 41l-10 -153q-44 -25 -80 -25q-66 0 -106 51t-40 123q0 64 43 148q4 10 29 47h-18h-9q-49 2 -84 28t-53 68.5t-25.5 88t-7.5 97.5v584q0 72 17.5 134t62 107.5
t109.5 45.5q50 0 86 -17.5t56 -43.5t31.5 -66t15 -74.5t3.5 -79.5v-334h-223v-243q0 -41 7.5 -77t23.5 -36q39 0 39 113v122zM178 842v-158h70v158q0 114 -41 114q-29 0 -29 -114z" />
    <glyph glyph-name="Ecaron" unicode="&#x11a;" horiz-adv-x="438" 
d="M283 1690h-166l-86 184h133l35 -80l34 80h134zM31 0v1505h340v-227h-170v-395h123v-242h-123v-414h170v-227h-340z" />
    <glyph glyph-name="ecaron" unicode="&#x11b;" horiz-adv-x="456" 
d="M293 1305h-166l-86 184h133l35 -80l35 80h133zM248 401h153v-141q0 -276 -202 -276q-51 0 -88 25t-55.5 68t-27 89.5t-8.5 99.5v584q0 72 17.5 134t62 107.5t109.5 45.5q50 0 86 -17.5t56 -43.5t31.5 -66t15 -74.5t3.5 -79.5v-334h-223v-243q0 -41 7.5 -77t23.5 -36
q39 0 39 113v122zM178 842v-158h70v158q0 114 -41 114q-29 0 -29 -114z" />
    <glyph glyph-name="Gcircumflex" unicode="&#x11c;" horiz-adv-x="503" 
d="M137 1823h166l84 -185h-133l-35 80l-35 -80h-133zM424 965h-170v252q0 90 -33 90q-16 0 -23.5 -28t-7.5 -62v-947q0 -90 35 -90q41 0 41 90v293h-37v187h195v-750h-88l-19 55q-13 -27 -48.5 -49t-63.5 -22q-43 0 -77.5 22t-54.5 54.5t-33 75.5t-17.5 80.5t-4.5 72.5v928
q0 54 10.5 105t33 97.5t63.5 74.5t96 28q47 0 84 -20.5t58.5 -52t36 -73.5t19.5 -80.5t5 -78.5v-252z" />
    <glyph glyph-name="gcircumflex" unicode="&#x11d;" horiz-adv-x="481" 
d="M127 1489h166l84 -184h-133l-35 79l-35 -79h-133zM391 879v-338q-2 -48 -14 -94t-34.5 -88.5t-61 -68.5t-88.5 -26h-11q-12 -20 -12 -49q0 -27 25.5 -44.5t56.5 -25.5q88 -23 123 -63q63 -77 63 -197q0 -59 -13 -108.5t-39.5 -90.5t-72 -64t-106.5 -23
q-104 0 -160.5 58.5t-56.5 158.5q0 92 106 170h2q-88 43 -88 149q0 43 24.5 90t59.5 78q-78 119 -78 244v305q1 48 11.5 95.5t31 91.5t58 71t86.5 27q88 0 127 -70q60 70 129 70v-185q-59 0 -76 -24q8 -16 8 -49zM233 537v317q0 102 -30 102q-14 0 -20.5 -32t-6.5 -70v-317
q0 -36 6.5 -68.5t20.5 -32.5q30 0 30 101zM231 -72l-49 17q-37 -41 -37 -95q0 -34 16 -55.5t48 -21.5q33 0 54.5 22t21.5 53q0 60 -54 80z" />
    <glyph glyph-name="Gbreve" unicode="&#x11e;" horiz-adv-x="503" 
d="M295 1898l80 -114q-64 -98 -152 -98q-46 0 -88 28.5t-63 69.5l84 117q3 -7 9 -18t24 -29.5t34 -18.5q15 0 33 15.5t28 31.5zM424 965h-170v252q0 90 -33 90q-16 0 -23.5 -28t-7.5 -62v-947q0 -90 35 -90q41 0 41 90v293h-37v187h195v-750h-88l-19 55q-13 -27 -48.5 -49
t-63.5 -22q-43 0 -77.5 22t-54.5 54.5t-33 75.5t-17.5 80.5t-4.5 72.5v928q0 54 10.5 105t33 97.5t63.5 74.5t96 28q47 0 84 -20.5t58.5 -52t36 -73.5t19.5 -80.5t5 -78.5v-252z" />
    <glyph glyph-name="gbreve" unicode="&#x11f;" horiz-adv-x="481" 
d="M291 1516l80 -115q-64 -98 -152 -98q-46 0 -88 28.5t-63 69.5l84 117q3 -7 9 -18t24 -29.5t34 -18.5q15 0 33 16t28 32zM391 879v-338q-2 -48 -14 -94t-34.5 -88.5t-61 -68.5t-88.5 -26h-11q-12 -20 -12 -49q0 -27 25.5 -44.5t56.5 -25.5q88 -23 123 -63q63 -77 63 -197
q0 -59 -13 -108.5t-39.5 -90.5t-72 -64t-106.5 -23q-104 0 -160.5 58.5t-56.5 158.5q0 92 106 170h2q-88 43 -88 149q0 43 24.5 90t59.5 78q-78 119 -78 244v305q1 48 11.5 95.5t31 91.5t58 71t86.5 27q88 0 127 -70q60 70 129 70v-185q-59 0 -76 -24q8 -16 8 -49zM233 537
v317q0 102 -30 102q-14 0 -20.5 -32t-6.5 -70v-317q0 -36 6.5 -68.5t20.5 -32.5q30 0 30 101zM231 -72l-49 17q-37 -41 -37 -95q0 -34 16 -55.5t48 -21.5q33 0 54.5 22t21.5 53q0 60 -54 80z" />
    <glyph glyph-name="Gdotaccent" unicode="&#x120;" horiz-adv-x="503" 
d="M143 1683v207h160v-207h-160zM424 965h-170v252q0 90 -33 90q-16 0 -23.5 -28t-7.5 -62v-947q0 -90 35 -90q41 0 41 90v293h-37v187h195v-750h-88l-19 55q-13 -27 -48.5 -49t-63.5 -22q-43 0 -77.5 22t-54.5 54.5t-33 75.5t-17.5 80.5t-4.5 72.5v928q0 54 10.5 105
t33 97.5t63.5 74.5t96 28q47 0 84 -20.5t58.5 -52t36 -73.5t19.5 -80.5t5 -78.5v-252z" />
    <glyph glyph-name="gdotaccent" unicode="&#x121;" horiz-adv-x="481" 
d="M131 1298v207h162v-207h-162zM391 879v-338q-2 -48 -14 -94t-34.5 -88.5t-61 -68.5t-88.5 -26h-11q-12 -20 -12 -49q0 -27 25.5 -44.5t56.5 -25.5q88 -23 123 -63q63 -77 63 -197q0 -59 -13 -108.5t-39.5 -90.5t-72 -64t-106.5 -23q-104 0 -160.5 58.5t-56.5 158.5
q0 92 106 170h2q-88 43 -88 149q0 43 24.5 90t59.5 78q-78 119 -78 244v305q1 48 11.5 95.5t31 91.5t58 71t86.5 27q88 0 127 -70q60 70 129 70v-185q-59 0 -76 -24q8 -16 8 -49zM233 537v317q0 102 -30 102q-14 0 -20.5 -32t-6.5 -70v-317q0 -36 6.5 -68.5t20.5 -32.5
q30 0 30 101zM231 -72l-49 17q-37 -41 -37 -95q0 -34 16 -55.5t48 -21.5q33 0 54.5 22t21.5 53q0 60 -54 80z" />
    <glyph glyph-name="Gcommaaccent" unicode="&#x122;" horiz-adv-x="503" 
d="M424 965h-170v252q0 90 -33 90q-16 0 -23.5 -28t-7.5 -62v-947q0 -90 35 -90q41 0 41 90v293h-37v187h195v-750h-88l-19 55q-13 -27 -48.5 -49t-63.5 -22q-43 0 -77.5 22t-54.5 54.5t-33 75.5t-17.5 80.5t-4.5 72.5v928q0 54 10.5 105t33 97.5t63.5 74.5t96 28
q47 0 84 -20.5t58.5 -52t36 -73.5t19.5 -80.5t5 -78.5v-252zM283 -111v-141l-27 -133h-100l32 133h-45v141h140z" />
    <glyph glyph-name="gcommaaccent" unicode="&#x123;" horiz-adv-x="481" 
d="M131 1397v227l68 266h98l-43 -266h43v-227h-166zM391 879v-338q-2 -48 -14 -94t-34.5 -88.5t-61 -68.5t-88.5 -26h-11q-12 -20 -12 -49q0 -27 25.5 -44.5t56.5 -25.5q88 -23 123 -63q63 -77 63 -197q0 -59 -13 -108.5t-39.5 -90.5t-72 -64t-106.5 -23q-104 0 -160.5 58.5
t-56.5 158.5q0 92 106 170h2q-88 43 -88 149q0 43 24.5 90t59.5 78q-78 119 -78 244v305q1 48 11.5 95.5t31 91.5t58 71t86.5 27q88 0 127 -70q60 70 129 70v-185q-59 0 -76 -24q8 -16 8 -49zM233 537v317q0 102 -30 102q-14 0 -20.5 -32t-6.5 -70v-317q0 -36 6.5 -68.5
t20.5 -32.5q30 0 30 101zM231 -72l-49 17q-37 -41 -37 -95q0 -34 16 -55.5t48 -21.5q33 0 54.5 22t21.5 53q0 60 -54 80z" />
    <glyph glyph-name="Hcircumflex" unicode="&#x124;" horiz-adv-x="528" 
d="M154 1823h165l84 -185h-133l-34 80l-35 -80h-133zM266 0v655h-65v-655h-170v1505h170v-622h65v622h170v-1505h-170z" />
    <glyph glyph-name="hcircumflex" unicode="&#x125;" 
d="M207 1346l-14 -37v-234q5 21 33.5 41.5t54.5 20.5q36 0 61 -23.5t36.5 -61.5t16 -70t4.5 -64v-918h-153v883q0 73 -27 73q-26 0 -26 -73v-883h-162v1505h162v-16h100l84 -184h-148z" />
    <glyph glyph-name="Hbar" unicode="&#x126;" horiz-adv-x="528" 
d="M485 1284v-162h-49v-1122h-170v655h-65v-655h-170v1122h-47v162h47v221h170v-221h65v221h170v-221h49zM266 883v239h-65v-239h65z" />
    <glyph glyph-name="hbar" unicode="&#x127;" 
d="M193 883v-883h-162v1253h-47v162h47v90h162v-90h67v-162h-67v-178q5 21 33.5 41.5t54.5 20.5q36 0 61 -23.5t36.5 -61.5t16 -70t4.5 -64v-918h-153v883q0 73 -27 73q-26 0 -26 -73z" />
    <glyph glyph-name="Itilde" unicode="&#x128;" horiz-adv-x="292" 
d="M-20 1659v176q29 43 83 43q25 0 58 -17.5t51 -17.5t44.5 21t37.5 39v-170q-31 -52 -82 -52q-24 0 -57.5 19.5t-53.5 19.5q-16 0 -43 -22.5t-38 -38.5zM31 0v1505h170v-1505h-170z" />
    <glyph glyph-name="itilde" unicode="&#x129;" horiz-adv-x="284" 
d="M-25 1276v176q29 43 84 43q24 0 57.5 -17.5t51.5 -17.5t44.5 21t37.5 39v-170q-31 -52 -82 -52q-24 0 -57.5 19.5t-53.5 19.5q-16 0 -43.5 -23t-38.5 -38zM193 0h-162v1120h162v-1120z" />
    <glyph glyph-name="Imacron" unicode="&#x12a;" horiz-adv-x="292" 
d="M-20 1700v162h274v-162h-274zM31 0v1505h170v-1505h-170z" />
    <glyph glyph-name="imacron" unicode="&#x12b;" horiz-adv-x="284" 
d="M-25 1315v162h275v-162h-275zM193 0h-162v1120h162v-1120z" />
    <glyph glyph-name="Ibreve" unicode="&#x12c;" horiz-adv-x="292" 
d="M188 1901l80 -115q-64 -98 -151 -98q-46 0 -88.5 28.5t-63.5 69.5l84 117q3 -7 9.5 -18t24.5 -29.5t34 -18.5q15 0 32.5 16t28.5 32zM31 0v1505h170v-1505h-170z" />
    <glyph glyph-name="ibreve" unicode="&#x12d;" horiz-adv-x="284" 
d="M190 1516l80 -115q-64 -98 -151 -98q-46 0 -88.5 28.5t-63.5 69.5l84 117q3 -7 9.5 -18t24.5 -29.5t34 -18.5q15 0 32.5 16t28.5 32zM193 0h-162v1120h162v-1120z" />
    <glyph glyph-name="Iogonek" unicode="&#x12e;" horiz-adv-x="292" 
d="M201 0h-60q-30 -51 -45 -102q-8 -27 -8 -68t12.5 -59.5t30.5 -18.5q15 0 70 41l-8 -153q-46 -25 -82 -25q-66 0 -105 50.5t-39 123.5q0 64 43 148q4 4 4 6q12 21 37 57h-20v1505h170v-1505z" />
    <glyph glyph-name="iogonek" unicode="&#x12f;" horiz-adv-x="284" 
d="M193 1505v-207h-162v207h162zM193 0h-23q-30 -51 -45 -102q-8 -27 -8 -68t12.5 -59.5t30.5 -18.5q14 0 69 41l-10 -153q-44 -25 -80 -25q-66 0 -104.5 50.5t-38.5 123.5q0 68 41 148l8 12q17 25 37 51h-51v1120h162v-1120z" />
    <glyph glyph-name="Idotaccent" unicode="&#x130;" horiz-adv-x="292" 
d="M37 1683v207h162v-207h-162zM31 0v1505h170v-1505h-170z" />
    <glyph glyph-name="dotlessi" unicode="&#x131;" horiz-adv-x="284" 
d="M193 0h-162v1120h162v-1120z" />
    <glyph glyph-name="IJ" unicode="&#x132;" horiz-adv-x="546" 
d="M31 0v1505h170v-1505h-170zM238 -12v221q75 -15 75 104v1192h170v-1226q0 -69 -11.5 -122t-38 -95t-76 -61.5t-119.5 -12.5z" />
    <glyph glyph-name="ij" unicode="&#x133;" horiz-adv-x="501" 
d="M31 1298v207h162v-207h-162zM252 1298v207h162v-207h-162zM193 0h-162v1120h162v-1120zM252 1120h162v-1149q0 -143 -19 -221q-15 -59 -51.5 -97t-91.5 -38q-37 0 -72 16l4 187q13 -4 23 -4.5t17 3t12 9.5t8 14t5 17.5t2.5 19.5t0.5 20v19v10v1194z" />
    <glyph glyph-name="Jcircumflex" unicode="&#x134;" horiz-adv-x="315" 
d="M57 1823h166l84 -185h-133l-35 80l-35 -80h-133zM-14 -12v221q75 -15 75 104v1192h170v-1226q0 -69 -11.5 -122t-38 -95t-76 -61.5t-119.5 -12.5z" />
    <glyph glyph-name="jcircumflex" unicode="&#x135;" horiz-adv-x="280" 
d="M279 1321h-91v-23h-161v23h-84l84 184h166zM190 1120h-161v-1194q0 -70 -10 -90q-15 -32 -58 -18l-4 -187q35 -16 72 -16q55 0 91.5 38t51.5 97q18 74 18 221v1149z" />
    <glyph glyph-name="Kcommaaccent" unicode="&#x136;" horiz-adv-x="522" 
d="M31 1505h164v-432l110 432h166l-149 -551l145 -954h-166l-106 717v-717h-164v1505zM283 -111v-141l-27 -133h-100l24 133h-37v141h140z" />
    <glyph glyph-name="kcommaaccent" unicode="&#x137;" horiz-adv-x="446" 
d="M31 1505h155v-618l76 233h156l-137 -385l133 -735h-156l-72 475v-475h-155v1505zM283 -111v-141l-27 -133h-100l24 133h-37v141h140z" />
    <glyph glyph-name="kgreenlandic" unicode="&#x138;" horiz-adv-x="446" 
d="M31 1505h155v-618l76 233h156l-137 -385l133 -735h-156l-72 475v-475h-155v1505z" />
    <glyph glyph-name="Lacute" unicode="&#x139;" horiz-adv-x="423" 
d="M131 1874h164l-96 -184h-131zM31 0v1505h170v-1300h176v-205h-346z" />
    <glyph glyph-name="lacute" unicode="&#x13a;" horiz-adv-x="284" 
d="M61 1716h164l-96 -184h-131zM193 0h-162v1505h162v-1505z" />
    <glyph glyph-name="Lcommaaccent" unicode="&#x13b;" horiz-adv-x="423" 
d="M31 0v1505h170v-1300h176v-205h-346zM283 -111v-141l-27 -133h-100l24 133h-37v141h140z" />
    <glyph glyph-name="lcommaaccent" unicode="&#x13c;" horiz-adv-x="284" 
d="M193 0h-162v1505h162v-1505zM184 -96v-142l-26 -133h-101l25 133h-37v142h139z" />
    <glyph glyph-name="Lcaron" unicode="&#x13d;" horiz-adv-x="485" 
d="M434 1737v-228l-67 -266h-99l43 266h-43v228h166zM31 0v1505h170v-1300h176v-205h-346z" />
    <glyph glyph-name="lcaron" unicode="&#x13e;" horiz-adv-x="468" 
d="M193 0h-162v1505h162v-1505zM434 1505v-227l-67 -266h-99l43 266h-43v227h166z" />
    <glyph glyph-name="Ldot" unicode="&#x13f;" horiz-adv-x="456" 
d="M31 0v1505h170v-1300h176v-205h-346zM252 674v227h166v-227h-166z" />
    <glyph glyph-name="ldot" unicode="&#x140;" horiz-adv-x="456" 
d="M193 0h-162v1505h162v-1505zM254 649v228h166v-228h-166z" />
    <glyph glyph-name="Lslash" unicode="&#x141;" horiz-adv-x="438" 
d="M-2 512v270l49 62h-2v661h170v-454l72 94v-262l-74 -99h2v-579h176v-205h-346v580z" />
    <glyph glyph-name="lslash" unicode="&#x142;" horiz-adv-x="342" 
d="M221 0h-162v594q-9 -12 -30.5 -40t-28.5 -38v262l61 82h-2v645h162v-438q9 12 31 40t29 38v-262l-62 -82h2v-801z" />
    <glyph glyph-name="Nacute" unicode="&#x143;" horiz-adv-x="546" 
d="M193 1874h163l-96 -184h-131zM311 0l-123 731v-731h-157v1505h143l123 -710v710h158v-1505h-144z" />
    <glyph glyph-name="nacute" unicode="&#x144;" 
d="M158 1489h164l-99 -184h-129zM193 883v-883h-162v1120h162v-57q16 25 49.5 49.5t58.5 24.5q36 0 60 -23.5t34 -62t13.5 -69t3.5 -64.5v-918h-160v885q0 71 -31 71q-28 0 -28 -73z" />
    <glyph glyph-name="Ncommaaccent" unicode="&#x145;" horiz-adv-x="546" 
d="M311 0l-123 731v-731h-157v1505h143l123 -710v710h158v-1505h-144zM283 -111v-141l-27 -133h-100l24 133h-37v141h140z" />
    <glyph glyph-name="ncommaaccent" unicode="&#x146;" 
d="M193 883v-883h-162v1120h162v-57q16 25 49.5 49.5t58.5 24.5q36 0 60 -23.5t34 -62t13.5 -69t3.5 -64.5v-918h-160v885q0 71 -31 71q-28 0 -28 -73zM283 -111v-141l-27 -133h-100l24 133h-37v141h140z" />
    <glyph glyph-name="Ncaron" unicode="&#x147;" horiz-adv-x="546" 
d="M328 1690h-166l-86 184h133l35 -80l35 80h133zM311 0l-123 731v-731h-157v1505h143l123 -710v710h158v-1505h-144z" />
    <glyph glyph-name="ncaron" unicode="&#x148;" 
d="M289 1305h-166l-86 184h133l35 -80l35 80h133zM193 883v-883h-162v1120h162v-57q16 25 49.5 49.5t58.5 24.5q36 0 60 -23.5t34 -62t13.5 -69t3.5 -64.5v-918h-160v885q0 71 -31 71q-28 0 -28 -73z" />
    <glyph glyph-name="napostrophe" unicode="&#x149;" 
d="M125 1442v-142l-29 -133h-98l25 133h-39v142h141zM193 883v-883h-162v1120h162v-57q16 25 49.5 49.5t58.5 24.5q36 0 60 -23.5t34 -62t13.5 -69t3.5 -64.5v-918h-160v885q0 71 -31 71q-28 0 -28 -73z" />
    <glyph glyph-name="Eng" unicode="&#x14a;" horiz-adv-x="546" 
d="M297 1505h158v-1505q-3 -103 -37 -172q-46 -91 -170 -74v213q34 -11 51 33l-111 721v-721h-157v1505h145l121 -714v714z" />
    <glyph glyph-name="eng" unicode="&#x14b;" 
d="M193 883v-883h-162v1120h162v-57q16 25 49.5 49.5t58.5 24.5q36 0 60 -23.5t34 -62t13.5 -69t3.5 -64.5v-957q0 -104 -43 -166q-52 -76 -183 -65v178q41 -9 60 20h-2q8 20 8 60v899q0 69 -31 69q-28 0 -28 -73z" />
    <glyph glyph-name="Omacron" unicode="&#x14c;" horiz-adv-x="495" 
d="M82 1700v162h274v-162h-274zM430 1217v-928q0 -62 -10.5 -114t-33 -96.5t-64 -69.5t-97.5 -25q-57 0 -99 27t-64.5 72.5t-33 96.5t-10.5 109v928q0 84 18.5 149.5t67 110.5t121.5 45q58 0 100.5 -29.5t64 -78t31 -97.5t9.5 -100zM260 289v928q0 90 -33 90
q-16 0 -25 -25.5t-9 -64.5v-928q0 -40 10 -65t24 -25q15 0 24 26.5t9 63.5z" />
    <glyph glyph-name="omacron" unicode="&#x14d;" horiz-adv-x="456" 
d="M61 1315v162h275v-162h-275zM399 848v-576q0 -139 -43 -213.5t-147 -74.5q-58 0 -97.5 25.5t-58.5 71t-26 92.5t-7 106v563q0 295 193 295q48 0 82.5 -15.5t54 -40t31 -64t15 -78t3.5 -91.5zM246 258v604q4 94 -35 94q-37 0 -37 -94v-604q-4 -92 35 -92q21 0 30 35t7 57z
" />
    <glyph glyph-name="Obreve" unicode="&#x14e;" horiz-adv-x="495" 
d="M291 1901l80 -115q-64 -98 -152 -98q-46 0 -88 28.5t-63 69.5l84 117q3 -7 9 -18t24 -29.5t34 -18.5q15 0 33 16t28 32zM430 1217v-928q0 -62 -10.5 -114t-33 -96.5t-64 -69.5t-97.5 -25q-57 0 -99 27t-64.5 72.5t-33 96.5t-10.5 109v928q0 84 18.5 149.5t67 110.5
t121.5 45q58 0 100.5 -29.5t64 -78t31 -97.5t9.5 -100zM260 289v928q0 90 -33 90q-16 0 -25 -25.5t-9 -64.5v-928q0 -40 10 -65t24 -25q15 0 24 26.5t9 63.5z" />
    <glyph glyph-name="obreve" unicode="&#x14f;" horiz-adv-x="456" 
d="M270 1516l80 -115q-64 -98 -151 -98q-46 0 -88.5 28.5t-63.5 69.5l84 117q3 -7 9.5 -18t24.5 -29.5t34 -18.5q15 0 32.5 16t28.5 32zM399 848v-576q0 -139 -43 -213.5t-147 -74.5q-58 0 -97.5 25.5t-58.5 71t-26 92.5t-7 106v563q0 295 193 295q48 0 82.5 -15.5t54 -40
t31 -64t15 -78t3.5 -91.5zM246 258v604q4 94 -35 94q-37 0 -37 -94v-604q-4 -92 35 -92q21 0 30 35t7 57z" />
    <glyph glyph-name="Ohungarumlaut" unicode="&#x150;" horiz-adv-x="495" 
d="M78 1874h164l-99 -184h-129zM301 1874h164l-98 -184h-131zM430 1217v-928q0 -62 -10.5 -114t-33 -96.5t-64 -69.5t-97.5 -25q-57 0 -99 27t-64.5 72.5t-33 96.5t-10.5 109v928q0 84 18.5 149.5t67 110.5t121.5 45q58 0 100.5 -29.5t64 -78t31 -97.5t9.5 -100zM260 289
v928q0 90 -33 90q-16 0 -25 -25.5t-9 -64.5v-928q0 -40 10 -65t24 -25q15 0 24 26.5t9 63.5z" />
    <glyph glyph-name="ohungarumlaut" unicode="&#x151;" horiz-adv-x="456" 
d="M57 1489h164l-98 -184h-131zM279 1489h163l-96 -184h-131zM399 848v-576q0 -139 -43 -213.5t-147 -74.5q-58 0 -97.5 25.5t-58.5 71t-26 92.5t-7 106v563q0 295 193 295q48 0 82.5 -15.5t54 -40t31 -64t15 -78t3.5 -91.5zM246 258v604q4 94 -35 94q-37 0 -37 -94v-604
q-4 -92 35 -92q21 0 30 35t7 57z" />
    <glyph glyph-name="OE" unicode="&#x152;" horiz-adv-x="651" 
d="M604 0h-377q-204 10 -204 309v887q0 309 204 309h377v-227h-170v-395h123v-242h-123v-414h170v-227zM264 309v887q0 29 -9.5 70t-27.5 41q-14 0 -24 -40.5t-10 -70.5v-887q0 -43 9.5 -76.5t24.5 -33.5q20 0 28.5 41t8.5 69z" />
    <glyph glyph-name="oe" unicode="&#x153;" horiz-adv-x="659" 
d="M479 401h154v-141q0 -276 -203 -276q-63 0 -102 36q-45 -36 -117 -36q-47 0 -81.5 18t-54.5 45.5t-32 68t-16 78.5t-4 85v563q0 295 192 295q77 0 121 -41q44 41 104 41q50 0 86 -17.5t56.5 -43.5t32 -66t15 -75t3.5 -79v-334h-223v-243q0 -42 7 -77.5t23 -35.5
q39 0 39 113v122zM248 258v604q4 94 -35 94q-37 0 -37 -94v-604q-4 -92 35 -92q21 0 30 35t7 57zM410 842v-158h69v158q0 114 -41 114q-28 0 -28 -114z" />
    <glyph glyph-name="Racute" unicode="&#x154;" horiz-adv-x="505" 
d="M172 1874h164l-96 -184h-131zM455 0h-166l-88 655v-655h-170v1505h172q118 0 171.5 -108t53.5 -326q0 -112 -20 -204t-58 -138zM201 1286v-457q31 0 45 23q20 30 20 211q0 175 -18 203q-12 20 -47 20z" />
    <glyph glyph-name="racute" unicode="&#x155;" horiz-adv-x="364" 
d="M102 1489h164l-98 -184h-129zM326 1137v-246q-67 38 -102.5 0t-35.5 -113v-778h-157v1120h157v-61q46 78 138 78z" />
    <glyph glyph-name="Rcommaaccent" unicode="&#x156;" horiz-adv-x="505" 
d="M455 0h-166l-88 655v-655h-170v1505h172q118 0 171.5 -108t53.5 -326q0 -112 -20 -204t-58 -138zM201 1286v-457q31 0 45 23q20 30 20 211q0 175 -18 203q-12 20 -47 20zM283 -111v-141l-27 -133h-100l24 133h-37v141h140z" />
    <glyph glyph-name="rcommaaccent" unicode="&#x157;" horiz-adv-x="364" 
d="M326 1137v-246q-67 38 -102.5 0t-35.5 -113v-778h-157v1120h157v-61q46 78 138 78zM182 -98v-142l-26 -133h-101l25 133h-39v142h141z" />
    <glyph glyph-name="Rcaron" unicode="&#x158;" horiz-adv-x="505" 
d="M307 1690h-166l-86 184h133l35 -80l35 80h133zM455 0h-166l-88 655v-655h-170v1505h172q118 0 171.5 -108t53.5 -326q0 -112 -20 -204t-58 -138zM201 1286v-457q31 0 45 23q20 30 20 211q0 175 -18 203q-12 20 -47 20z" />
    <glyph glyph-name="rcaron" unicode="&#x159;" horiz-adv-x="364" 
d="M238 1305h-166l-86 184h133l35 -80l34 80h134zM326 1137v-246q-67 38 -102.5 0t-35.5 -113v-778h-157v1120h157v-61q46 78 138 78z" />
    <glyph glyph-name="Sacute" unicode="&#x15a;" horiz-adv-x="483" 
d="M162 1874h164l-99 -184h-131zM418 1124l-168 -24q0 219 -33 219q-17 0 -23 -37.5t-6 -112.5q0 -46 15 -106.5t31.5 -106t54.5 -141.5q66 -160 97.5 -264.5t31.5 -208.5q0 -40 -3 -76.5t-10.5 -79.5t-22.5 -77t-36 -63.5t-55 -45.5t-76 -16q-44 0 -78.5 17.5t-56 42
t-37 66t-23 74.5t-11.5 83.5t-4.5 76t-0.5 69.5v7l166 24q0 -258 45 -258q22 0 28.5 33.5t6.5 112.5q0 61 -18 132.5t-40.5 129t-76.5 188.5q-92 247 -92 387q0 45 4 87t16 92t32 86.5t55.5 61.5t82.5 26q41 1 73.5 -14.5t53.5 -40t36.5 -61.5t23 -71t12 -77.5t5.5 -71.5
t1 -62z" />
    <glyph glyph-name="sacute" unicode="&#x15b;" horiz-adv-x="440" 
d="M139 1489h164l-96 -184h-131zM381 834h-139q0 42 -8.5 86.5t-28.5 44.5q-29 0 -29 -117q0 -21 4.5 -44t8.5 -38.5t15.5 -41t15 -33.5t18.5 -36.5t16 -29.5q35 -59 57 -102t44 -119t22 -150q0 -33 -4 -65.5t-16 -71t-31.5 -66.5t-54.5 -47.5t-81 -19.5q-42 0 -74 14
t-51.5 41.5t-32.5 57.5t-18.5 73.5t-7.5 77t-2 78.5h148q0 -66 9 -118t29 -52t26.5 31.5t6.5 103.5q0 12 -1 24t-5 26t-6.5 24.5t-9.5 28t-10 26t-12.5 28.5t-12.5 26.5t-14 29.5t-13 28q-8 15 -31.5 59.5t-33 66t-24 59.5t-20 74.5t-5.5 78.5q0 116 44.5 191.5t131.5 75.5
q40 0 71.5 -14t50 -40.5t31 -55t18 -66.5t7.5 -65.5t2 -61.5z" />
    <glyph glyph-name="Scircumflex" unicode="&#x15c;" horiz-adv-x="483" 
d="M131 1823h166l84 -185h-133l-35 80l-35 -80h-133zM418 1124l-168 -24q0 219 -33 219q-17 0 -23 -37.5t-6 -112.5q0 -46 15 -106.5t31.5 -106t54.5 -141.5q66 -160 97.5 -264.5t31.5 -208.5q0 -40 -3 -76.5t-10.5 -79.5t-22.5 -77t-36 -63.5t-55 -45.5t-76 -16
q-44 0 -78.5 17.5t-56 42t-37 66t-23 74.5t-11.5 83.5t-4.5 76t-0.5 69.5v7l166 24q0 -258 45 -258q22 0 28.5 33.5t6.5 112.5q0 61 -18 132.5t-40.5 129t-76.5 188.5q-92 247 -92 387q0 45 4 87t16 92t32 86.5t55.5 61.5t82.5 26q41 1 73.5 -14.5t53.5 -40t36.5 -61.5
t23 -71t12 -77.5t5.5 -71.5t1 -62z" />
    <glyph glyph-name="scircumflex" unicode="&#x15d;" horiz-adv-x="440" 
d="M111 1489h165l84 -184h-133l-34 79l-35 -79h-133zM381 834h-139q0 42 -8.5 86.5t-28.5 44.5q-29 0 -29 -117q0 -21 4.5 -44t8.5 -38.5t15.5 -41t15 -33.5t18.5 -36.5t16 -29.5q35 -59 57 -102t44 -119t22 -150q0 -33 -4 -65.5t-16 -71t-31.5 -66.5t-54.5 -47.5t-81 -19.5
q-42 0 -74 14t-51.5 41.5t-32.5 57.5t-18.5 73.5t-7.5 77t-2 78.5h148q0 -66 9 -118t29 -52t26.5 31.5t6.5 103.5q0 12 -1 24t-5 26t-6.5 24.5t-9.5 28t-10 26t-12.5 28.5t-12.5 26.5t-14 29.5t-13 28q-8 15 -31.5 59.5t-33 66t-24 59.5t-20 74.5t-5.5 78.5
q0 116 44.5 191.5t131.5 75.5q40 0 71.5 -14t50 -40.5t31 -55t18 -66.5t7.5 -65.5t2 -61.5z" />
    <glyph glyph-name="Scedilla" unicode="&#x15e;" horiz-adv-x="483" 
d="M418 1124l-168 -24q0 219 -33 219q-17 0 -23 -37.5t-6 -112.5q0 -46 15 -106.5t31.5 -106t54.5 -141.5q66 -160 97.5 -264.5t31.5 -208.5q0 -40 -3 -76.5t-10.5 -79.5t-22.5 -77t-36 -63.5t-55 -45.5t-76 -16q-44 0 -78.5 17.5t-56 42t-37 66t-23 74.5t-11.5 83.5
t-4.5 76t-0.5 69.5v7l166 24q0 -258 45 -258q22 0 28.5 33.5t6.5 112.5q0 61 -18 132.5t-40.5 129t-76.5 188.5q-92 247 -92 387q0 45 4 87t16 92t32 86.5t55.5 61.5t82.5 26q41 1 73.5 -14.5t53.5 -40t36.5 -61.5t23 -71t12 -77.5t5.5 -71.5t1 -62zM283 -111v-141l-27 -133
h-100l24 133h-37v141h140z" />
    <glyph glyph-name="scedilla" unicode="&#x15f;" horiz-adv-x="440" 
d="M381 834h-139q0 42 -8.5 86.5t-28.5 44.5q-29 0 -29 -117q0 -21 4.5 -44t8.5 -38.5t15.5 -41t15 -33.5t18.5 -36.5t16 -29.5q35 -59 57 -102t44 -119t22 -150q0 -33 -4 -65.5t-16 -71t-31.5 -66.5t-54.5 -47.5t-81 -19.5q-42 0 -74 14t-51.5 41.5t-32.5 57.5t-18.5 73.5
t-7.5 77t-2 78.5h148q0 -66 9 -118t29 -52t26.5 31.5t6.5 103.5q0 12 -1 24t-5 26t-6.5 24.5t-9.5 28t-10 26t-12.5 28.5t-12.5 26.5t-14 29.5t-13 28q-8 15 -31.5 59.5t-33 66t-24 59.5t-20 74.5t-5.5 78.5q0 116 44.5 191.5t131.5 75.5q40 0 71.5 -14t50 -40.5t31 -55
t18 -66.5t7.5 -65.5t2 -61.5zM260 -111v-141l-27 -133h-100l25 133h-37v141h139z" />
    <glyph glyph-name="Scaron" unicode="&#x160;" horiz-adv-x="483" 
d="M295 1638h-166l-86 185h133l35 -80l35 80h133zM418 1124l-168 -24q0 219 -33 219q-17 0 -23 -37.5t-6 -112.5q0 -46 15 -106.5t31.5 -106t54.5 -141.5q66 -160 97.5 -264.5t31.5 -208.5q0 -40 -3 -76.5t-10.5 -79.5t-22.5 -77t-36 -63.5t-55 -45.5t-76 -16
q-44 0 -78.5 17.5t-56 42t-37 66t-23 74.5t-11.5 83.5t-4.5 76t-0.5 69.5v7l166 24q0 -258 45 -258q22 0 28.5 33.5t6.5 112.5q0 61 -18 132.5t-40.5 129t-76.5 188.5q-92 247 -92 387q0 45 4 87t16 92t32 86.5t55.5 61.5t82.5 26q41 1 73.5 -14.5t53.5 -40t36.5 -61.5
t23 -71t12 -77.5t5.5 -71.5t1 -62z" />
    <glyph glyph-name="scaron" unicode="&#x161;" horiz-adv-x="440" 
d="M270 1305h-166l-86 184h134l34 -80l35 80h133zM381 834h-139q0 42 -8.5 86.5t-28.5 44.5q-29 0 -29 -117q0 -21 4.5 -44t8.5 -38.5t15.5 -41t15 -33.5t18.5 -36.5t16 -29.5q35 -59 57 -102t44 -119t22 -150q0 -33 -4 -65.5t-16 -71t-31.5 -66.5t-54.5 -47.5t-81 -19.5
q-42 0 -74 14t-51.5 41.5t-32.5 57.5t-18.5 73.5t-7.5 77t-2 78.5h148q0 -66 9 -118t29 -52t26.5 31.5t6.5 103.5q0 12 -1 24t-5 26t-6.5 24.5t-9.5 28t-10 26t-12.5 28.5t-12.5 26.5t-14 29.5t-13 28q-8 15 -31.5 59.5t-33 66t-24 59.5t-20 74.5t-5.5 78.5
q0 116 44.5 191.5t131.5 75.5q40 0 71.5 -14t50 -40.5t31 -55t18 -66.5t7.5 -65.5t2 -61.5z" />
    <glyph glyph-name="Tcaron" unicode="&#x164;" horiz-adv-x="450" 
d="M281 1690h-166l-86 184h133l35 -80l34 80h134zM109 1278h-125v227h419v-227h-124v-1278h-170v1278z" />
    <glyph glyph-name="tcaron" unicode="&#x165;" horiz-adv-x="575" 
d="M530 1505v-227l-67 -266h-98l51 266h-51v227h165zM72 1397h157v-277h86v-186h-86v-934h-157v934h-68v186h68v277z" />
    <glyph glyph-name="Tbar" unicode="&#x166;" horiz-adv-x="450" 
d="M403 1278h-124v-152h57v-161h-57v-965h-170v965h-48v161h48v152h-125v227h419v-227z" />
    <glyph glyph-name="tbar" unicode="&#x167;" horiz-adv-x="362" 
d="M229 1120h86v-186h-86v-934h-157v934h-68v186h68v195h-58v162h277v-162h-62v-195z" />
    <glyph glyph-name="Utilde" unicode="&#x168;" horiz-adv-x="512" 
d="M88 1661v176q29 43 84 43q24 0 57 -17.5t52 -17.5q18 0 44 21t37 39v-170q-31 -52 -81 -52q-24 0 -57.5 19.5t-53.5 19.5q-16 0 -43.5 -23t-38.5 -38zM250 1505h170v-1216q0 -305 -201 -305q-203 0 -203 305v1216h170v-1216q0 -46 7 -68t26 -22q31 0 31 90v1216z" />
    <glyph glyph-name="utilde" unicode="&#x169;" 
d="M68 1276v176q29 43 84 43q24 0 57 -17.5t51 -17.5t44.5 21t37.5 39v-170q-31 -52 -82 -52q-24 0 -57 19.5t-53 19.5q-16 0 -43.5 -23t-38.5 -38zM242 238v882h161v-1120h-161v57q-16 -25 -50 -49t-59 -24q-110 0 -110 219v917h159v-884q0 -72 31 -72q29 0 29 74z" />
    <glyph glyph-name="Umacron" unicode="&#x16a;" horiz-adv-x="512" 
d="M88 1700v162h277v-162h-277zM250 1505h170v-1216q0 -305 -201 -305q-203 0 -203 305v1216h170v-1216q0 -46 7 -68t26 -22q31 0 31 90v1216z" />
    <glyph glyph-name="umacron" unicode="&#x16b;" 
d="M72 1315v162h274v-162h-274zM242 238v882h161v-1120h-161v57q-16 -25 -50 -49t-59 -24q-110 0 -110 219v917h159v-884q0 -72 31 -72q29 0 29 74z" />
    <glyph glyph-name="Ubreve" unicode="&#x16c;" horiz-adv-x="512" 
d="M297 1901l80 -115q-64 -98 -152 -98q-46 0 -88 28.5t-63 69.5l84 117q3 -7 9 -18t24 -29.5t34 -18.5q15 0 33 16t28 32zM250 1505h170v-1216q0 -305 -201 -305q-203 0 -203 305v1216h170v-1216q0 -46 7 -68t26 -22q31 0 31 90v1216z" />
    <glyph glyph-name="ubreve" unicode="&#x16d;" 
d="M281 1516l79 -115q-64 -98 -151 -98q-46 0 -88.5 28.5t-63.5 69.5l84 117q3 -7 9.5 -18t24.5 -29.5t34 -18.5q15 0 33 16t28 32zM242 238v882h161v-1120h-161v57q-16 -25 -50 -49t-59 -24q-110 0 -110 219v917h159v-884q0 -72 31 -72q29 0 29 74z" />
    <glyph glyph-name="Uring" unicode="&#x16e;" horiz-adv-x="512" 
d="M117 1806q0 62 32 103t78 41t77.5 -41t31.5 -103t-31.5 -102.5t-77.5 -40.5t-78 40.5t-32 102.5zM201 1806q0 -29 7.5 -50t18.5 -21q9 0 18 21.5t9 49.5t-9 50t-18 22q-11 0 -18.5 -21.5t-7.5 -50.5zM250 1505h170v-1216q0 -305 -201 -305q-203 0 -203 305v1216h170
v-1216q0 -46 7 -68t26 -22q31 0 31 90v1216z" />
    <glyph glyph-name="uring" unicode="&#x16f;" 
d="M98 1421q0 62 32.5 103t78.5 41t77 -40.5t31 -103.5q0 -62 -31 -102.5t-77 -40.5t-78.5 40.5t-32.5 102.5zM182 1421q0 -29 8 -50t19 -21q9 0 18 21.5t9 49.5t-9 50t-18 22q-11 0 -19 -21.5t-8 -50.5zM242 238v882h161v-1120h-161v57q-16 -25 -50 -49t-59 -24
q-110 0 -110 219v917h159v-884q0 -72 31 -72q29 0 29 74z" />
    <glyph glyph-name="Uhungarumlaut" unicode="&#x170;" horiz-adv-x="512" 
d="M84 1874h164l-96 -184h-132zM307 1874h164l-96 -184h-131zM250 1505h170v-1216q0 -305 -201 -305q-203 0 -203 305v1216h170v-1216q0 -46 7 -68t26 -22q31 0 31 90v1216z" />
    <glyph glyph-name="uhungarumlaut" unicode="&#x171;" 
d="M66 1489h163l-96 -184h-131zM289 1489h164l-97 -184h-131zM242 238v882h161v-1120h-161v57q-16 -25 -50 -49t-59 -24q-110 0 -110 219v917h159v-884q0 -72 31 -72q29 0 29 74z" />
    <glyph glyph-name="Uogonek" unicode="&#x172;" horiz-adv-x="512" 
d="M250 1505h170v-1216q0 -234 -119 -289h59q-25 -39 -43 -102q-8 -27 -8 -68t12.5 -59.5t30.5 -18.5q15 0 70 41l-8 -153q-46 -25 -82 -25q-66 0 -105 50.5t-39 123.5q0 64 43 148q4 11 31 49q-10 -2 -37 -2h-8q-201 2 -201 305v1216h170v-1216q0 -81 29 -90h3.5t8.5 5
t10.5 13.5t8.5 28.5t4 47v1212z" />
    <glyph glyph-name="uogonek" unicode="&#x173;" 
d="M242 238v882h161v-1120h-61q-26 -37 -43 -102q-8 -27 -8 -68t12.5 -59.5t30.5 -18.5q14 0 69 41l-10 -153q-46 -25 -82 -25q-66 0 -104.5 50.5t-38.5 123.5q0 64 43 148q4 4 4 6q21 31 41 57h-14v57q-16 -25 -50 -49t-59 -24q-110 0 -110 219v917h159v-884q0 -72 31 -72
q29 0 29 74z" />
    <glyph glyph-name="Wcircumflex" unicode="&#x174;" horiz-adv-x="684" 
d="M223 1823h166l84 -185h-133l-35 80l-35 -80h-133zM367 0l-58 721l-57 -721h-143l-115 1505h160l43 -706l49 706h125l51 -704q6 110 20.5 351.5t20.5 352.5h160l-111 -1505h-145z" />
    <glyph glyph-name="wcircumflex" unicode="&#x175;" horiz-adv-x="604" 
d="M186 1489h166l84 -184h-133l-35 79l-35 -79h-133zM451 0h-134l-47 532l-45 -532h-131l-100 1120h145l39 -514l45 514h99l43 -514l38 514h146z" />
    <glyph glyph-name="Ycircumflex" unicode="&#x176;" horiz-adv-x="481" 
d="M137 1823h166l84 -185h-133l-35 80l-35 -80h-133zM164 1505l57 -438q9 71 30 217t30 221h168l-142 -864v-641h-170v641l-141 864h168z" />
    <glyph glyph-name="ycircumflex" unicode="&#x177;" horiz-adv-x="442" 
d="M131 1489h166l84 -184h-133l-35 79l-35 -79h-133zM23 -395v182q48 -19 71 10q37 55 37 170l-135 1153h158l59 -661q5 78 26.5 332t26.5 329h160l-139 -1204q-11 -136 -58 -217q-35 -66 -91.5 -91.5t-114.5 -2.5z" />
    <glyph glyph-name="Ydieresis" unicode="&#x178;" horiz-adv-x="483" 
d="M47 1638v201h152v-201h-152zM246 1638v201h149v-201h-149zM164 1505l57 -438q9 71 30 217t30 221h168l-142 -864v-641h-170v641l-141 864h168z" />
    <glyph glyph-name="Zacute" unicode="&#x179;" horiz-adv-x="438" 
d="M139 1874h164l-98 -184h-129zM-6 0v238l207 1048h-178v219h360v-219l-213 -1067h213v-219h-389z" />
    <glyph glyph-name="zacute" unicode="&#x17a;" horiz-adv-x="380" 
d="M111 1489h163l-96 -184h-131zM-10 0v168l170 764h-144v188h312v-168l-170 -764h170v-188h-338z" />
    <glyph glyph-name="Zdotaccent" unicode="&#x17b;" horiz-adv-x="438" 
d="M121 1683v207h162v-207h-162zM-6 0v238l207 1048h-178v219h360v-219l-213 -1067h213v-219h-389z" />
    <glyph glyph-name="zdotaccent" unicode="&#x17c;" horiz-adv-x="380" 
d="M94 1298v207h160v-207h-160zM-10 0v168l170 764h-144v188h312v-168l-170 -764h170v-188h-338z" />
    <glyph glyph-name="Zcaron" unicode="&#x17d;" horiz-adv-x="438" 
d="M287 1638h-166l-86 185h133l35 -80l35 80h133zM-6 0v238l207 1048h-178v219h360v-219l-213 -1067h213v-219h-389z" />
    <glyph glyph-name="zcaron" unicode="&#x17e;" horiz-adv-x="380" 
d="M248 1305h-166l-86 184h133l35 -80l35 80h133zM-10 0v168l170 764h-144v188h312v-168l-170 -764h170v-188h-338z" />
    <glyph glyph-name="longs" unicode="&#x17f;" horiz-adv-x="346" 
d="M135 0h-131v1174q0 175 44.5 245t129.5 70q46 0 107 -21l-17 -163q-41 16 -69 16q-36 0 -50 -34.5t-14 -129.5v-1157z" />
    <glyph glyph-name="uni021A" unicode="&#x21a;" horiz-adv-x="450" 
d="M109 1278h-125v227h419v-227h-124v-1278h-170v1278zM283 -111v-141l-27 -133h-100l24 133h-37v141h140z" />
    <glyph glyph-name="uni021B" unicode="&#x21b;" horiz-adv-x="362" 
d="M72 1397h157v-277h86v-186h-86v-934h-157v934h-68v186h68v277zM283 -111v-141l-27 -133h-100l24 133h-37v141h140z" />
    <glyph glyph-name="circumflex" unicode="&#x2c6;" horiz-adv-x="673" 
d="M225 1489h166l84 -184h-133l-35 79l-35 -79h-133z" />
    <glyph glyph-name="caron" unicode="&#x2c7;" horiz-adv-x="673" 
d="M391 1305h-166l-86 184h133l35 -80l35 80h133z" />
    <glyph glyph-name="breve" unicode="&#x2d8;" horiz-adv-x="675" 
d="M379 1516l80 -115q-64 -98 -152 -98q-46 0 -88 28.5t-63 69.5l84 117q3 -7 9 -18t24 -29.5t34 -18.5q15 0 33 16t28 32z" />
    <glyph glyph-name="dotaccent" unicode="&#x2d9;" horiz-adv-x="673" 
d="M225 1298v207h162v-207h-162z" />
    <glyph glyph-name="ring" unicode="&#x2da;" horiz-adv-x="673" 
d="M197 1421q0 62 32 103t78 41q45 0 77 -41t32 -103t-32 -102.5t-77 -40.5q-46 0 -78 40.5t-32 102.5zM276 1421q0 -28 10 -46.5t21 -18.5q10 0 20.5 19t10.5 46t-10.5 45.5t-20.5 18.5q-11 0 -21 -18t-10 -46z" />
    <glyph glyph-name="ogonek" unicode="&#x2db;" horiz-adv-x="675" 
d="M279 0h83q-27 -43 -40 -102q-11 -37 -11 -68q0 -40 13.5 -59t29.5 -19t72 37l-10 -149q-46 -25 -82 -25q-66 0 -105 50.5t-39 123.5q0 64 43 148q5 5 5 6q23 35 41 57z" />
    <glyph glyph-name="tilde" unicode="&#x2dc;" horiz-adv-x="675" 
d="M170 1276v176q29 43 84 43q24 0 57 -17.5t51 -17.5t44.5 21t37.5 39v-170q-31 -52 -82 -52q-24 0 -57 19.5t-53 19.5q-16 0 -43.5 -23t-38.5 -38z" />
    <glyph glyph-name="hungarumlaut" unicode="&#x2dd;" horiz-adv-x="675" 
d="M174 1489h164l-96 -184h-131zM397 1489h164l-96 -184h-131z" />
    <glyph glyph-name="endash" unicode="&#x2013;" horiz-adv-x="544" 
d="M27 649v195h432v-195h-432z" />
    <glyph glyph-name="emdash" unicode="&#x2014;" horiz-adv-x="645" 
d="M27 649v195h530v-195h-530z" />
    <glyph glyph-name="quoteleft" unicode="&#x2018;" horiz-adv-x="247" 
d="M10 1012v227l68 266h98l-43 -266h43v-227h-166z" />
    <glyph glyph-name="quoteright" unicode="&#x2019;" horiz-adv-x="247" 
d="M174 1505v-227l-68 -266h-98l43 266h-43v227h166z" />
    <glyph glyph-name="quotesinglbase" unicode="&#x201a;" horiz-adv-x="247" 
d="M174 227v-227l-68 -266h-98l43 266h-43v227h166z" />
    <glyph glyph-name="quotedblleft" unicode="&#x201c;" 
d="M14 1012v227l68 266h98l-43 -266h43v-227h-166zM236 1012v227l67 266h98l-43 -266h43v-227h-165z" />
    <glyph glyph-name="quotedblright" unicode="&#x201d;" horiz-adv-x="466" 
d="M180 1505v-227l-67 -266h-99l43 266h-43v227h166zM401 1505v-227l-67 -266h-98l43 266h-43v227h165z" />
    <glyph glyph-name="quotedblbase" unicode="&#x201e;" horiz-adv-x="436" 
d="M180 227v-227l-67 -266h-99l43 266h-43v227h166zM360 227v-227l-67 -266h-98l43 266h-43v227h165z" />
    <glyph glyph-name="uni201F" unicode="&#x201f;" horiz-adv-x="466" 
d="M14 1505h166v-227h-51l51 -266h-98l-68 266v227zM256 1505h166v-227h-51l51 -266h-98l-68 266v227z" />
    <glyph glyph-name="bullet" unicode="&#x2022;" horiz-adv-x="458" 
d="M27 821q0 71 50.5 121.5t121.5 50.5t121.5 -50.5t50.5 -121.5t-50.5 -121.5t-121.5 -50.5t-121.5 50.5t-50.5 121.5z" />
    <glyph glyph-name="ellipsis" unicode="&#x2026;" horiz-adv-x="651" 
d="M14 0v227h166v-227h-166zM227 0v227h166v-227h-166zM440 0v227h166v-227h-166z" />
    <glyph glyph-name="perthousand" unicode="&#x2030;" horiz-adv-x="1705" 
 />
    <glyph glyph-name="Euro" unicode="&#x20ac;" horiz-adv-x="548" 
d="M14 821v137h64v238q0 88 22 162q18 63 56 112q42 52 116 52q75 0 117 -52q33 -41 57 -112q20 -79 23 -162v-84h-162v84q0 53 -18 94h2q-13 17 -17 17q-8 0 -20 -56q-6 -24 -6 -55v-238h139v-137h-139v-137h139v-137h-139v-238q0 -58 18 -94h-2l10 -16q17 0 29 55
q4 28 4 55v84h162v-84q-3 -85 -23 -164q-20 -58 -57 -110q-41 -51 -117 -51q-75 0 -116 51q-43 57 -56 110q-22 74 -22 164v238h-64v137h64v137h-64z" />
    <glyph glyph-name="trademark" unicode="&#x2122;" horiz-adv-x="624" 
d="M88 1401h-61v104h229v-104h-63v-580h-105v580zM449 821h-39l-37 361v-361h-86v684h102l43 -280q3 24 23.5 135.5t23.5 144.5h94v-684h-88v361q-31 -269 -36 -361z" />
    <glyph glyph-name="minus" unicode="&#x2212;" horiz-adv-x="526" 
d="M27 649v172h413v-172h-413z" />
    <glyph glyph-name="fi" unicode="&#xfb01;" horiz-adv-x="524" 
d="M217 0h-160v934h-63v186h63v66q1 43 2.5 72.5t6.5 72t15.5 71t27.5 56t44.5 41.5t63.5 14q40 0 76 -20v-170q-16 10 -32.5 10t-24.5 -8q-19 -21 -19 -127v-78h223v-1120h-159v934h-64v-934z" />
    <glyph glyph-name="fl" unicode="&#xfb02;" horiz-adv-x="524" 
d="M442 0h-161v934h-64v-934h-160v934h-63v186h63v66q1 43 2.5 72.5t6.5 72t15.5 71t27.5 56t44.5 41.5t63.5 14l64 -8h161v-1505zM281 1120v209q-31 10 -45 -4q-19 -21 -19 -127v-78h64z" />
    </font>
</defs>
</svg>
