<?xml version="1.0" encoding="iso-8859-1"?>
<!-- Generator: Adobe Illustrator 25.2.0, SVG Export Plug-In . SVG Version: 6.00 Build 0)  -->
<svg version="1.1" id="Layer_1" xmlns="http://www.w3.org/2000/svg" xmlns:xlink="http://www.w3.org/1999/xlink" x="0px" y="0px"
	 viewBox="0 0 1296 1728" style="enable-background:new 0 0 1296 1728;" xml:space="preserve">
<ellipse style="fill:#ED3333;" cx="648" cy="864" rx="256" ry="260.435"/>
<circle style="fill:#FFFFFF;" cx="643.671" cy="682.93" r="28.321"/>
<path style="fill:#FFFFFF;" d="M564.241,798.59c0,0-1.051-25.229,23.653-28.383h60.445c0,0,18.922,2.102,22.601,25.229
	c3.679,23.127,0,202.886,0,202.886h45.728c0,0,17.958,9.811,19.71,28.558c1.752,18.747-22.864,28.033-22.864,28.033H574.227
	c0,0-24.616-7.884-23.302-28.295c0,0-1.927-20.236,22.251-28.646l42.049,0.438l-0.35-171.787
	C614.875,826.622,573.176,835.733,564.241,798.59z"/>
</svg>
