<?xml version="1.0" encoding="iso-8859-1"?>
<!-- Generator: Adobe Illustrator 25.2.0, SVG Export Plug-In . SVG Version: 6.00 Build 0)  -->
<svg version="1.1" xmlns="http://www.w3.org/2000/svg" xmlns:xlink="http://www.w3.org/1999/xlink" x="0px" y="0px"
	 viewBox="0 0 500 500" style="enable-background:new 0 0 500 500;" xml:space="preserve">
<g id="Layer_1" style="display:none;">
	<ellipse style="display:inline;fill:#ED3333;" cx="250" cy="250.5" rx="250" ry="248.5"/>
	<ellipse style="display:inline;fill:#FFFFFF;" cx="245.883" cy="73.705" rx="27.657" ry="27.023"/>
	<path style="display:inline;fill:#FFFFFF;" d="M168.314,184.065c0,0-1.027-24.073,23.098-27.082h59.029
		c0,0,18.479,2.006,22.072,24.073s0,193.589,0,193.589h44.656c0,0,17.538,9.362,19.248,27.25s-22.328,26.748-22.328,26.748H178.067
		c0,0-24.039-7.523-22.756-26.999c0,0-1.882-19.309,21.729-27.333l41.063,0.418l-0.342-163.915
		C217.761,210.813,177.04,219.506,168.314,184.065z"/>
</g>
<g id="Layer_2">
	<path style="fill:#ED3333;" d="M437.5,396h-375C29.639,396,3,369.361,3,336.5V83c0-32.861,26.639-59.5,59.5-59.5h375
		c32.861,0,59.5,26.639,59.5,59.5v253.5C497,369.361,470.361,396,437.5,396z"/>
	<polygon style="fill:#ED3333;" points="247.864,479.485 312.991,392.346 184.657,390.943 	"/>
	
		<image style="display:none;overflow:visible;" width="100" height="92" xlink:href="../../../xampp/htdocs/aodesbiz/wp-content/themes/brator/assets/images/New folder/review-icon.png"  transform="matrix(4.94 0 0 4.9239 3 23.5)">
	</image>
	<circle style="fill:#FFFFFF;stroke:#FFFFFF;stroke-miterlimit:10;" cx="115.174" cy="213" r="29.957"/>
	<circle style="fill:#FFFFFF;stroke:#FFFFFF;stroke-miterlimit:10;" cx="250" cy="213" r="29.957"/>
	<circle style="fill:#FFFFFF;stroke:#FFFFFF;stroke-miterlimit:10;" cx="384.609" cy="213" r="29.957"/>
</g>
</svg>
